<mxfile host="app.diagrams.net" modified="2023-12-19T14:46:58.723Z" agent="Mozilla/5.0 (Windows NT 10.0; Win64; x64) AppleWebKit/537.36 (KHTML, like Gecko) Chrome/120.0.0.0 Safari/537.36" etag="rBQPiyssZkEhlz8oJVz-" version="22.1.11" type="github">
  <diagram name="Page-1" id="QkcrzcaYCH3qy_CwzK0_">
    <mxGraphModel dx="1061" dy="666" grid="1" gridSize="10" guides="1" tooltips="1" connect="1" arrows="1" fold="1" page="1" pageScale="1" pageWidth="827" pageHeight="1169" math="0" shadow="0">
      <root>
        <mxCell id="0" />
        <mxCell id="1" parent="0" />
        <mxCell id="Xxvg-gCRTEaE2rbNDNgC-104" value="" style="shape=image;verticalLabelPosition=bottom;labelBackgroundColor=default;verticalAlign=top;aspect=fixed;imageAspect=0;image=data:image/svg+xml,PHN2ZyB4bWxucz0iaHR0cDovL3d3dy53My5vcmcvMjAwMC9zdmciIHZpZXdCb3g9IjAgMCAzNC44NyA2OC42Ij48ZGVmcz48c3R5bGU+LmNscy0xLC5jbHMtN3tmaWxsOiNhNmM0ZDE7fS5jbHMtMSwuY2xzLTYsLmNscy03LC5jbHMtOCwuY2xzLTl7c3Ryb2tlOiMwMDU1N2M7fS5jbHMtMSwuY2xzLTl7c3Ryb2tlLW1pdGVybGltaXQ6My44NjtzdHJva2Utd2lkdGg6MC44NXB4O30uY2xzLTJ7ZmlsbDojZDllZGY1O30uY2xzLTN7ZmlsbDojMDA1NTdjO30uY2xzLTR7ZmlsbDojZDllNmViO30uY2xzLTUsLmNscy02LC5jbHMtOCwuY2xzLTl7ZmlsbDpub25lO30uY2xzLTV7c3Ryb2tlOiMwMDA7c3Ryb2tlLWxpbmVjYXA6cm91bmQ7c3Ryb2tlLWxpbmVqb2luOnJvdW5kO3N0cm9rZS13aWR0aDowLjM2cHg7fS5jbHMtNiwuY2xzLTd7c3Ryb2tlLXdpZHRoOjAuMzdweDt9LmNscy04e3N0cm9rZS13aWR0aDowLjM3cHg7fTwvc3R5bGU+PC9kZWZzPjxnIGlkPSJPcmlnaW5hbCI+PHJlY3Qgcng9IjAuMjgiIGhlaWdodD0iNjcuNzUiIHdpZHRoPSIzNC4wMiIgeT0iMC40MyIgeD0iMC40MyIgY2xhc3M9ImNscy0xIi8+PHJlY3QgaGVpZ2h0PSIxLjQyIiB3aWR0aD0iMS40MiIgeT0iNi4yMyIgeD0iMzEuNDYiIGNsYXNzPSJjbHMtMiIvPjxyZWN0IGhlaWdodD0iMS40MiIgd2lkdGg9IjEuNDIiIHk9IjkuMDciIHg9IjMxLjQ2IiBjbGFzcz0iY2xzLTIiLz48cmVjdCBoZWlnaHQ9IjEuNDIiIHdpZHRoPSIxLjQyIiB5PSIxMS45IiB4PSIzMS40NiIgY2xhc3M9ImNscy0yIi8+PHJlY3QgaGVpZ2h0PSIxLjQyIiB3aWR0aD0iMS40MiIgeT0iMTQuNyIgeD0iMzEuNDYiIGNsYXNzPSJjbHMtMiIvPjxyZWN0IGhlaWdodD0iMS40MiIgd2lkdGg9IjEuNDIiIHk9IjE3LjU3IiB4PSIzMS40NiIgY2xhc3M9ImNscy0yIi8+PHJlY3QgaGVpZ2h0PSIxLjQyIiB3aWR0aD0iMS40MiIgeT0iMjAuNDEiIHg9IjMxLjQ2IiBjbGFzcz0iY2xzLTIiLz48cmVjdCBoZWlnaHQ9IjMuNCIgd2lkdGg9IjEyLjM2IiB5PSIxLjEzIiB4PSIyLjA0IiBjbGFzcz0iY2xzLTMiLz48cG9seWdvbiBwb2ludHM9IjMxLjg5IDQyLjE3IDMzLjE0IDQyLjE3IDMzLjE0IDM3LjggMzMuMDIgMzcuOCAzMy4wMiAyNC41OSAzMS44OSAyNC41OSAzMS44OSA0Mi4xNyIgY2xhc3M9ImNscy00Ii8+PGxpbmUgeTI9IjQyLjMzIiB4Mj0iMzMuMzYiIHkxPSI0Mi4zMyIgeDE9IjMxLjU1IiBjbGFzcz0iY2xzLTUiLz48cmVjdCBoZWlnaHQ9IjQuOTkiIHdpZHRoPSI2Ljc4IiB5PSI1Ni40NyIgeD0iMi43IiBjbGFzcz0iY2xzLTYiLz48cmVjdCBoZWlnaHQ9IjMuMDYiIHdpZHRoPSI2LjU1IiB5PSI1Ny43MSIgeD0iMi44MiIgY2xhc3M9ImNscy02Ii8+PHBhdGggdHJhbnNmb3JtPSJ0cmFuc2xhdGUoLTM3OS40MiAtMTUyLjc5KSIgZD0iTTQxMi43OCwxOTAuNTl2LTMuMjRhNC4zMSw0LjMxLDAsMCwwLDAtNC44NlYxNzdINDExdjQuNzdsLS4xNiwwLS4xNS4wNS0uMTUsMC0uMTUuMDUtLjEzLjA1LS4xNCwwLS4xMy4wNS0uMTMsMC0uMTIuMDUtLjEyLjA2LS4xMS4wNS0uMTEsMC0uMTEuMDYtLjEuMDUtLjEuMDYtLjA5LjA2LS4wOS4wNS0uMDkuMDYtLjA4LjA1LS4wOC4wNi0uMDgsMC0uMDcuMDYtLjA3LjA1LS4wNy4wNi0uMDYsMC0uMDYuMDUtLjA2LjA2LS4wNSwwczAsMC0uMDUuMDVsLS4wNSwwLS4wNS4wNSwwLC4wNSwwLDAsMCwuMDUsMCwwLDAsLjA1LDAsMCwwLDAsMCwwLDAsMHMwLDAsMCwwbDAsMHMwLDAsMCwuMDVsMCwwYS4wNS4wNSwwLDAsMSwwLDBzMCwwLDAsMHYwbDAsMCwwLDBzMCwwLDAsMGwwLDB2MGEuMDguMDgsMCwwLDAsMCwwbDAsLjA1di4wOGEuMDYuMDYsMCwwLDAsMCwwdi4xMmEuMDkuMDksMCwwLDEsMCwwdi4zMmEuMDguMDgsMCwwLDEsMCwwdi4wOXMwLDAsMCwwYS4wOC4wOCwwLDAsMCwwLDB2LjA4bDAsMHMwLDAsMCwwLDAsMCwwLC4wNWwwLDBzMCwwLDAsMGwwLDAsMCwwdjBhLjA4LjA4LDAsMCwxLDAsMGwwLC4wNSwwLDAsMCwwLDAsLjA1LDAsMCwwLC4wNSwwLDAsMCwuMDUsMCwwLDAsMCwwLC4wNSwwLC4wNSwwLDAsMCwuMDUuMDUsMCwuMDUuMDVzMCwwLC4wNS4wNWwuMDUsMCwuMDYuMDUuMDYuMDYuMDYsMCwuMDcuMDUuMDcuMDYuMDcuMDYuMDgsMCwuMDguMDYuMDguMDUuMDkuMDYuMDksMCwuMDkuMDYuMS4wNS4xLjA2LjExLDAsLjExLjA2LjExLjA1LjEyLjA1LjEyLjA2LjEzLjA1LjEzLjA1LjE0LDAsLjEzLjA1LjE1LDAsLjE1LjA1LjE1LDAsLjE2LjA1djIuNTZoLS4zNHY0LjUzaDIuNDl2LTQuNTNaIiBjbGFzcz0iY2xzLTYiLz48bGluZSB5Mj0iNTUuNjciIHgyPSIxLjU2IiB5MT0iNTUuNjciIHgxPSIzLjI0IiBjbGFzcz0iY2xzLTYiLz48cmVjdCBoZWlnaHQ9IjEyLjUzIiB3aWR0aD0iNS43IiB5PSI1MC41MSIgeD0iMy4yNCIgY2xhc3M9ImNscy03Ii8+PGxpbmUgeTI9IjYyLjE5IiB4Mj0iMy4yNCIgeTE9IjYyLjE5IiB4MT0iMS41NiIgY2xhc3M9ImNscy02Ii8+PGxpbmUgeTI9IjU1LjY3IiB4Mj0iOC45NSIgeTE9IjU1LjY3IiB4MT0iMTAuNjMiIGNsYXNzPSJjbHMtNiIvPjxwb2x5Z29uIHBvaW50cz0iMjcuNDcgMjEuMDYgMjAuMSAyMS4wNiAyMC4xIDIyLjc2IDIwLjQ5IDIyLjc2IDIwLjQ5IDM3LjIyIDI3LjA3IDM3LjIyIDI3LjA3IDIyLjc2IDI3LjQ3IDIyLjc2IDI3LjQ3IDIxLjA2IiBjbGFzcz0iY2xzLTQiLz48bGluZSB5Mj0iMTQuMjQiIHgyPSIyMi45MyIgeTE9IjE0LjI0IiB4MT0iMjEuNTEiIGNsYXNzPSJjbHMtOCIvPjxyZWN0IGhlaWdodD0iNC4wNSIgd2lkdGg9IjEuNDIiIHk9IjExLjM2IiB4PSIyMS41MSIgY2xhc3M9ImNscy04Ii8+PHJlY3Qgcng9IjAuMjMiIGhlaWdodD0iMTAuMjEiIHdpZHRoPSI2LjgiIHk9IjguOTMiIHg9IjIwLjM4IiBjbGFzcz0iY2xzLTYiLz48cmVjdCBoZWlnaHQ9IjYuMjQiIHdpZHRoPSIyLjI3IiB5PSIxMC45MSIgeD0iMjEuMDkiIGNsYXNzPSJjbHMtNiIvPjxwb2x5bGluZSBwb2ludHM9IjAuNDIgNDYuNzQgMTEuNzYgNDYuNzQgMTEuNzYgNjcuODkgMTEuNzYgNjcuOSAxMS43NiA2Ny45IDExLjc2IDY3LjkxIDExLjc3IDY3LjkyIDExLjc3IDY3LjkyIDExLjc3IDY3LjkzIDExLjc3IDY3Ljk0IDExLjc3IDY3Ljk0IDExLjc3IDY3Ljk1IDExLjc3IDY3Ljk2IDExLjc3IDY3Ljk2IDExLjc4IDY3Ljk3IDExLjc4IDY3Ljk4IDExLjc4IDY3Ljk4IDExLjc4IDY3Ljk5IDExLjc4IDY4IDExLjc5IDY4IDExLjc5IDY4LjAxIDExLjc5IDY4LjAyIDExLjc5IDY4LjAyIDExLjggNjguMDMgMTEuOCA2OC4wMyAxMS44IDY4LjA0IDExLjgxIDY4LjA0IDExLjgxIDY4LjA1IDExLjgyIDY4LjA2IDExLjgyIDY4LjA2IDExLjgyIDY4LjA3IDExLjgzIDY4LjA3IDExLjgzIDY4LjA4IDExLjg0IDY4LjA4IDExLjg0IDY4LjA5IDExLjg1IDY4LjA5IDExLjg1IDY4LjEgMTEuODYgNjguMSAxMS44NiA2OC4xMSAxMS44NyA2OC4xMSAxMS44NyA2OC4xMiAxMS44OCA2OC4xMiAxMS44OCA2OC4xMiAxMS44OSA2OC4xMyAxMS45IDY4LjEzIDExLjkgNjguMTQgMTEuOTEgNjguMTQgMTEuOTEgNjguMTQgMTEuOTIgNjguMTQgMTEuOTMgNjguMTUgMTEuOTMgNjguMTUgMTEuOTQgNjguMTUgMTEuOTUgNjguMTYgMTEuOTUgNjguMTYgMTEuOTYgNjguMTYgMTEuOTcgNjguMTYgMTEuOTcgNjguMTcgMTEuOTggNjguMTcgMTEuOTkgNjguMTcgMTEuOTkgNjguMTcgMTIgNjguMTcgMTIuMDEgNjguMTcgMTIuMDEgNjguMTcgMTIuMDIgNjguMTcgMTIuMDMgNjguMTcgMTIuMDMgNjguMTcgMTIuMDQgNjguMTciIGNsYXNzPSJjbHMtOSIvPjxwb2x5bGluZSBwb2ludHM9IjE2LjE4IDAuNDIgMTYuMTggMC40MiAxNi4xNyAwLjQzIDE2LjE2IDAuNDMgMTYuMTYgMC40MyAxNi4xNiAwLjQzIDE2LjE1IDAuNDMgMTYuMTUgMC40MyAxNi4xNCAwLjQzIDE2LjE0IDAuNDMgMTYuMTMgMC40MyAxNi4xMyAwLjQzIDE2LjEyIDAuNDMgMTYuMTIgMC40MyAxNi4xMSAwLjQzIDE2LjExIDAuNDMgMTYuMSAwLjQ0IDE2LjEgMC40NCAxNi4wOSAwLjQ0IDE2LjA5IDAuNDQgMTYuMDkgMC40NCAxNi4wOCAwLjQ0IDE2LjA4IDAuNDUgMTYuMDcgMC40NSAxNi4wNyAwLjQ1IDE2LjA2IDAuNDUgMTYuMDYgMC40NSAxNi4wNSAwLjQ2IDE2LjA1IDAuNDYgMTYuMDQgMC40NiAxNi4wNCAwLjQ3IDE2LjA0IDAuNDcgMTYuMDMgMC40NyAxNi4wMiAwLjQ3IDE2LjAyIDAuNDggMTYuMDIgMC40OCAxNi4wMSAwLjQ4IDE2LjAxIDAuNDkgMTYgMC40OSAxNiAwLjQ5IDE1Ljk5IDAuNSAxNS45OSAwLjUgMTUuOTkgMC41IDE1Ljk4IDAuNTEgMTUuOTggMC41MSAxNS45OCAwLjUyIDE1Ljk3IDAuNTIgMTUuOTcgMC41MyAxNS45NiAwLjUzIDE1Ljk2IDAuNTQgMTUuOTYgMC41NCAxNS45NSAwLjU0IDE1Ljk1IDAuNTUgMTUuOTUgMC41NSAxNS45NCAwLjU2IDE1Ljk0IDAuNTYgMTUuOTQgMC41NyAxNS45NCAwLjU4IDE1LjkzIDAuNTggMTUuOTMgMC41OSAxNS45MyAwLjU5IDE1LjkyIDAuNiAxNS45MiAwLjYgMTUuOTIgMC42MSAxNS45MiAwLjYyIDE1LjkxIDAuNjIgMTUuOTEgMC42MyAxNS45MSAwLjY0IDE1LjkxIDAuNjQgMTUuOTEgMC42NSAxNS45MSAwLjY2IDE1LjkxIDAuNjYgMTUuOSAwLjY3IDE1LjkgMC42OCAxNS45IDAuNjkgMTUuOSAwLjY5IDE1LjkgMC43IDE1LjkgMC43MSAxNS45IDM3LjU1IDE1LjkgMzcuNTYgMTUuOSAzNy41OCAxNS45IDM3LjU5IDE1LjkxIDM3LjYgMTUuOTEgMzcuNjEgMTUuOTEgMzcuNjIgMTUuOTEgMzcuNjMgMTUuOTEgMzcuNjQgMTUuOTIgMzcuNjUgMTUuOTIgMzcuNjYgMTUuOTMgMzcuNjcgMTUuOTMgMzcuNjggMTUuOTQgMzcuNjkgMTUuOTUgMzcuNyAxNS45NSAzNy43MSAxNS45NiAzNy43MiAxNS45NiAzNy43MyAxNS45NyAzNy43NCAxNS45OCAzNy43NSAxNS45OSAzNy43NSAxNS45OSAzNy43NiAxNiAzNy43NyAxNi4wMSAzNy43OCAxNi4wMiAzNy43OCAxNi4wMyAzNy43OSAxNi4wNCAzNy44IDE2LjA1IDM3LjggMTYuMDYgMzcuODEgMTYuMDcgMzcuODEgMTYuMDggMzcuODEgMTYuMDkgMzcuODIgMTYuMSAzNy44MiAxNi4xMSAzNy44MyAxNi4xMiAzNy44MyAxNi4xMyAzNy44MyAxNi4xNCAzNy44MyAxNi4xNSAzNy44NCAxNi4xNiAzNy44NCAxNi4xOCAzNy44NCAxNi4xOSAzNy44NCAyNS42NyAzNy44NCAyNS42NyA2Ny44OSAyNS42NyA2Ny45IDI1LjY3IDY3LjkxIDI1LjY3IDY3LjkxIDI1LjY3IDY3LjkyIDI1LjY3IDY3LjkzIDI1LjY3IDY3LjkzIDI1LjY3IDY3Ljk0IDI1LjY3IDY3Ljk1IDI1LjY3IDY3Ljk1IDI1LjY4IDY3Ljk2IDI1LjY4IDY3Ljk3IDI1LjY4IDY3Ljk3IDI1LjY4IDY3Ljk4IDI1LjY4IDY3Ljk5IDI1LjY5IDY3Ljk5IDI1LjY5IDY4IDI1LjY5IDY4LjAxIDI1LjY5IDY4LjAxIDI1LjcgNjguMDIgMjUuNyA2OC4wMiAyNS43IDY4LjAzIDI1LjcxIDY4LjAzIDI1LjcxIDY4LjA0IDI1LjcxIDY4LjA1IDI1LjcyIDY4LjA1IDI1LjcyIDY4LjA2IDI1LjcyIDY4LjA2IDI1LjczIDY4LjA2IDI1LjczIDY4LjA3IDI1LjczIDY4LjA3IDI1Ljc0IDY4LjA4IDI1Ljc0IDY4LjA4IDI1Ljc1IDY4LjA5IDI1Ljc1IDY4LjA5IDI1Ljc1IDY4LjA5IDI1Ljc2IDY4LjEgMjUuNzYgNjguMSAyNS43NyA2OC4xMSAyNS43NyA2OC4xMSAyNS43NyA2OC4xMSAyNS43OCA2OC4xMiAyNS43OCA2OC4xMiAyNS43OSA2OC4xMiAyNS43OSA2OC4xMyAyNS44IDY4LjEzIDI1LjggNjguMTMgMjUuOCA2OC4xMyAyNS44MSA2OC4xNCAyNS44MSA2OC4xNCAyNS44MiA2OC4xNCAyNS44MiA2OC4xNCAyNS44MyA2OC4xNSAyNS44MyA2OC4xNSAyNS44NCA2OC4xNSAyNS44NCA2OC4xNSAyNS44NSA2OC4xNiAyNS44NSA2OC4xNiAyNS44NiA2OC4xNiAyNS44NiA2OC4xNiAyNS44NiA2OC4xNiAyNS44NyA2OC4xNiAyNS44NyA2OC4xNiAyNS44OCA2OC4xNyAyNS44OCA2OC4xNyAyNS44OSA2OC4xNyAyNS44OSA2OC4xNyAyNS45IDY4LjE3IDI1LjkgNjguMTcgMjUuOTEgNjguMTcgMjUuOTEgNjguMTcgMjUuOTIgNjguMTcgMjUuOTIgNjguMTcgMjUuOTMgNjguMTcgMjUuOTMgNjguMTcgMjUuOTQgNjguMTcgMjUuOTQgNjguMTcgMjUuOTUgNjguMTciIGNsYXNzPSJjbHMtOSIvPjxwYXRoIHRyYW5zZm9ybT0idHJhbnNsYXRlKC0zNzkuNDIgLTE1Mi43OSkiIGQ9Ik0zNzkuODQsMTU3Ljc1YzAsLjIuMDkuMjguMjkuMjhoMTEuMDV2MjEuMjZIMzgwLjEzYy0uMiwwLS4yOS4wOC0uMjkuMjkiIGNsYXNzPSJjbHMtOSIvPjxwYXRoIHRyYW5zZm9ybT0idHJhbnNsYXRlKC0zNzkuNDIgLTE1Mi43OSkiIGQ9Ik0zODQuMTgsMTY0LjQxYTEuMTQsMS4xNCwwLDAsMC0uOTQsMS4xMnY2LjI2YTEuMTQsMS4xNCwwLDAsMCwuOTQsMS4xMmwyLjI3LjRhMS4xMywxLjEzLDAsMCwwLDEuMzMtMS4xMnYtNy4wNmExLjEzLDEuMTMsMCwwLDAtMS4zMy0xLjEyWiIgY2xhc3M9ImNscy02Ii8+PHBvbHlnb24gcG9pbnRzPSI2LjgxIDIxLjcxIDUuMzcgMjEuNzEgNC42NSAyMi45NiA1LjM3IDI0LjIxIDYuODEgMjQuMjEgNy41NCAyMi45NiA2LjgxIDIxLjcxIiBjbGFzcz0iY2xzLTYiLz48cG9seWdvbiBwb2ludHM9IjYuODEgNy41NCA1LjM3IDcuNTQgNC42NSA4Ljc5IDUuMzcgMTAuMDQgNi44MSAxMC4wNCA3LjU0IDguNzkgNi44MSA3LjU0IiBjbGFzcz0iY2xzLTYiLz48cGF0aCB0cmFuc2Zvcm09InRyYW5zbGF0ZSgtMzc5LjQyIC0xNTIuNzkpIiBkPSJNMzg2LDE2MS41OGEuNTMuNTMsMCwwLDAtLjUzLS41My41My41MywwLDAsMCwwLDFBLjUzLjUzLDAsMCwwLDM4NiwxNjEuNThaIiBjbGFzcz0iY2xzLTYiLz48cGF0aCB0cmFuc2Zvcm09InRyYW5zbGF0ZSgtMzc5LjQyIC0xNTIuNzkpIiBkPSJNMzg2LDE3NS43NWEuNTMuNTMsMCwwLDAtLjUzLS41My41Mi41MiwwLDAsMC0uNTIuNTMuNTIuNTIsMCwwLDAsLjUyLjUyQS41Mi41MiwwLDAsMCwzODYsMTc1Ljc1WiIgY2xhc3M9ImNscy02Ii8+PHBvbHlsaW5lIHBvaW50cz0iOC45NSA1MC43MSAxMC42MyA1MC43MSAxMC42MyA2Ni4wMiAxLjU2IDY2LjAyIDEuNTYgNTAuNzEgMy4yNCA1MC43MSIgY2xhc3M9ImNscy02Ii8+PGxpbmUgeTI9IjYyLjE5IiB4Mj0iMTAuNjMiIHkxPSI2Mi4xOSIgeDE9IjguOTUiIGNsYXNzPSJjbHMtNiIvPjwvZz48L3N2Zz4=;" vertex="1" parent="1">
          <mxGeometry x="110" y="140" width="35" height="69" as="geometry" />
        </mxCell>
        <mxCell id="Xxvg-gCRTEaE2rbNDNgC-105" value="Text" style="text;html=1;strokeColor=none;fillColor=none;align=center;verticalAlign=middle;whiteSpace=wrap;rounded=0;" vertex="1" parent="1">
          <mxGeometry x="50" y="140" width="60" height="20" as="geometry" />
        </mxCell>
        <mxCell id="Xxvg-gCRTEaE2rbNDNgC-106" value="DP x" style="text;html=1;strokeColor=none;fillColor=none;align=center;verticalAlign=middle;whiteSpace=wrap;rounded=0;" vertex="1" parent="1">
          <mxGeometry x="50" y="190" width="60" height="20" as="geometry" />
        </mxCell>
        <mxCell id="Xxvg-gCRTEaE2rbNDNgC-107" value="IM-151 CPU" style="text;html=1;strokeColor=none;fillColor=none;align=center;verticalAlign=middle;whiteSpace=wrap;rounded=0;" vertex="1" parent="1">
          <mxGeometry x="40" y="170" width="70" height="20" as="geometry" />
        </mxCell>
        <mxCell id="Xxvg-gCRTEaE2rbNDNgC-108" value="" style="shape=image;verticalLabelPosition=bottom;labelBackgroundColor=default;verticalAlign=top;aspect=fixed;imageAspect=0;image=data:image/svg+xml,PHN2ZyB4bWxuczp4bGluaz0iaHR0cDovL3d3dy53My5vcmcvMTk5OS94bGluayIgeG1sbnM9Imh0dHA6Ly93d3cudzMub3JnLzIwMDAvc3ZnIiB0ZXh0LXJlbmRlcmluZz0iZ2VvbWV0cmljUHJlY2lzaW9uIiBzaGFwZS1yZW5kZXJpbmc9Imdlb21ldHJpY1ByZWNpc2lvbiIgdmlld0JveD0iMCAwIDI5LjI1IDY3LjYzIiBpZD0iZThBcnBhZk5tR1oxIj48cmVjdCBzdHJva2Utd2lkdGg9IjAuODUiIHN0cm9rZT0iIzAwNTU3YyIgZmlsbD0iI2E2YzRkMSIgdHJhbnNmb3JtPSJ0cmFuc2xhdGUoLjQxIDAuNDI1KSIgcnk9IjAiIHJ4PSIwIiBoZWlnaHQ9IjY2Ljc4IiB3aWR0aD0iMjguMzgiLz48cGF0aCBzdHJva2Utd2lkdGg9IjAuODUiIHN0cm9rZT0iIzAwNTU3YyIgZmlsbC1ydWxlPSJldmVub2RkIiBmaWxsPSIjYTZjNGQxIiB0cmFuc2Zvcm09InRyYW5zbGF0ZSgtMzU4LjMxLTE1My4yNykiIGQ9IiIvPjxyZWN0IGZpbGw9IiNkOWU2ZWIiIHRyYW5zZm9ybT0idHJhbnNsYXRlKDE5Ljk2IDEwLjEyKSIgcnk9IjAiIHJ4PSIwIiBoZWlnaHQ9IjE3LjQzIiB3aWR0aD0iNi40MSIvPjxwb2x5bGluZSBzdHJva2Utd2lkdGg9IjAuMjMiIHN0cm9rZT0iI2E2YzRkMSIgZmlsbC1ydWxlPSJldmVub2RkIiBmaWxsPSIjZDllZGY1IiBwb2ludHM9IjE0LjYsMzEuNTcgMTUuOCwzMS41NyAxNS44LDMwLjM5IDE0LjYsMzAuMzkgMTQuNiwzMS41NyIvPjxwb2x5bGluZSBzdHJva2Utd2lkdGg9IjAuMjMiIHN0cm9rZT0iI2E2YzRkMSIgZmlsbC1ydWxlPSJldmVub2RkIiBmaWxsPSIjZDllZGY1IiBwb2ludHM9IjE0LjYsMzAuMzkgMTUuOCwzMC4zOSAxNS44LDI5LjE5IDE0LjYsMjkuMTkgMTQuNiwzMC4zOSIvPjxwb2x5bGluZSBzdHJva2Utd2lkdGg9IjAuMjMiIHN0cm9rZT0iI2E2YzRkMSIgZmlsbC1ydWxlPSJldmVub2RkIiBmaWxsPSIjZDllZGY1IiBwb2ludHM9IjE5LjAxLDM4LjY5IDIwLjIyLDM4LjY5IDIwLjIyLDM3LjUxIDE5LjAxLDM3LjUxIDE5LjAxLDM4LjY5Ii8+PHBvbHlsaW5lIHN0cm9rZS13aWR0aD0iMC4yMyIgc3Ryb2tlPSIjYTZjNGQxIiBmaWxsLXJ1bGU9ImV2ZW5vZGQiIGZpbGw9IiNkOWVkZjUiIHBvaW50cz0iMjAuNjgsOC42OCAyMC42OCw3LjQ4IDE5LjUsNy40OCAxOS41LDguNjggMjAuNjgsOC42OCIvPjxwb2x5bGluZSBzdHJva2Utd2lkdGg9IjAuMjMiIHN0cm9rZT0iI2E2YzRkMSIgZmlsbC1ydWxlPSJldmVub2RkIiBmaWxsPSIjZDllZGY1IiBwb2ludHM9IjE5LjUsOC42OCAxOS41LDcuNDggMTguMyw3LjQ4IDE4LjMsOC42OCAxOS41LDguNjgiLz48cG9seWxpbmUgc3Ryb2tlLXdpZHRoPSIwLjIzIiBzdHJva2U9IiNhNmM0ZDEiIGZpbGwtcnVsZT0iZXZlbm9kZCIgZmlsbD0iI2Q5ZWRmNSIgcG9pbnRzPSIyMS44OCw4LjY4IDIxLjg4LDcuNDggMjAuNjgsNy40OCAyMC42OCw4LjY4IDIxLjg4LDguNjgiLz48bGluZSBzdHJva2Utd2lkdGg9IjAuODUiIHN0cm9rZT0iIzAwNTU3YyIgZmlsbD0ibm9uZSIgeTI9IjMuNDkiIHgyPSIwLjQzIiB5MT0iMy40OSIgeDE9IjcuNTMiLz48bGluZSBzdHJva2Utd2lkdGg9IjAuODUiIHN0cm9rZT0iIzAwNTU3YyIgZmlsbD0iI2E2YzRkMSIgeTI9IjY3LjIxIiB4Mj0iMTcuMzkiIHkxPSIzLjQ5IiB4MT0iMTcuMzkiLz48bGluZSBzdHJva2Utd2lkdGg9IjAuMjMiIHN0cm9rZT0iIzAwNTU3YyIgZmlsbD0ibm9uZSIgeTI9IjguOTEiIHgyPSIyOSIgeTE9IjguOTEiIHgxPSI2LjE0Ii8+PGxpbmUgc3Ryb2tlLXdpZHRoPSIwLjIzIiBzdHJva2U9IiMwMDU1N2MiIGZpbGw9Im5vbmUiIHkyPSI3LjI0IiB4Mj0iMjkiIHkxPSI3LjI0IiB4MT0iNi4xNCIvPjxyZWN0IGZpbGw9IiMwMDU1N2MiIHRyYW5zZm9ybT0idHJhbnNsYXRlKDE5LjA5IDQuNTMpIiByeT0iMCIgcng9IjAiIGhlaWdodD0iMi4yNiIgd2lkdGg9IjguMDEiLz48cGF0aCBzdHJva2Utd2lkdGg9IjAuMjMiIHN0cm9rZT0iIzAwNTU3YyIgZmlsbC1ydWxlPSJldmVub2RkIiBmaWxsPSJub25lIiB0cmFuc2Zvcm09InRyYW5zbGF0ZSgtMzU4LjMxLTE1My4yNykiIGQ9Ik0zNjcuNDYsMTU4Ljg4YzAsLjU1MjI4NS0uNDQ3NzE1LDEtMSwxcy0xLS40NDc3MTUtMS0xcy40NDc3MTUtMSwxLTFzMSwuNDQ3NzE1LDEsMVoiLz48cmVjdCBzdHJva2Utd2lkdGg9IjAuMjMiIHN0cm9rZT0iIzAwNTU3YyIgZmlsbD0ibm9uZSIgdHJhbnNmb3JtPSJ0cmFuc2xhdGUoLjQzIDQ5LjQxKSIgcnk9IjAiIHJ4PSIwIiBoZWlnaHQ9IjE3LjIzIiB3aWR0aD0iOS41MSIvPjxyZWN0IHN0cm9rZS13aWR0aD0iMC4yMyIgc3Ryb2tlPSIjMDA1NTdjIiBmaWxsPSJub25lIiB0cmFuc2Zvcm09InRyYW5zbGF0ZSguNDMgNTMuMikiIHJ5PSIwIiByeD0iMCIgaGVpZ2h0PSI2LjI5IiB3aWR0aD0iOS41MSIvPjxyZWN0IHN0cm9rZS13aWR0aD0iMC4yMyIgc3Ryb2tlPSIjMDA1NTdjIiBmaWxsPSIjYTZjNGQxIiB0cmFuc2Zvcm09InRyYW5zbGF0ZSgyLjY5IDU0LjM0KSIgcnk9IjAiIHJ4PSIwIiBoZWlnaHQ9IjEyLjMiIHdpZHRoPSI1LjUxIi8+PHBhdGggc3Ryb2tlLXdpZHRoPSIwLjIzIiBzdHJva2U9IiMwMDU1N2MiIGZpbGwtcnVsZT0iZXZlbm9kZCIgZmlsbD0iI2E2YzRkMSIgdHJhbnNmb3JtPSJ0cmFuc2xhdGUoLTM1OC4zMS0xNTMuMjcpIiBkPSJNMzYzLjQ1LDIwOS43M2MuMDM3MTY3LjM2MDgyNy0uMTM0Mzg0LjcxMTMyNi0uNDQyMTM1LjkwMzMzNHMtLjY5Nzk4LjE5MjAwOC0xLjAwNTczLDAtLjQ3OTMwMi0uNTQyNTA3LS40NDIxMzUtLjkwMzMzNGMuMDQ5ODk4LS40ODQ0MTkuNDU4MDE3LS44NTI2Ni45NDUtLjg1MjY2cy44OTUxMDIuMzY4MjQxLjk0NS44NTI2NloiLz48cGF0aCBzdHJva2Utd2lkdGg9IjAuMjMiIHN0cm9rZT0iIzAwNTU3YyIgZmlsbC1ydWxlPSJldmVub2RkIiBmaWxsPSIjYTZjNGQxIiB0cmFuc2Zvcm09InRyYW5zbGF0ZSgtMzU4LjMxLTE1My4yNykiIGQ9Ik0zNjYsMjA5LjczYzAsLjM4MDE5NS0uMjI5MDI0LjcyMjk1My0uNTgwMjc4Ljg2ODQ0N3MtLjc1NTU2NC4wNjUwNzEtMS4wMjQ0MDItLjIwMzc2Ny0uMzQ5MjYxLS42NzMxNDktLjIwMzc2Ny0xLjAyNDQwMi40ODgyNTItLjU4MDI3OC44Njg0NDctLjU4MDI3OGMuNTE2ODg5LjAwNTQxMy45MzQ1ODcuNDIzMTExLjk0Ljk0WiIvPjxwYXRoIHN0cm9rZS13aWR0aD0iMC4yMyIgc3Ryb2tlPSIjMDA1NTdjIiBmaWxsLXJ1bGU9ImV2ZW5vZGQiIGZpbGw9IiNhNmM0ZDEiIHRyYW5zZm9ybT0idHJhbnNsYXRlKC0zNTguMzEtMTUzLjI3KSIgZD0iTTM2My40NSwyMTcuODljLjAwNDA1NC4zODUxMjMtLjIyNDgxOC43MzQ1ODUtLjU3OTQ2OC44ODQ3ODNzLS43NjQ4OTIuMDcxNDA3LTEuMDM4NjY3LS4xOTk0ODctLjM1NjkwMy0uNjgwMjc4LS4yMTA0NjctMS4wMzY0OTguNDkzNDU3LS41ODg3NzcuODc4NjAyLS41ODg3OThjLjUyMDc5LS4wMDAwMjkuOTQ0NTE4LjQxOTIzOS45NS45NFoiLz48cGF0aCBzdHJva2Utd2lkdGg9IjAuMjMiIHN0cm9rZT0iIzAwNTU3YyIgZmlsbC1ydWxlPSJldmVub2RkIiBmaWxsPSIjYTZjNGQxIiB0cmFuc2Zvcm09InRyYW5zbGF0ZSgtMzU4LjMxLTE1My4yNykiIGQ9Ik0zNjYsMjE3Ljg5Yy4wMjY0MjQuNTE2NzQ5LS4zNjk3NDEuOTU3NjkxLS44ODYzNjEuOTg2NTQycy0uOTU5NDE3LS4zNjUyNC0uOTkwNjk0LS44ODE3MTguMzYwNzI5LS45NjExMjIuODc3MDU1LS45OTQ4MjRjLjI1MTA2NS0uMDE2Mzg4LjQ5ODIyLjA2ODU1Ny42ODYxNjQuMjM1ODI3cy4zMDA5ODcuNDAyOTAyLjMxMzgzNi42NTQxNzNaIi8+PHJlY3Qgc3Ryb2tlLXdpZHRoPSIwLjIzIiBzdHJva2U9IiMwMDU1N2MiIGZpbGw9IiNhNmM0ZDEiIHRyYW5zZm9ybT0idHJhbnNsYXRlKDIuNjkgNTguMDkpIiByeT0iMCIgcng9IjAiIGhlaWdodD0iMC45OSIgd2lkdGg9IjUuNTEiLz48cmVjdCBzdHJva2Utd2lkdGg9IjAuMjMiIHN0cm9rZT0iIzAwNTU3YyIgZmlsbD0iI2E2YzRkMSIgdHJhbnNmb3JtPSJ0cmFuc2xhdGUoMi42OSA2Mi4wNCkiIHJ5PSIwIiByeD0iMCIgaGVpZ2h0PSIwLjk5IiB3aWR0aD0iNS41MSIvPjxsaW5lIHN0cm9rZS13aWR0aD0iMC44NSIgc3Ryb2tlPSIjMDA1NTdjIiBmaWxsPSJub25lIiB0cmFuc2Zvcm09InRyYW5zbGF0ZSg2LjAxIDIyLjI4NSkiIHkyPSItMTguNzk1IiB4Mj0iMCIgeTE9IjE4Ljc5NSIgeDE9IjAiLz48bGluZSBzdHJva2Utd2lkdGg9IjAuODUiIHN0cm9rZT0iIzAwNTU3YyIgZmlsbD0ibm9uZSIgdHJhbnNmb3JtPSJ0cmFuc2xhdGUoMTcuNDEgMy40OSkiIHkyPSIwIiB4Mj0iMTEuNCIgeTE9IjAiIHgxPSItMTEuNCIvPjxsaW5lIHN0cm9rZS1saW5lY2FwPSJzcXVhcmUiIHN0cm9rZS13aWR0aD0iMC44NSIgc3Ryb2tlPSIjMDA1NTdjIiBmaWxsPSJub25lIiB0cmFuc2Zvcm09InRyYW5zbGF0ZSgxNy40IDQxLjA4KSIgeTI9IjAiIHgyPSIxMS4zOSIgeTE9IjAiIHgxPSItMTEuMzkiLz48L3N2Zz4=;" vertex="1" parent="1">
          <mxGeometry x="300" y="145" width="29" height="68" as="geometry" />
        </mxCell>
        <mxCell id="Xxvg-gCRTEaE2rbNDNgC-109" value="Text" style="text;html=1;strokeColor=none;fillColor=none;align=center;verticalAlign=middle;whiteSpace=wrap;rounded=0;" vertex="1" parent="1">
          <mxGeometry x="240" y="145" width="60" height="30" as="geometry" />
        </mxCell>
        <mxCell id="Xxvg-gCRTEaE2rbNDNgC-110" value="DP/IE ADDR" style="text;html=1;strokeColor=none;fillColor=none;align=center;verticalAlign=middle;whiteSpace=wrap;rounded=0;fontSize=11;" vertex="1" parent="1">
          <mxGeometry x="230" y="195" width="70" height="20" as="geometry" />
        </mxCell>
        <mxCell id="Xxvg-gCRTEaE2rbNDNgC-111" value="IM155" style="text;html=1;strokeColor=none;fillColor=none;align=center;verticalAlign=middle;whiteSpace=wrap;rounded=0;fontSize=11;" vertex="1" parent="1">
          <mxGeometry x="230" y="175" width="70" height="20" as="geometry" />
        </mxCell>
        <mxCell id="Xxvg-gCRTEaE2rbNDNgC-112" value="" style="shape=image;verticalLabelPosition=bottom;labelBackgroundColor=default;verticalAlign=top;aspect=fixed;imageAspect=0;image=data:image/svg+xml,PHN2ZyB4bWxuczp4bGluaz0iaHR0cDovL3d3dy53My5vcmcvMTk5OS94bGluayIgeG1sbnM9Imh0dHA6Ly93d3cudzMub3JnLzIwMDAvc3ZnIiB0ZXh0LXJlbmRlcmluZz0iZ2VvbWV0cmljUHJlY2lzaW9uIiBzaGFwZS1yZW5kZXJpbmc9Imdlb21ldHJpY1ByZWNpc2lvbiIgdmlld0JveD0iMCAwIDkuNiA2Ny42MyIgaWQ9ImVwZDhhanFKQTBjMSI+PHJlY3Qgc3Ryb2tlLXdpZHRoPSIwLjg1IiBzdHJva2U9IiMwMDU1N2MiIGZpbGw9IiNhNmM0ZDEiIHRyYW5zZm9ybT0idHJhbnNsYXRlKC40IDAuNDMpIiByeT0iMCIgcng9IjAiIGhlaWdodD0iNjYuNzgiIHdpZHRoPSI4LjgiLz48cGF0aCBzdHJva2Utd2lkdGg9IjAuODUiIHN0cm9rZT0iIzAwNTU3YyIgZmlsbC1ydWxlPSJldmVub2RkIiBmaWxsPSIjYTZjNGQxIiB0cmFuc2Zvcm09InRyYW5zbGF0ZSgtMzk1LjMxLTE1My4yNykiIGQ9IiIvPjxyZWN0IGZpbGw9IiNkOWU2ZWIiIHRyYW5zZm9ybT0idHJhbnNsYXRlKDEuOCAxMC4xMikiIHJ5PSIwIiByeD0iMCIgaGVpZ2h0PSIxNy40MyIgd2lkdGg9IjYuNDEiLz48cmVjdCBzdHJva2Utd2lkdGg9IjAuMjMiIHN0cm9rZT0iIzAwNTU3YyIgZmlsbD0ibm9uZSIgdHJhbnNmb3JtPSJ0cmFuc2xhdGUoNS42NiAyOS41OCkiIHJ5PSIwIiByeD0iMCIgaGVpZ2h0PSIyLjMiIHdpZHRoPSIyLjMxIi8+PGxpbmUgc3Ryb2tlLXdpZHRoPSIwLjIzIiBzdHJva2U9IiMwMDU1N2MiIGZpbGw9Im5vbmUiIHRyYW5zZm9ybT0idHJhbnNsYXRlKC0zNyAwKSIgeTI9IjguOTEiIHgyPSI0Ni40IiB5MT0iOC45MSIgeDE9IjM3LjYiLz48bGluZSBzdHJva2Utd2lkdGg9IjAuMjMiIHN0cm9rZT0iIzAwNTU3YyIgZmlsbD0ibm9uZSIgdHJhbnNmb3JtPSJ0cmFuc2xhdGUoLTM3IDApIiB5Mj0iNy4yNCIgeDI9IjQ2LjQiIHkxPSI3LjI0IiB4MT0iMzcuNiIvPjxwYXRoIHN0cm9rZS13aWR0aD0iMC4yMyIgc3Ryb2tlPSIjMDA1NTdjIiBmaWxsLXJ1bGU9ImV2ZW5vZGQiIGZpbGw9Im5vbmUiIHRyYW5zZm9ybT0idHJhbnNsYXRlKC0zOTUuMzEtMTUzLjI3KSIgZD0iTTM5OS43NywxOTcuMjNjMCwuNjQwNjUtLjUxOTM1LDEuMTYtMS4xNiwxLjE2cy0xLjE2LS41MTkzNS0xLjE2LTEuMTYuNTE5MzUtMS4xNiwxLjE2LTEuMTZjLjMwNzY1MSwwLC42MDI3MDIuMTIyMjE0LjgyMDI0NC4zMzk3NTZzLjMzOTc1Ni41MTI1OTMuMzM5NzU2LjgyMDI0NFoiLz48cGF0aCBzdHJva2Utd2lkdGg9IjAuMjMiIHN0cm9rZT0iIzAwNTU3YyIgZmlsbC1ydWxlPSJldmVub2RkIiBmaWxsPSJub25lIiB0cmFuc2Zvcm09InRyYW5zbGF0ZSgtMzk1LjMxLTE1My4yNykiIGQ9Ik00MDMuMDUsMTk3LjIzYy0uMDA1NTExLjYzMzc5Ni0uNTIyNzk5LDEuMTQzNjQ3LTEuMTU2NjA5LDEuMTM5OTgxcy0xLjE0NTE2NC0uNTE5NDY4LTEuMTQzMzQzLTEuMTUzMjg1LjUxNjEzMi0xLjE0NjY3MiwxLjE0OTk1Mi0xLjE0NjY5NmMuMzA2NzQtLjAwMDAxMi42MDA3NzIuMTIyNTIxLjgxNjcyOS4zNDAzNTVzLjMzNTkzOC41MTI5MTcuMzMzMjcxLjgxOTY0NVoiLz48cGF0aCBzdHJva2Utd2lkdGg9IjAuMjMiIHN0cm9rZT0iIzAwNTU3YyIgZmlsbC1ydWxlPSJldmVub2RkIiBmaWxsPSJub25lIiB0cmFuc2Zvcm09InRyYW5zbGF0ZSgtMzk1LjMxLTE1My4yNykiIGQ9Ik0zOTkuNzcsMjAwLjU2YzAsLjY0MDY1LS41MTkzNSwxLjE2LTEuMTYsMS4xNnMtMS4xNi0uNTE5MzUtMS4xNi0xLjE2LjUxOTM1LTEuMTYsMS4xNi0xLjE2Yy4zMDc2NTEsMCwuNjAyNzAyLjEyMjIxNC44MjAyNDQuMzM5NzU2cy4zMzk3NTYuNTEyNTkzLjMzOTc1Ni44MjAyNDRaIi8+PHBhdGggc3Ryb2tlLXdpZHRoPSIwLjIzIiBzdHJva2U9IiMwMDU1N2MiIGZpbGwtcnVsZT0iZXZlbm9kZCIgZmlsbD0ibm9uZSIgdHJhbnNmb3JtPSJ0cmFuc2xhdGUoLTM5NS4zMS0xNTMuMjY5OTk5KSIgZD0iTTQwMy4wNSwyMDAuNTZjLS4wMDU1MTEuNjMzNzk2LS41MjI3OTksMS4xNDM2NDctMS4xNTY2MDksMS4xMzk5ODFzLTEuMTQ1MTY0LS41MTk0NjgtMS4xNDMzNDMtMS4xNTMyODUuNTE2MTMyLTEuMTQ2NjcyLDEuMTQ5OTUyLTEuMTQ2Njk2Yy4zMDY3NC0uMDAwMDEyLjYwMDc3Mi4xMjI1MjEuODE2NzI5LjM0MDM1NXMuMzM1OTM4LjUxMjkxNy4zMzMyNzEuODE5NjQ1WiIvPjxwYXRoIHN0cm9rZS13aWR0aD0iMC4yMyIgc3Ryb2tlPSIjMDA1NTdjIiBmaWxsLXJ1bGU9ImV2ZW5vZGQiIGZpbGw9Im5vbmUiIHRyYW5zZm9ybT0idHJhbnNsYXRlKC0zOTUuMzEtMTUzLjI3KSIgZD0iTTM5OS43NywyMDRjMCwuNjQwNjUtLjUxOTM1LDEuMTYtMS4xNiwxLjE2cy0xLjE2LS41MTkzNS0xLjE2LTEuMTYuNTE5MzUtMS4xNiwxLjE2LTEuMTZjLjMwNzY1MSwwLC42MDI3MDIuMTIyMjE0LjgyMDI0NC4zMzk3NTZzLjMzOTc1Ni41MTI1OTMuMzM5NzU2LjgyMDI0NFoiLz48cGF0aCBzdHJva2Utd2lkdGg9IjAuMjMiIHN0cm9rZT0iIzAwNTU3YyIgZmlsbC1ydWxlPSJldmVub2RkIiBmaWxsPSJub25lIiB0cmFuc2Zvcm09InRyYW5zbGF0ZSgtMzk1LjMxLTE1My4yNjk5OTkpIiBkPSJNNDAzLjA1LDIwNGMtLjAwNTUxMS42MzM3OTYtLjUyMjc5OSwxLjE0MzY0Ny0xLjE1NjYwOSwxLjEzOTk4MXMtMS4xNDUxNjQtLjUxOTQ2OC0xLjE0MzM0My0xLjE1MzI4NS41MTYxMzItMS4xNDY2NzIsMS4xNDk5NTItMS4xNDY2OTZjLjMwNjc0LS4wMDAwMTIuNjAwNzcyLjEyMjUyMS44MTY3MjkuMzQwMzU1cy4zMzU5MzguNTEyOTE3LjMzMzI3MS44MTk2NDVaIi8+PHBhdGggc3Ryb2tlLXdpZHRoPSIwLjIzIiBzdHJva2U9IiMwMDU1N2MiIGZpbGwtcnVsZT0iZXZlbm9kZCIgZmlsbD0ibm9uZSIgdHJhbnNmb3JtPSJ0cmFuc2xhdGUoLTM5NS4zMS0xNTMuMjcpIiBkPSJNMzk5Ljc3LDIwNy4zMWMwLC42NDA2NS0uNTE5MzUsMS4xNi0xLjE2LDEuMTZzLTEuMTYtLjUxOTM1LTEuMTYtMS4xNi41MTkzNS0xLjE2LDEuMTYtMS4xNmMuMzA3NjUxLDAsLjYwMjcwMi4xMjIyMTQuODIwMjQ0LjMzOTc1NnMuMzM5NzU2LjUxMjU5My4zMzk3NTYuODIwMjQ0WiIvPjxwYXRoIHN0cm9rZS13aWR0aD0iMC4yMyIgc3Ryb2tlPSIjMDA1NTdjIiBmaWxsLXJ1bGU9ImV2ZW5vZGQiIGZpbGw9Im5vbmUiIHRyYW5zZm9ybT0idHJhbnNsYXRlKC0zOTUuMzEtMTUzLjI2OTk5OSkiIGQ9Ik00MDMuMDUsMjA3LjMxYy0uMDA1NTExLjYzMzc5Ni0uNTIyNzk5LDEuMTQzNjQ3LTEuMTU2NjA5LDEuMTM5OTgxcy0xLjE0NTE2NC0uNTE5NDY4LTEuMTQzMzQzLTEuMTUzMjg1LjUxNjEzMi0xLjE0NjY3MiwxLjE0OTk1Mi0xLjE0NjY5NmMuMzA2NzQtLjAwMDAxMi42MDA3NzIuMTIyNTIxLjgxNjcyOS4zNDAzNTVzLjMzNTkzOC41MTI5MTcuMzMzMjcxLjgxOTY0NVoiLz48cGF0aCBzdHJva2Utd2lkdGg9IjAuMjMiIHN0cm9rZT0iIzAwNTU3YyIgZmlsbC1ydWxlPSJldmVub2RkIiBmaWxsPSJub25lIiB0cmFuc2Zvcm09InRyYW5zbGF0ZSgtMzk1LjMwOTk5OS0xNTMuMjcpIiBkPSJNMzk5Ljc3LDIxMC42Yy4wMDQwNTIuNDcwMDY1LS4yNzU5ODkuODk2MTAzLS43MDkxMTQsMS4wNzg4MDRzLS45MzM2OTQuMDg1OTM5LTEuMjY3NTI4LS4yNDUwMTctLjQzNDkyNi0uODMwNjY4LS4yNTU5ODItMS4yNjUzNTkuNjAyNTQyLS43MTg0MTEsMS4wNzI2MjQtLjcxODQyOGMuNjM2NzY1LS4wMDAwMjQsMS4xNTQ1MTEuNTEzMjU4LDEuMTYsMS4xNVoiLz48cGF0aCBzdHJva2Utd2lkdGg9IjAuMjMiIHN0cm9rZT0iIzAwNTU3YyIgZmlsbC1ydWxlPSJldmVub2RkIiBmaWxsPSJub25lIiB0cmFuc2Zvcm09InRyYW5zbGF0ZSgtMzk1LjMwOTk5OS0xNTMuMjY5OTk5KSIgZD0iTTQwMy4wNSwyMTAuNmMwLC40NjUxMzItLjI4MDE4OS44ODQ0NjMtLjcwOTkxNCwxLjA2MjQ2MXMtLjkyNDM2MS4wNzk2MDktMS4yNTMyNTktLjI0OTI4OC0uNDI3Mjg3LS44MjM1MzMtLjI0OTI4OC0xLjI1MzI1OS41OTczMjktLjcwOTkxNCwxLjA2MjQ2MS0uNzA5OTE0Yy42MzUxMjcsMCwxLjE1LjUxNDg3MywxLjE1LDEuMTVaIi8+PHBhdGggc3Ryb2tlLXdpZHRoPSIwLjIzIiBzdHJva2U9IiMwMDU1N2MiIGZpbGwtcnVsZT0iZXZlbm9kZCIgZmlsbD0ibm9uZSIgdHJhbnNmb3JtPSJ0cmFuc2xhdGUoLTM5NS4zMDk5OTktMTUzLjI3KSIgZD0iTTM5OS43NywyMTMuOTNjLjAwNDA1Mi40NzAwNjUtLjI3NTk4OS44OTYxMDMtLjcwOTExNCwxLjA3ODgwNHMtLjkzMzY5NC4wODU5MzktMS4yNjc1MjgtLjI0NTAxNy0uNDM0OTI2LS44MzA2NjgtLjI1NTk4Mi0xLjI2NTM1OS42MDI1NDItLjcxODQxMSwxLjA3MjYyNC0uNzE4NDI4Yy42MzY3NjUtLjAwMDAyNCwxLjE1NDUxMS41MTMyNTgsMS4xNiwxLjE1WiIvPjxwYXRoIHN0cm9rZS13aWR0aD0iMC4yMyIgc3Ryb2tlPSIjMDA1NTdjIiBmaWxsLXJ1bGU9ImV2ZW5vZGQiIGZpbGw9Im5vbmUiIHRyYW5zZm9ybT0idHJhbnNsYXRlKC0zOTUuMzA5OTk5LTE1My4yNjk5OTkpIiBkPSJNNDAzLjA1LDIxMy45M2MwLC40NjUxMzItLjI4MDE4OS44ODQ0NjMtLjcwOTkxNCwxLjA2MjQ2MXMtLjkyNDM2MS4wNzk2MDktMS4yNTMyNTktLjI0OTI4OC0uNDI3Mjg3LS44MjM1MzMtLjI0OTI4OC0xLjI1MzI1OS41OTczMjktLjcwOTkxNCwxLjA2MjQ2MS0uNzA5OTE0Yy42MzUxMjcsMCwxLjE1LjUxNDg3MywxLjE1LDEuMTVaIi8+PHBhdGggc3Ryb2tlLXdpZHRoPSIwLjIzIiBzdHJva2U9IiMwMDU1N2MiIGZpbGwtcnVsZT0iZXZlbm9kZCIgZmlsbD0ibm9uZSIgdHJhbnNmb3JtPSJ0cmFuc2xhdGUoLTM5NS4zMDk5OTktMTUzLjI3KSIgZD0iTTM5OS43NywyMTcuMjZjLjAwNDA1Mi40NzAwNjUtLjI3NTk4OS44OTYxMDMtLjcwOTExNCwxLjA3ODgwNHMtLjkzMzY5NC4wODU5MzktMS4yNjc1MjgtLjI0NTAxNy0uNDM0OTI2LS44MzA2NjgtLjI1NTk4Mi0xLjI2NTM1OS42MDI1NDItLjcxODQxMSwxLjA3MjYyNC0uNzE4NDI4Yy4zMDY3MjgtLjAwMjY2Ny42MDE4MS4xMTczMTUuODE5NjQ1LjMzMzI3MXMuMzQwMzY3LjUwOTk4OS4zNDAzNTUuODE2NzI5WiIvPjxwYXRoIHN0cm9rZS13aWR0aD0iMC4yMyIgc3Ryb2tlPSIjMDA1NTdjIiBmaWxsLXJ1bGU9ImV2ZW5vZGQiIGZpbGw9Im5vbmUiIHRyYW5zZm9ybT0idHJhbnNsYXRlKC0zOTUuMzA5OTk5LTE1My4yNykiIGQ9Ik00MDMuMDUsMjE3LjI2YzAsLjQ2NTEzMi0uMjgwMTg5Ljg4NDQ2My0uNzA5OTE0LDEuMDYyNDYxcy0uOTI0MzYxLjA3OTYwOS0xLjI1MzI1OS0uMjQ5Mjg4LS40MjcyODctLjgyMzUzMy0uMjQ5Mjg4LTEuMjUzMjU5LjU5NzMyOS0uNzA5OTE0LDEuMDYyNDYxLS43MDk5MTRjLjMwNTgxNy0uMDAyNjk1LjU5OTg5Mi4xMTc2LjgxNjE0Ni4zMzM4NTRzLjMzNjU0OS41MTAzMjkuMzMzODU0LjgxNjE0NloiLz48cmVjdCBmaWxsPSIjZDllZGY1IiB0cmFuc2Zvcm09InRyYW5zbGF0ZSgxLjY5IDcuNzEpIiByeT0iMCIgcng9IjAiIGhlaWdodD0iMC43NCIgd2lkdGg9IjAuNzQiLz48cG9seWxpbmUgc3Ryb2tlLXdpZHRoPSIwLjIzIiBzdHJva2U9IiNhNmM0ZDEiIGZpbGwtcnVsZT0iZXZlbm9kZCIgZmlsbD0iI2Q5ZWRmNSIgdHJhbnNmb3JtPSJ0cmFuc2xhdGUoLTM3IDApIiBwb2ludHM9IjM5LjA5LDMxLjU3IDQwLjMsMzEuNTcgNDAuMywzMC4zOSAzOS4wOSwzMC4zOSAzOS4wOSwzMS41NyIvPjxwb2x5bGluZSBzdHJva2Utd2lkdGg9IjAuMjMiIHN0cm9rZT0iI2E2YzRkMSIgZmlsbC1ydWxlPSJldmVub2RkIiBmaWxsPSIjZDllZGY1IiB0cmFuc2Zvcm09InRyYW5zbGF0ZSgtMzcgMCkiIHBvaW50cz0iMzkuMDksMzAuMzkgNDAuMywzMC4zOSA0MC4zLDI5LjE5IDM5LjA5LDI5LjE5IDM5LjA5LDMwLjM5Ii8+PHBvbHlsaW5lIHN0cm9rZS13aWR0aD0iMC4yMyIgc3Ryb2tlPSIjYTZjNGQxIiBmaWxsLXJ1bGU9ImV2ZW5vZGQiIGZpbGw9IiNkOWVkZjUiIHRyYW5zZm9ybT0idHJhbnNsYXRlKC0zNyAwKSIgcG9pbnRzPSIzOS4wOSwzMi43OCA0MC4zLDMyLjc4IDQwLjMsMzEuNTcgMzkuMDksMzEuNTcgMzkuMDksMzIuNzgiLz48cG9seWxpbmUgc3Ryb2tlLXdpZHRoPSIwLjIzIiBzdHJva2U9IiNhNmM0ZDEiIGZpbGwtcnVsZT0iZXZlbm9kZCIgZmlsbD0iI2Q5ZWRmNSIgdHJhbnNmb3JtPSJ0cmFuc2xhdGUoLTM3IDApIiBwb2ludHM9IjM5LjA5LDM1LjE5IDQwLjMsMzUuMTkgNDAuMywzMy45OCAzOS4wOSwzMy45OCAzOS4wOSwzNS4xOSIvPjxwb2x5bGluZSBzdHJva2Utd2lkdGg9IjAuMjMiIHN0cm9rZT0iI2E2YzRkMSIgZmlsbC1ydWxlPSJldmVub2RkIiBmaWxsPSIjZDllZGY1IiB0cmFuc2Zvcm09InRyYW5zbGF0ZSgtMzcgMCkiIHBvaW50cz0iMzkuMDksMzMuOTggNDAuMywzMy45OCA0MC4zLDMyLjc4IDM5LjA5LDMyLjc4IDM5LjA5LDMzLjk4Ii8+PHBvbHlsaW5lIHN0cm9rZS13aWR0aD0iMC4yMyIgc3Ryb2tlPSIjYTZjNGQxIiBmaWxsLXJ1bGU9ImV2ZW5vZGQiIGZpbGw9IiNkOWVkZjUiIHRyYW5zZm9ybT0idHJhbnNsYXRlKC0zNyAwKSIgcG9pbnRzPSIzOS4wOSwzNi4zOSA0MC4zLDM2LjM5IDQwLjMsMzUuMTkgMzkuMDksMzUuMTkgMzkuMDksMzYuMzkiLz48cG9seWxpbmUgc3Ryb2tlLXdpZHRoPSIwLjIzIiBzdHJva2U9IiNhNmM0ZDEiIGZpbGwtcnVsZT0iZXZlbm9kZCIgZmlsbD0iI2Q5ZWRmNSIgdHJhbnNmb3JtPSJ0cmFuc2xhdGUoLTM3IDApIiBwb2ludHM9IjM5LjA5LDM3LjYxIDQwLjMsMzcuNjEgNDAuMywzNi4zOSAzOS4wOSwzNi4zOSAzOS4wOSwzNy42MSIvPjxwb2x5bGluZSBzdHJva2Utd2lkdGg9IjAuMjMiIHN0cm9rZT0iI2E2YzRkMSIgZmlsbC1ydWxlPSJldmVub2RkIiBmaWxsPSIjZDllZGY1IiB0cmFuc2Zvcm09InRyYW5zbGF0ZSgtMzcgMCkiIHBvaW50cz0iMzkuMDksMzguNzUgNDAuMywzOC43NSA0MC4zLDM3LjU5IDM5LjA5LDM3LjU5IDM5LjA5LDM4Ljc1Ii8+PHBvbHlsaW5lIHN0cm9rZS13aWR0aD0iMC4yMyIgc3Ryb2tlPSIjYTZjNGQxIiBmaWxsLXJ1bGU9ImV2ZW5vZGQiIGZpbGw9IiNkOWVkZjUiIHRyYW5zZm9ybT0idHJhbnNsYXRlKC0zNyAwKSIgcG9pbnRzPSIzOS4wOSwzOS45NyA0MC4zLDM5Ljk3IDQwLjMsMzguOCAzOS4wOSwzOC44IDM5LjA5LDM5Ljk3Ii8+PHBvbHlsaW5lIHN0cm9rZS13aWR0aD0iMC4yMyIgc3Ryb2tlPSIjYTZjNGQxIiBmaWxsLXJ1bGU9ImV2ZW5vZGQiIGZpbGw9IiNkOWVkZjUiIHRyYW5zZm9ybT0idHJhbnNsYXRlKC0zNyAwKSIgcG9pbnRzPSI0MC42OCwzMS41NyA0MS44OCwzMS41NyA0MS44OCwzMC4zOSA0MC42OCwzMC4zOSA0MC42OCwzMS41NyIvPjxwb2x5bGluZSBzdHJva2Utd2lkdGg9IjAuMjMiIHN0cm9rZT0iI2E2YzRkMSIgZmlsbC1ydWxlPSJldmVub2RkIiBmaWxsPSIjZDllZGY1IiB0cmFuc2Zvcm09InRyYW5zbGF0ZSgtMzcgMCkiIHBvaW50cz0iNDAuNjgsMzAuMzkgNDEuODgsMzAuMzkgNDEuODgsMjkuMTkgNDAuNjgsMjkuMTkgNDAuNjgsMzAuMzkiLz48cG9seWxpbmUgc3Ryb2tlLXdpZHRoPSIwLjIzIiBzdHJva2U9IiNhNmM0ZDEiIGZpbGwtcnVsZT0iZXZlbm9kZCIgZmlsbD0iI2Q5ZWRmNSIgdHJhbnNmb3JtPSJ0cmFuc2xhdGUoLTM3IDApIiBwb2ludHM9IjQwLjY4LDMyLjc4IDQxLjg4LDMyLjc4IDQxLjg4LDMxLjU3IDQwLjY4LDMxLjU3IDQwLjY4LDMyLjc4Ii8+PHBvbHlsaW5lIHN0cm9rZS13aWR0aD0iMC4yMyIgc3Ryb2tlPSIjYTZjNGQxIiBmaWxsLXJ1bGU9ImV2ZW5vZGQiIGZpbGw9IiNkOWVkZjUiIHRyYW5zZm9ybT0idHJhbnNsYXRlKC0zNyAwKSIgcG9pbnRzPSI0MC42OCwzNS4xOSA0MS44OCwzNS4xOSA0MS44OCwzMy45OCA0MC42OCwzMy45OCA0MC42OCwzNS4xOSIvPjxwb2x5bGluZSBzdHJva2Utd2lkdGg9IjAuMjMiIHN0cm9rZT0iI2E2YzRkMSIgZmlsbC1ydWxlPSJldmVub2RkIiBmaWxsPSIjZDllZGY1IiB0cmFuc2Zvcm09InRyYW5zbGF0ZSgtMzcgMCkiIHBvaW50cz0iNDAuNjgsMzMuOTggNDEuODgsMzMuOTggNDEuODgsMzIuNzggNDAuNjgsMzIuNzggNDAuNjgsMzMuOTgiLz48cG9seWxpbmUgc3Ryb2tlLXdpZHRoPSIwLjIzIiBzdHJva2U9IiNhNmM0ZDEiIGZpbGwtcnVsZT0iZXZlbm9kZCIgZmlsbD0iI2Q5ZWRmNSIgdHJhbnNmb3JtPSJ0cmFuc2xhdGUoLTM3IDApIiBwb2ludHM9IjQwLjY4LDM2LjM5IDQxLjg4LDM2LjM5IDQxLjg4LDM1LjE5IDQwLjY4LDM1LjE5IDQwLjY4LDM2LjM5Ii8+PHBvbHlsaW5lIHN0cm9rZS13aWR0aD0iMC4yMyIgc3Ryb2tlPSIjYTZjNGQxIiBmaWxsLXJ1bGU9ImV2ZW5vZGQiIGZpbGw9IiNkOWVkZjUiIHRyYW5zZm9ybT0idHJhbnNsYXRlKC0zNyAwKSIgcG9pbnRzPSI0MC42OCwzNy42MSA0MS44OCwzNy42MSA0MS44OCwzNi4zOSA0MC42OCwzNi4zOSA0MC42OCwzNy42MSIvPjxwb2x5bGluZSBzdHJva2Utd2lkdGg9IjAuMjMiIHN0cm9rZT0iI2E2YzRkMSIgZmlsbC1ydWxlPSJldmVub2RkIiBmaWxsPSIjZDllZGY1IiB0cmFuc2Zvcm09InRyYW5zbGF0ZSgtMzcgMCkiIHBvaW50cz0iNDAuNjgsMzguNzUgNDEuODgsMzguNzUgNDEuODgsMzcuNTkgNDAuNjgsMzcuNTkgNDAuNjgsMzguNzUiLz48L3N2Zz4=;" vertex="1" parent="1">
          <mxGeometry x="123" y="305" width="10" height="68" as="geometry" />
        </mxCell>
        <mxCell id="Xxvg-gCRTEaE2rbNDNgC-113" value="DI" style="text;html=1;strokeColor=none;fillColor=none;align=center;verticalAlign=middle;whiteSpace=wrap;rounded=0;fontSize=8;rotation=90;" vertex="1" parent="1">
          <mxGeometry x="123" y="290" width="10" height="20" as="geometry" />
        </mxCell>
        <mxCell id="Xxvg-gCRTEaE2rbNDNgC-114" value="" style="shape=image;verticalLabelPosition=bottom;labelBackgroundColor=default;verticalAlign=top;aspect=fixed;imageAspect=0;image=data:image/svg+xml,PHN2ZyB4bWxucz0iaHR0cDovL3d3dy53My5vcmcvMjAwMC9zdmciIHZpZXdCb3g9IjAgMCAxNy44NiA4MS4zNSI+PGRlZnM+PHN0eWxlPi5jbHMtMXtmaWxsOiNhNmM0ZDE7c3Ryb2tlLXdpZHRoOjAuODVweDt9LmNscy0xLC5jbHMtMntzdHJva2U6IzAwNTU3Yzt9LmNscy0ye2ZpbGw6bm9uZTtzdHJva2Utd2lkdGg6MC4yM3B4O30uY2xzLTN7ZmlsbDojZDllZGY1O30uY2xzLTR7ZmlsbDojZDllNmViO308L3N0eWxlPjwvZGVmcz48ZyBpZD0iT3JpZ2luYWwiPjxyZWN0IGhlaWdodD0iNzMuNyIgd2lkdGg9IjE3LjAxIiB5PSIwLjQzIiB4PSIwLjQzIiBjbGFzcz0iY2xzLTEiLz48cGF0aCB0cmFuc2Zvcm09InRyYW5zbGF0ZSgtMzg3LjkyIC0xNDYuNDEpIiBkPSJNMzg4Ljg2LDIyMC41M2gxNnY2LjgxSDQwM2EuMzEuMzEsMCwwLDEtLjI1LS4xNGMtLjkzLTEuNjEtMS44NS0zLjIyLTIuNzgtNC44MmEuMjkuMjksMCwwLDAtLjI1LS4xNUgzOTRhLjI5LjI5LDAsMCwwLS4yNS4xNWMtLjkzLDEuNi0xLjg1LDMuMjEtMi43OCw0LjgyYS4yOS4yOSwwLDAsMS0uMjUuMTRoLTEuODdaIiBjbGFzcz0iY2xzLTEiLz48bGluZSB5Mj0iNzQuMTIiIHgyPSIxMS45NCIgeTE9Ijc1Ljg4IiB4MT0iMTEuOTQiIGNsYXNzPSJjbHMtMiIvPjxsaW5lIHkyPSI3NC4xMiIgeDI9IjE0Ljg4IiB5MT0iODAuODgiIHgxPSIxNC44OCIgY2xhc3M9ImNscy0yIi8+PHJlY3QgaGVpZ2h0PSI0LjU0IiB3aWR0aD0iMS44MiIgeT0iNzYuMzkiIHg9IjE1LjYxIiBjbGFzcz0iY2xzLTEiLz48cmVjdCBoZWlnaHQ9IjEuMTIiIHdpZHRoPSIxNy4wMSIgeT0iMC40MyIgeD0iMC40MyIgY2xhc3M9ImNscy0yIi8+PHBhdGggdHJhbnNmb3JtPSJ0cmFuc2xhdGUoLTM4Ny45MiAtMTQ2LjQxKSIgZD0iTTM5Ni41NSwxNzMuNGExLjUzLDEuNTMsMCwxLDAsMS44LDEuMkExLjUyLDEuNTIsMCwwLDAsMzk2LjU1LDE3My40WiIgY2xhc3M9ImNscy0xIi8+PHBhdGggdHJhbnNmb3JtPSJ0cmFuc2xhdGUoLTM4Ny45MiAtMTQ2LjQxKSIgZD0iTTQwMC4yMywxNzguNjdhNC41NCw0LjU0LDAsMSwwLS4zNSw2LjQxQTQuNTQsNC41NCwwLDAsMCw0MDAuMjMsMTc4LjY3WiIgY2xhc3M9ImNscy0xIi8+PHJlY3QgaGVpZ2h0PSIwLjg2IiB3aWR0aD0iMC44NiIgeT0iNC42NCIgeD0iMTIuNzIiIGNsYXNzPSJjbHMtMyIvPjxyZWN0IGhlaWdodD0iMC44NiIgd2lkdGg9IjAuODYiIHk9IjQuNjQiIHg9IjExLjI4IiBjbGFzcz0iY2xzLTMiLz48cmVjdCBoZWlnaHQ9IjAuODYiIHdpZHRoPSIwLjg2IiB5PSI0LjY0IiB4PSI5Ljg0IiBjbGFzcz0iY2xzLTMiLz48cmVjdCBoZWlnaHQ9IjIuMDMiIHdpZHRoPSIxNy4wMSIgeT0iNC4wNyIgeD0iMC40MyIgY2xhc3M9ImNscy0yIi8+PHBvbHlnb24gcG9pbnRzPSI3LjIgNjIuMTYgNy4yIDYyLjIzIDcuMTkgNjIuMyA3LjE5IDYyLjM2IDcuMTggNjIuNDMgNy4xNiA2Mi41IDcuMTUgNjIuNTcgNy4xMyA2Mi42MyA3LjEgNjIuNyA3LjA4IDYyLjc3IDcuMDUgNjIuODMgNy4wMiA2Mi44OSA2Ljk4IDYyLjk1IDYuOTUgNjMuMDEgNi45MSA2My4wNyA2Ljg2IDYzLjEyIDYuODIgNjMuMTcgNi43OCA2My4yMiA2LjczIDYzLjI3IDYuNjggNjMuMzEgNi42MyA2My4zNiA2LjU3IDYzLjQgNi41MiA2My40NCA2LjQ2IDYzLjQ4IDYuNCA2My41MSA2LjMzIDYzLjU0IDYuMjcgNjMuNTcgNi4yMSA2My42IDYuMTQgNjMuNjIgNi4wNyA2My42NCA2LjAxIDYzLjY2IDUuOTQgNjMuNjcgNS44NyA2My42OCA1LjggNjMuNjkgNS43NCA2My42OSA1LjY3IDYzLjY5IDUuNiA2My42OSA1LjU0IDYzLjY5IDUuNDcgNjMuNjggNS40IDYzLjY3IDUuMzMgNjMuNjYgNS4yNiA2My42NCA1LjIgNjMuNjIgNS4xMyA2My42IDUuMDcgNjMuNTcgNSA2My41NCA0Ljk0IDYzLjUxIDQuODggNjMuNDggNC44MiA2My40NCA0Ljc2IDYzLjQgNC43MSA2My4zNiA0LjY2IDYzLjMxIDQuNjEgNjMuMjcgNC41NiA2My4yMiA0LjUyIDYzLjE3IDQuNDcgNjMuMTIgNC40MyA2My4wNyA0LjM5IDYzLjAxIDQuMzYgNjIuOTUgNC4zMiA2Mi44OSA0LjI5IDYyLjgzIDQuMjYgNjIuNzcgNC4yNCA2Mi43IDQuMjEgNjIuNjMgNC4xOSA2Mi41NyA0LjE4IDYyLjUgNC4xNiA2Mi40MyA0LjE1IDYyLjM2IDQuMTQgNjIuMyA0LjE0IDYyLjIzIDQuMTQgNjIuMTYgNC4xNCA2Mi4wOSA0LjE0IDYyLjAyIDQuMTUgNjEuOTUgNC4xNiA2MS44OCA0LjE4IDYxLjgxIDQuMiA2MS43NCA0LjIyIDYxLjY3IDQuMjUgNjEuNiA0LjI3IDYxLjU0IDQuMyA2MS40NyA0LjM0IDYxLjQxIDQuMzggNjEuMzQgNC40MiA2MS4yOCA0LjQ2IDYxLjIzIDQuNSA2MS4xNyA0LjU1IDYxLjEyIDQuNiA2MS4wNyA0LjY1IDYxLjAyIDQuNyA2MC45OCA0Ljc2IDYwLjkzIDQuODIgNjAuODkgNC44OCA2MC44NSA0Ljk0IDYwLjgyIDUuMDEgNjAuNzggNS4wOCA2MC43NSA1LjE0IDYwLjczIDUuMjEgNjAuNyA1LjI4IDYwLjY4IDUuMzUgNjAuNjcgNS40MiA2MC42NSA1LjQ5IDYwLjY0IDUuNTYgNjAuNjQgNS42MyA2MC42MyA1LjcgNjAuNjMgNS43NyA2MC42NCA1Ljg0IDYwLjY0IDUuOTEgNjAuNjUgNS45OSA2MC42NyA2LjA2IDYwLjY4IDYuMTMgNjAuNyA2LjIgNjAuNzMgNi4yNiA2MC43NSA2LjMzIDYwLjc4IDYuNCA2MC44MiA2LjQ2IDYwLjg1IDYuNTIgNjAuODkgNi41OCA2MC45MyA2LjYzIDYwLjk4IDYuNjkgNjEuMDIgNi43NCA2MS4wNyA2Ljc5IDYxLjEyIDYuODMgNjEuMTcgNi44OCA2MS4yMyA2LjkyIDYxLjI4IDYuOTYgNjEuMzQgNyA2MS40MSA3LjAzIDYxLjQ3IDcuMDcgNjEuNTQgNy4wOSA2MS42IDcuMTIgNjEuNjcgNy4xNCA2MS43NCA3LjE2IDYxLjgxIDcuMTcgNjEuODggNy4xOCA2MS45NSA3LjE5IDYyLjAyIDcuMiA2Mi4wOSA3LjIgNjIuMTYiIGNsYXNzPSJjbHMtMiIvPjxwb2x5Z29uIHBvaW50cz0iOS4yOSAyNS40NiA5LjI5IDIzLjk5IDkgMjMuNyA4Ljk4IDIzLjY4IDguOTYgMjMuNjcgOC45NSAyMy42NSA4Ljk0IDIzLjYzIDguOTIgMjMuNjEgOC45MSAyMy41OSA4LjkgMjMuNTcgOC44OSAyMy41NSA4Ljg4IDIzLjUzIDguODcgMjMuNTEgOC44NiAyMy40OCA4Ljg1IDIzLjQ2IDguODUgMjMuNDQgOC44NCAyMy40MSA4Ljg0IDIzLjM5IDguODMgMjMuMzcgOC44MyAyMy4zNCA4LjgzIDIzLjMyIDguODMgMjMuMyA4LjgzIDkuNjggOC44MyA5LjY1IDguODMgOS42MyA4LjgzIDkuNjEgOC44NCA5LjU5IDguODQgOS41NiA4Ljg1IDkuNTQgOC44NSA5LjUyIDguODYgOS40OSA4Ljg3IDkuNDcgOC44OCA5LjQ1IDguODkgOS40MyA4LjkgOS40MSA4LjkxIDkuMzkgOC45MiA5LjM3IDguOTQgOS4zNSA4Ljk1IDkuMzMgOC45NiA5LjMxIDguOTggOS4yOSA4Ljk5IDkuMjggOS4yNSA5LjAyIDkuMjUgNy4zMiAxLjgxIDcuMzIgMS44MSA5LjAyIDIuMDYgOS4yOCAyLjA4IDkuMjkgMi4wOSA5LjMxIDIuMTEgOS4zMyAyLjEyIDkuMzUgMi4xMyA5LjM3IDIuMTUgOS4zOSAyLjE2IDkuNDEgMi4xNyA5LjQzIDIuMTggOS40NSAyLjE5IDkuNDcgMi4yIDkuNDkgMi4yIDkuNTIgMi4yMSA5LjU0IDIuMjEgOS41NiAyLjIyIDkuNTkgMi4yMiA5LjYxIDIuMjIgOS42MyAyLjIzIDkuNjUgMi4yMyA5LjY4IDIuMjMgMjMuMyAyLjIzIDIzLjMyIDIuMjIgMjMuMzQgMi4yMiAyMy4zNyAyLjIyIDIzLjM5IDIuMjEgMjMuNDEgMi4yMSAyMy40NCAyLjIgMjMuNDYgMi4xOSAyMy40OCAyLjE5IDIzLjUxIDIuMTggMjMuNTMgMi4xNyAyMy41NSAyLjE2IDIzLjU3IDIuMTUgMjMuNTkgMi4xMyAyMy42MSAyLjEyIDIzLjYzIDIuMSAyMy42NSAyLjA5IDIzLjY3IDIuMDggMjMuNjggMi4wNiAyMy43IDEuNzYgMjMuOTkgMS43NiAyNS40NiAxLjc3IDI1LjQ3IDEuNzcgMjUuNDggMS43NyAyNS41IDEuNzcgMjUuNTEgMS43NyAyNS41MiAxLjc4IDI1LjU0IDEuNzggMjUuNTUgMS43OCAyNS41NiAxLjc5IDI1LjU3IDEuNzkgMjUuNTkgMS44IDI1LjYgMS44MSAyNS42MSAxLjgxIDI1LjYyIDEuODIgMjUuNjMgMS44MyAyNS42NCAxLjg0IDI1LjY1IDEuODQgMjUuNjYgMS44NSAyNS42NiAxLjg2IDI1LjY3IDEuODcgMjUuNjggMS44OCAyNS42OSAxLjg5IDI1LjcgMS45IDI1LjcgMS45MSAyNS43MSAxLjkzIDI1LjcyIDEuOTQgMjUuNzIgMS45NSAyNS43MyAxLjk2IDI1LjczIDEuOTcgMjUuNzMgMS45OSAyNS43NCAyIDI1Ljc0IDIuMDEgMjUuNzQgMi4wMiAyNS43NCAyLjA0IDI1Ljc0IDIuMDUgMjUuNzQgOS4wMSAyNS43NCA5LjAyIDI1Ljc0IDkuMDMgMjUuNzQgOS4wNCAyNS43NCA5LjA2IDI1Ljc0IDkuMDcgMjUuNzQgOS4wOCAyNS43MyA5LjA5IDI1LjczIDkuMTEgMjUuNzMgOS4xMiAyNS43MiA5LjEzIDI1LjcyIDkuMTQgMjUuNzEgOS4xNSAyNS43IDkuMTYgMjUuNyA5LjE3IDI1LjY5IDkuMTggMjUuNjggOS4xOSAyNS42NyA5LjIgMjUuNjYgOS4yMSAyNS42NiA5LjIyIDI1LjY1IDkuMjMgMjUuNjQgOS4yMyAyNS42MyA5LjI0IDI1LjYyIDkuMjUgMjUuNjEgOS4yNiAyNS42IDkuMjYgMjUuNTkgOS4yNyAyNS41NyA5LjI3IDI1LjU2IDkuMjggMjUuNTUgOS4yOCAyNS41NCA5LjI4IDI1LjUyIDkuMjkgMjUuNTEgOS4yOSAyNS41IDkuMjkgMjUuNDggOS4yOSAyNS40NyA5LjI5IDI1LjQ2IiBjbGFzcz0iY2xzLTQiLz48cmVjdCBoZWlnaHQ9IjAuODUiIHdpZHRoPSIwLjg1IiB5PSI1MS42NyIgeD0iMTIuNzMiIGNsYXNzPSJjbHMtMyIvPjxyZWN0IGhlaWdodD0iMC44NSIgd2lkdGg9IjAuODUiIHk9IjUwLjIzIiB4PSIxMi43MyIgY2xhc3M9ImNscy0zIi8+PHJlY3QgaGVpZ2h0PSIwLjg1IiB3aWR0aD0iMC44NSIgeT0iNDguNzkiIHg9IjEyLjczIiBjbGFzcz0iY2xzLTMiLz48cmVjdCBoZWlnaHQ9IjAuODUiIHdpZHRoPSIwLjg1IiB5PSI0Ny4zNSIgeD0iMTIuNzMiIGNsYXNzPSJjbHMtMyIvPjxwYXRoIHRyYW5zZm9ybT0idHJhbnNsYXRlKC0zODcuOTIgLTE0Ni40MSkiIGQ9Ik0zOTIuODUsMjA4LjU3YS43NC43NCwwLDEsMCwuNzQtLjczQS43NC43NCwwLDAsMCwzOTIuODUsMjA4LjU3WiIgY2xhc3M9ImNscy0yIi8+PGxpbmUgeTI9Ijc0LjEyIiB4Mj0iNS45MiIgeTE9Ijc1Ljg4IiB4MT0iNS45MiIgY2xhc3M9ImNscy0yIi8+PGxpbmUgeTI9Ijc0LjEyIiB4Mj0iMi45OCIgeTE9IjgwLjg4IiB4MT0iMi45OCIgY2xhc3M9ImNscy0yIi8+PGxpbmUgeTI9Ijc2Ljk0IiB4Mj0iMTcuNDMiIHkxPSI3Ni45NCIgeDE9IjE1LjYxIiBjbGFzcz0iY2xzLTIiLz48bGluZSB5Mj0iNzguMjEiIHgyPSIxNy40MyIgeTE9Ijc4LjIxIiB4MT0iMTUuNjEiIGNsYXNzPSJjbHMtMiIvPjxwYXRoIHRyYW5zZm9ybT0idHJhbnNsYXRlKC0zODcuOTIgLTE0Ni40MSkiIGQ9Ik0zOTYsMTc0LjcyaDBhMzcuOSwzNy45LDAsMCwwLS4zNiwxNC4yOC40Mi40MiwwLDAsMCwuNDIuMzVoMS41NEEuNDIuNDIsMCwwLDAsMzk4LDE4OWEzNy44NSwzNy44NSwwLDAsMC0uMzYtMTQuMjcuODUuODUsMCwwLDAtMS42NiwwWiIgY2xhc3M9ImNscy0xIi8+PC9nPjwvc3ZnPg==;" vertex="1" parent="1">
          <mxGeometry x="221.75" y="292.75" width="18" height="81" as="geometry" />
        </mxCell>
        <mxCell id="Xxvg-gCRTEaE2rbNDNgC-115" value="MS R 3A xkW" style="text;html=1;strokeColor=none;fillColor=none;align=center;verticalAlign=middle;whiteSpace=wrap;rounded=0;rotation=90;fontSize=8;" vertex="1" parent="1">
          <mxGeometry x="200" y="252" width="61.5" height="20" as="geometry" />
        </mxCell>
        <mxCell id="Xxvg-gCRTEaE2rbNDNgC-116" value="" style="shape=image;verticalLabelPosition=bottom;labelBackgroundColor=default;verticalAlign=top;aspect=fixed;imageAspect=0;image=data:image/svg+xml,PHN2ZyB4bWxuczp4bGluaz0iaHR0cDovL3d3dy53My5vcmcvMTk5OS94bGluayIgeG1sbnM9Imh0dHA6Ly93d3cudzMub3JnLzIwMDAvc3ZnIiB0ZXh0LXJlbmRlcmluZz0iZ2VvbWV0cmljUHJlY2lzaW9uIiBzaGFwZS1yZW5kZXJpbmc9Imdlb21ldHJpY1ByZWNpc2lvbiIgdmlld0JveD0iMCAwIDQuNjUgNjcuNjMiIGlkPSJlZ2NkeTNLTThlazEiPjxyZWN0IHN0cm9rZS13aWR0aD0iMC44NSIgc3Ryb2tlPSIjMDA1NTdjIiBmaWxsPSIjYTZjNGQxIiB0cmFuc2Zvcm09InRyYW5zbGF0ZSguNCAwLjQzKSIgcnk9IjAiIHJ4PSIwIiBoZWlnaHQ9IjY2Ljc4IiB3aWR0aD0iMy44NSIvPjxwYXRoIHN0cm9rZS13aWR0aD0iMC44NSIgc3Ryb2tlPSIjMDA1NTdjIiBmaWxsLXJ1bGU9ImV2ZW5vZGQiIGZpbGw9IiNhNmM0ZDEiIHRyYW5zZm9ybT0idHJhbnNsYXRlKC00MzAuMzEtMTUzLjI3KSIgZD0iIi8+PHBvbHlsaW5lIHN0cm9rZS13aWR0aD0iMC44NSIgc3Ryb2tlPSIjMDA1NTdjIiBmaWxsPSJub25lIiB0cmFuc2Zvcm09Im1hdHJpeCguMDQzMzE4IDAgMCAxIDAuMTM5NjU5IDApIiBwb2ludHM9Ijk4LjM1MDM2Niw0MS4wOCA2LjAxLDQxLjA4IDYuMDEsMy40OSA5OC4zNTAzNjYsMy40OSIvPjwvc3ZnPg==;" vertex="1" parent="1">
          <mxGeometry x="313.25" y="292.75" width="5" height="68" as="geometry" />
        </mxCell>
        <mxCell id="Xxvg-gCRTEaE2rbNDNgC-117" value="End" style="text;html=1;strokeColor=none;fillColor=none;align=center;verticalAlign=middle;whiteSpace=wrap;rounded=0;rotation=90;fontSize=6;" vertex="1" parent="1">
          <mxGeometry x="307" y="280" width="17" height="8.5" as="geometry" />
        </mxCell>
        <mxCell id="Xxvg-gCRTEaE2rbNDNgC-118" value="" style="shape=image;verticalLabelPosition=bottom;labelBackgroundColor=default;verticalAlign=top;aspect=fixed;imageAspect=0;image=data:image/svg+xml,PHN2ZyB4bWxucz0iaHR0cDovL3d3dy53My5vcmcvMjAwMC9zdmciIHZpZXdCb3g9IjAgMCAxMy42MSA1Ny41NCI+PGRlZnM+PHN0eWxlPi5jbHMtMSwuY2xzLTl7ZmlsbDojYTZjNGQxO30uY2xzLTIsLmNscy0zLC5jbHMtNSwuY2xzLTh7ZmlsbDpub25lO30uY2xzLTIsLmNscy0zLC5jbHMtNSwuY2xzLTgsLmNscy05e3N0cm9rZTojMDA1NTdjO30uY2xzLTJ7c3Ryb2tlLXdpZHRoOjAuODVweDt9LmNscy0ze3N0cm9rZS13aWR0aDowLjIzcHg7fS5jbHMtNHtmaWxsOiNmZmVkMDA7fS5jbHMtNXtzdHJva2UtbWl0ZXJsaW1pdDoxMDt9LmNscy01LC5jbHMtOCwuY2xzLTl7c3Ryb2tlLXdpZHRoOjAuMzdweDt9LmNscy02e2ZpbGw6IzAwNTU3Yzt9LmNscy03e2ZpbGw6I2Q5ZWRmNTt9PC9zdHlsZT48L2RlZnM+PGcgZGF0YS1uYW1lPSJPcmlnaW5hbCIgaWQ9Ik9yaWdpbmFsLTIiPjxyZWN0IGhlaWdodD0iNTYuNjkiIHdpZHRoPSIxMi43NiIgeT0iMC40MyIgeD0iMC40MyIgY2xhc3M9ImNscy0xIi8+PHJlY3QgaGVpZ2h0PSI1Ni42OSIgd2lkdGg9IjEyLjc2IiB5PSIwLjQzIiB4PSIwLjQzIiBjbGFzcz0iY2xzLTIiLz48cGF0aCB0cmFuc2Zvcm09InRyYW5zbGF0ZSgtMzkwLjA1IC0xNTguMzIpIiBkPSJNMzkxLjI2LDE3NC4yNyIgY2xhc3M9ImNscy0xIi8+PHBhdGggdHJhbnNmb3JtPSJ0cmFuc2xhdGUoLTM5MC4wNSAtMTU4LjMyKSIgZD0iTTM5MS4yNiwxNzQuMjciIGNsYXNzPSJjbHMtMyIvPjxwYXRoIHRyYW5zZm9ybT0idHJhbnNsYXRlKC0zOTAuMDUgLTE1OC4zMikiIGQ9Ik0zOTEuMjYsMTc3LjgiIGNsYXNzPSJjbHMtMSIvPjxwYXRoIHRyYW5zZm9ybT0idHJhbnNsYXRlKC0zOTAuMDUgLTE1OC4zMikiIGQ9Ik0zOTEuMjYsMTc3LjgiIGNsYXNzPSJjbHMtMyIvPjxwYXRoIHRyYW5zZm9ybT0idHJhbnNsYXRlKC0zOTAuMDUgLTE1OC4zMikiIGQ9Ik0zOTEuMjYsMTgxLjMiIGNsYXNzPSJjbHMtMSIvPjxwYXRoIHRyYW5zZm9ybT0idHJhbnNsYXRlKC0zOTAuMDUgLTE1OC4zMikiIGQ9Ik0zOTEuMjYsMTgxLjMiIGNsYXNzPSJjbHMtMyIvPjxwb2x5Z29uIHBvaW50cz0iMTIuMTMgMTMuMjYgMTIuMTMgOS4xOCAxLjQ4IDkuMTggMS40OCAxMy4yNiAwLjQ2IDEzLjI2IDAuNDYgMC40MyA2LjggMC40MyAxMy4xNSAwLjQzIDEzLjE1IDEzLjI2IDEyLjEzIDEzLjI2IiBjbGFzcz0iY2xzLTQiLz48cG9seWdvbiBwb2ludHM9IjEyLjEzIDEzLjI2IDEyLjEzIDkuMTggMS40OCA5LjE4IDEuNDggMTMuMjYgMC40NiAxMy4yNiAwLjQ2IDAuNDMgNi44IDAuNDMgMTMuMTUgMC40MyAxMy4xNSAxMy4yNiAxMi4xMyAxMy4yNiIgY2xhc3M9ImNscy01Ii8+PHJlY3QgaGVpZ2h0PSIyLjAxIiB3aWR0aD0iMTAuNjIiIHk9IjEwLjciIHg9IjEuNTEiIGNsYXNzPSJjbHMtNSIvPjxyZWN0IGhlaWdodD0iMS45NSIgd2lkdGg9IjEuOTUiIHk9IjEwLjciIHg9IjQuMTIiIGNsYXNzPSJjbHMtNSIvPjxyZWN0IGhlaWdodD0iMS45NSIgd2lkdGg9IjEuOTUiIHk9IjEwLjciIHg9IjcuNTQiIGNsYXNzPSJjbHMtNSIvPjxwb2x5Z29uIHBvaW50cz0iMTIuMTMgNDQuMyAxMi4xMyA0OC4zOCAxLjQ4IDQ4LjM4IDEuNDggNDQuMyAwLjQ2IDQ0LjMgMC40NiA1Ny4xMiA2LjggNTcuMTIgMTMuMTUgNTcuMTIgMTMuMTUgNDQuMyAxMi4xMyA0NC4zIiBjbGFzcz0iY2xzLTQiLz48cG9seWdvbiBwb2ludHM9IjEyLjEzIDQ0LjMgMTIuMTMgNDguMzggMS40OCA0OC4zOCAxLjQ4IDQ0LjMgMC40NiA0NC4zIDAuNDYgNTcuMTIgNi44IDU3LjEyIDEzLjE1IDU3LjEyIDEzLjE1IDQ0LjMgMTIuMTMgNDQuMyIgY2xhc3M9ImNscy01Ii8+PHJlY3QgaGVpZ2h0PSIyIiB3aWR0aD0iMTAuNjIiIHk9IjQ0Ljg1IiB4PSIxLjUxIiBjbGFzcz0iY2xzLTUiLz48cmVjdCBoZWlnaHQ9IjIuNSIgd2lkdGg9IjguNSIgeT0iMC40MiIgeD0iMi42MSIgY2xhc3M9ImNscy02Ii8+PHJlY3QgaGVpZ2h0PSIxLjY4IiB3aWR0aD0iMS42NyIgeT0iMzEuODEiIHg9IjEuMjIiIGNsYXNzPSJjbHMtNyIvPjxyZWN0IGhlaWdodD0iMS42NyIgd2lkdGg9IjEuNjciIHk9IjMzLjg1IiB4PSIxLjIyIiBjbGFzcz0iY2xzLTciLz48cmVjdCByeD0iMS40MSIgaGVpZ2h0PSIxMS41NSIgd2lkdGg9IjYuNDYiIHk9IjE3LjYzIiB4PSIyLjU5IiBjbGFzcz0iY2xzLTEiLz48cmVjdCByeD0iMS40MSIgaGVpZ2h0PSIxMS41NSIgd2lkdGg9IjYuNDYiIHk9IjE3LjYzIiB4PSIyLjU5IiBjbGFzcz0iY2xzLTgiLz48cmVjdCBoZWlnaHQ9IjEzLjk2IiB3aWR0aD0iMy4xMiIgeT0iMTYuNDYiIHg9IjQuMjUiIGNsYXNzPSJjbHMtOSIvPjxsaW5lIHkyPSIxOS44NyIgeDI9IjQuMjUiIHkxPSIxOS44NyIgeDE9IjcuMzciIGNsYXNzPSJjbHMtOSIvPjxsaW5lIHkyPSIyNy4wNSIgeDI9IjQuMjUiIHkxPSIyNy4wNSIgeDE9IjcuMzciIGNsYXNzPSJjbHMtOSIvPjxwYXRoIHRyYW5zZm9ybT0idHJhbnNsYXRlKC0zOTAuMDUgLTE1OC4zMikiIGQ9Ik0zOTUuODcsMTk2LjUxYTEuMjgsMS4yOCwwLDEsMC0xLjI2LDEuMjksMS4yOCwxLjI4LDAsMCwwLDEuMjYtMS4yOSIgY2xhc3M9ImNscy0xIi8+PHBhdGggdHJhbnNmb3JtPSJ0cmFuc2xhdGUoLTM5MC4wNSAtMTU4LjMyKSIgZD0iTTM5NS44NywxOTYuNTFhMS4yOCwxLjI4LDAsMSwwLTEuMjYsMS4yOSwxLjI4LDEuMjgsMCwwLDAsMS4yNi0xLjI5IiBjbGFzcz0iY2xzLTMiLz48cmVjdCBoZWlnaHQ9IjU2LjY5IiB3aWR0aD0iMTIuNzYiIHk9IjAuNDMiIHg9IjAuNDMiIGNsYXNzPSJjbHMtMiIvPjwvZz48L3N2Zz4=;" vertex="1" parent="1">
          <mxGeometry x="470" y="200" width="14" height="58" as="geometry" />
        </mxCell>
        <mxCell id="Xxvg-gCRTEaE2rbNDNgC-119" value="Text" style="text;html=1;strokeColor=none;fillColor=none;align=center;verticalAlign=middle;whiteSpace=wrap;rounded=0;" vertex="1" parent="1">
          <mxGeometry x="410" y="200" width="60" height="40" as="geometry" />
        </mxCell>
        <mxCell id="Xxvg-gCRTEaE2rbNDNgC-120" value="Safety Relay&lt;br&gt;3SK2" style="text;html=1;strokeColor=none;fillColor=none;align=center;verticalAlign=middle;whiteSpace=wrap;rounded=0;fontSize=10;" vertex="1" parent="1">
          <mxGeometry x="410" y="240" width="60" height="20" as="geometry" />
        </mxCell>
        <mxCell id="Xxvg-gCRTEaE2rbNDNgC-121" value="" style="shape=image;verticalLabelPosition=bottom;labelBackgroundColor=default;verticalAlign=top;aspect=fixed;imageAspect=0;image=data:image/svg+xml,PHN2ZyB4bWxucz0iaHR0cDovL3d3dy53My5vcmcvMjAwMC9zdmciIHZpZXdCb3g9IjAgMCAyNi4zNiAzOC4yNyI+PGRlZnM+PHN0eWxlPi5jbHMtMSwuY2xzLTR7ZmlsbDojYTZjNGQxO30uY2xzLTEsLmNscy0yLC5jbHMtMywuY2xzLTd7c3Ryb2tlOiMwMDU1N2M7fS5jbHMtMSwuY2xzLTN7c3Ryb2tlLXdpZHRoOjAuODVweDt9LmNscy0yLC5jbHMtMywuY2xzLTd7ZmlsbDpub25lO30uY2xzLTIsLmNscy03e3N0cm9rZS13aWR0aDowLjIzcHg7fS5jbHMtNXtmaWxsOiNkOWVkZjU7fS5jbHMtNntmaWxsOiMwMDU1N2M7fS5jbHMtN3tmaWxsLXJ1bGU6ZXZlbm9kZDt9PC9zdHlsZT48L2RlZnM+PGcgZGF0YS1uYW1lPSJPcmlnaW5hbCIgaWQ9Ik9yaWdpbmFsLTIiPjxyZWN0IGhlaWdodD0iMzcuNDIiIHdpZHRoPSIyNS41MSIgeT0iMC40MyIgeD0iMC40MyIgY2xhc3M9ImNscy0xIi8+PHJlY3QgaGVpZ2h0PSIyOC45MSIgd2lkdGg9IjE4LjkyIiB5PSIwLjQzIiB4PSI3LjAyIiBjbGFzcz0iY2xzLTEiLz48cG9seWdvbiBwb2ludHM9IjEwLjE1IDMwLjQzIDEwLjE1IDMxLjY1IDkuNTUgMzEuNjUgOS41NSAzMi4yOSAxMC4xNSAzMi4yOSAxMC4xNSAzNC4zNCA5LjU1IDM0LjM0IDkuNTUgMzQuOTggMTAuMTUgMzQuOTggMTAuMTUgMzYuMTkgMTIuNTIgMzYuMTkgMTIuNTIgMzAuNDMgMTAuMTUgMzAuNDMiIGNsYXNzPSJjbHMtMiIvPjxwb2x5Z29uIHBvaW50cz0iMTUuOTUgMzAuNDMgMTUuOTUgMzEuNjUgMTUuMzUgMzEuNjUgMTUuMzUgMzIuMjkgMTUuOTUgMzIuMjkgMTUuOTUgMzQuMzQgMTUuMzUgMzQuMzQgMTUuMzUgMzQuOTggMTUuOTUgMzQuOTggMTUuOTUgMzYuMTkgMTguMzIgMzYuMTkgMTguMzIgMzAuNDMgMTUuOTUgMzAuNDMiIGNsYXNzPSJjbHMtMiIvPjxwb2x5Z29uIHBvaW50cz0iMjEuNzQgMzAuNDMgMjEuNzQgMzEuNjUgMjEuMTQgMzEuNjUgMjEuMTQgMzIuMjkgMjEuNzQgMzIuMjkgMjEuNzQgMzQuMzQgMjEuMTQgMzQuMzQgMjEuMTQgMzQuOTggMjEuNzQgMzQuOTggMjEuNzQgMzYuMTkgMjQuMTEgMzYuMTkgMjQuMTEgMzAuNDMgMjEuNzQgMzAuNDMiIGNsYXNzPSJjbHMtMiIvPjxyZWN0IHJ4PSIwLjQzIiBoZWlnaHQ9IjQuNDIiIHdpZHRoPSI0Ljk0IiB5PSIyNC44NCIgeD0iMS4xNiIgY2xhc3M9ImNscy0yIi8+PGxpbmUgeTI9IjI5LjI2IiB4Mj0iMS44NCIgeTE9IjI0Ljg0IiB4MT0iMS44NCIgY2xhc3M9ImNscy0yIi8+PGxpbmUgeTI9IjM3Ljg0IiB4Mj0iNy4wMiIgeTE9IjI5LjAyIiB4MT0iNy4wMiIgY2xhc3M9ImNscy0zIi8+PHBhdGggdHJhbnNmb3JtPSJ0cmFuc2xhdGUoLTM4My42NyAtMTY3Ljk1KSIgZD0iTTM5MS4xMywxNjguOTFhLjA5LjA5LDAsMCwxLC4xLS4wOWgxNy44M2EuMDkuMDksMCwwLDEsLjA5LjA5djI4YS4wOS4wOSwwLDAsMS0uMDkuMDlIMzkxLjIzYS4wOS4wOSwwLDAsMS0uMS0uMDlaIiBjbGFzcz0iY2xzLTQiLz48cmVjdCBoZWlnaHQ9IjcuOTgiIHdpZHRoPSIxMS41OCIgeT0iNS4wNiIgeD0iOS4yMyIgY2xhc3M9ImNscy01Ii8+PHJlY3QgaGVpZ2h0PSIwLjY4IiB3aWR0aD0iMC42OCIgeT0iOCIgeD0iMjQuNCIgY2xhc3M9ImNscy01Ii8+PHJlY3QgaGVpZ2h0PSIwLjY4IiB3aWR0aD0iMC42OCIgeT0iNi41OCIgeD0iMjQuNCIgY2xhc3M9ImNscy01Ii8+PHJlY3QgaGVpZ2h0PSIwLjY4IiB3aWR0aD0iMC42OCIgeT0iNS4xNSIgeD0iMjQuNCIgY2xhc3M9ImNscy01Ii8+PHJlY3QgaGVpZ2h0PSIwLjY4IiB3aWR0aD0iMC42OCIgeT0iMTguNTYiIHg9IjIwLjY2IiBjbGFzcz0iY2xzLTUiLz48cmVjdCBoZWlnaHQ9IjAuNjgiIHdpZHRoPSIwLjY4IiB5PSIxOS45OCIgeD0iMjAuNjYiIGNsYXNzPSJjbHMtNSIvPjxyZWN0IGhlaWdodD0iMC42OCIgd2lkdGg9IjAuNjgiIHk9IjIxLjQxIiB4PSIyMC42NiIgY2xhc3M9ImNscy01Ii8+PHJlY3QgaGVpZ2h0PSIwLjY4IiB3aWR0aD0iMC42OCIgeT0iMjIuODMiIHg9IjIwLjY2IiBjbGFzcz0iY2xzLTUiLz48cmVjdCBoZWlnaHQ9IjAuNjgiIHdpZHRoPSIwLjY4IiB5PSIyNC4yNiIgeD0iMjAuNjYiIGNsYXNzPSJjbHMtNSIvPjxyZWN0IGhlaWdodD0iMC42OCIgd2lkdGg9IjAuNjgiIHk9IjI1LjY5IiB4PSIyMC42NiIgY2xhc3M9ImNscy01Ii8+PHJlY3QgaGVpZ2h0PSIwLjY4IiB3aWR0aD0iMC42OCIgeT0iMTguNTYiIHg9IjI0LjM5IiBjbGFzcz0iY2xzLTUiLz48cmVjdCBoZWlnaHQ9IjAuNjgiIHdpZHRoPSIwLjY4IiB5PSIxOS45OCIgeD0iMjQuMzkiIGNsYXNzPSJjbHMtNSIvPjxyZWN0IGhlaWdodD0iMC42OCIgd2lkdGg9IjAuNjgiIHk9IjIxLjQxIiB4PSIyNC4zOSIgY2xhc3M9ImNscy01Ii8+PHJlY3QgaGVpZ2h0PSIwLjY4IiB3aWR0aD0iMC42OCIgeT0iMjIuODMiIHg9IjI0LjM5IiBjbGFzcz0iY2xzLTUiLz48cmVjdCBoZWlnaHQ9IjAuNjgiIHdpZHRoPSIwLjY4IiB5PSIyNC4yNiIgeD0iMjQuMzkiIGNsYXNzPSJjbHMtNSIvPjxyZWN0IGhlaWdodD0iMC42OCIgd2lkdGg9IjAuNjgiIHk9IjI1LjY5IiB4PSIyNC4zOSIgY2xhc3M9ImNscy01Ii8+PHJlY3QgaGVpZ2h0PSIyLjg2IiB3aWR0aD0iMi45IiB5PSIyNC40NiIgeD0iOS4yMyIgY2xhc3M9ImNscy0yIi8+PHJlY3QgaGVpZ2h0PSIyLjg1IiB3aWR0aD0iMi45IiB5PSIxNy4zMyIgeD0iOS4yMyIgY2xhc3M9ImNscy0yIi8+PHJlY3QgaGVpZ2h0PSIyLjg1IiB3aWR0aD0iMi45IiB5PSIxNC4xOSIgeD0iMTIuNDIiIGNsYXNzPSJjbHMtMiIvPjxyZWN0IGhlaWdodD0iMi44NSIgd2lkdGg9IjIuOSIgeT0iMjAuNDciIHg9IjEyLjQyIiBjbGFzcz0iY2xzLTIiLz48cmVjdCBoZWlnaHQ9IjIuODUiIHdpZHRoPSIyLjg5IiB5PSIxNy4zMyIgeD0iMTUuNiIgY2xhc3M9ImNscy0yIi8+PHJlY3QgaGVpZ2h0PSIyLjg2IiB3aWR0aD0iMi44OSIgeT0iMjQuNDYiIHg9IjE1LjYiIGNsYXNzPSJjbHMtMiIvPjxyZWN0IGhlaWdodD0iMS4zMiIgd2lkdGg9IjQuOTkiIHk9IjEuNDQiIHg9IjguMDYiIGNsYXNzPSJjbHMtNiIvPjxwYXRoIHRyYW5zZm9ybT0idHJhbnNsYXRlKC0zODMuNjcgLTE2Ny45NSkiIGQ9Ik0zODguMjQsMTgxYS41NC41NCwwLDEsMC0uODEuNDdBLjU0LjU0LDAsMCwwLDM4OC4yNCwxODFaIiBjbGFzcz0iY2xzLTciLz48cGF0aCB0cmFuc2Zvcm09InRyYW5zbGF0ZSgtMzgzLjY3IC0xNjcuOTUpIiBkPSJNMzg4LjI0LDE3Mi45NGEuNTQuNTQsMCwxLDAtLjgxLjQ3QS41NC41NCwwLDAsMCwzODguMjQsMTcyLjk0WiIgY2xhc3M9ImNscy03Ii8+PHBvbHlnb24gcG9pbnRzPSI1LjE0IDExLjIxIDUuMTEgMTEuNTggNC45NCAxMS43NiA0LjY2IDExLjc2IDMgMTEuMjYgMi44NiAxMC45OSAyLjg2IDcuMDYgMyA2Ljc5IDQuNzMgNi4zIDQuOTkgNi4zNCA1LjEyIDYuNTYgNS4xNCAxMS4yMSIgY2xhc3M9ImNscy03Ii8+PC9nPjwvc3ZnPg==;" vertex="1" parent="1">
          <mxGeometry x="444" y="361" width="26" height="38" as="geometry" />
        </mxCell>
        <mxCell id="Xxvg-gCRTEaE2rbNDNgC-122" value="Text" style="text;html=1;strokeColor=none;fillColor=none;align=center;verticalAlign=middle;whiteSpace=wrap;rounded=0;" vertex="1" parent="1">
          <mxGeometry x="384" y="361" width="60" height="20" as="geometry" />
        </mxCell>
        <mxCell id="Xxvg-gCRTEaE2rbNDNgC-123" value="AS-I Master" style="text;html=1;strokeColor=none;fillColor=none;align=center;verticalAlign=middle;whiteSpace=wrap;rounded=0;fontSize=8;" vertex="1" parent="1">
          <mxGeometry x="384" y="381" width="60" height="10" as="geometry" />
        </mxCell>
        <mxCell id="Xxvg-gCRTEaE2rbNDNgC-124" value="DP x" style="text;html=1;strokeColor=none;fillColor=none;align=center;verticalAlign=middle;whiteSpace=wrap;rounded=0;fontSize=8;" vertex="1" parent="1">
          <mxGeometry x="384" y="391" width="60" height="10" as="geometry" />
        </mxCell>
        <mxCell id="Xxvg-gCRTEaE2rbNDNgC-125" value="" style="shape=image;verticalLabelPosition=bottom;labelBackgroundColor=default;verticalAlign=top;aspect=fixed;imageAspect=0;image=data:image/svg+xml,PHN2ZyB4bWxucz0iaHR0cDovL3d3dy53My5vcmcvMjAwMC9zdmciIHZpZXdCb3g9IjAgMCAyNi4zNiAyMy41MyI+PGRlZnM+PHN0eWxlPi5jbHMtMSwuY2xzLTJ7ZmlsbDojYTZjNGQxO3N0cm9rZTojMDA1NTdjO30uY2xzLTF7c3Ryb2tlLXdpZHRoOjAuODVweDt9LmNscy0yLC5jbHMtM3tzdHJva2Utd2lkdGg6MC4yM3B4O30uY2xzLTN7ZmlsbDojZDllZGY1O3N0cm9rZTojYTZjNGQxO2ZpbGwtcnVsZTpldmVub2RkO308L3N0eWxlPjwvZGVmcz48ZyBkYXRhLW5hbWU9Ik9yaWdpbmFsIiBpZD0iT3JpZ2luYWwtMiI+PHJlY3QgaGVpZ2h0PSIyMi42OCIgd2lkdGg9IjI1LjUxIiB5PSIwLjQzIiB4PSIwLjQzIiBjbGFzcz0iY2xzLTEiLz48bGluZSB5Mj0iMTguMjgiIHgyPSIxNi4yOSIgeTE9IjUuNzMiIHgxPSIxNi4yOSIgY2xhc3M9ImNscy0yIi8+PGxpbmUgeTI9IjE4LjI5IiB4Mj0iMjUuOTQiIHkxPSIxOC4yOSIgeDE9IjAuNDMiIGNsYXNzPSJjbHMtMiIvPjxsaW5lIHkyPSI1LjczIiB4Mj0iMjUuOTQiIHkxPSI1LjczIiB4MT0iMC40MyIgY2xhc3M9ImNscy0yIi8+PHBvbHlsaW5lIHBvaW50cz0iMTEuOTYgOS4wMSAxMi44NyA5LjAxIDEyLjg3IDguMSAxMS45NiA4LjEgMTEuOTYgOS4wMSIgY2xhc3M9ImNscy0zIi8+PHBvbHlsaW5lIHBvaW50cz0iMTEuOTYgNy44NCAxMi44NyA3Ljg0IDEyLjg3IDYuOTMgMTEuOTYgNi45MyAxMS45NiA3Ljg0IiBjbGFzcz0iY2xzLTMiLz48cG9seWxpbmUgcG9pbnRzPSIxMS45NiAxMC4xNiAxMi44NyAxMC4xNiAxMi44NyA5LjI1IDExLjk2IDkuMjUgMTEuOTYgMTAuMTYiIGNsYXNzPSJjbHMtMyIvPjxwb2x5bGluZSBwb2ludHM9IjExLjk2IDExLjMzIDEyLjg3IDExLjMzIDEyLjg3IDEwLjQyIDExLjk2IDEwLjQyIDExLjk2IDExLjMzIiBjbGFzcz0iY2xzLTMiLz48cG9seWxpbmUgcG9pbnRzPSIxMS45NiAxMy42NCAxMi44NyAxMy42NCAxMi44NyAxMi43MyAxMS45NiAxMi43MyAxMS45NiAxMy42NCIgY2xhc3M9ImNscy0zIi8+PHBvbHlsaW5lIHBvaW50cz0iMTEuOTYgMTIuNDkgMTIuODcgMTIuNDkgMTIuODcgMTEuNTggMTEuOTYgMTEuNTggMTEuOTYgMTIuNDkiIGNsYXNzPSJjbHMtMyIvPjxwb2x5bGluZSBwb2ludHM9IjExLjk2IDE1Ljk2IDEyLjg3IDE1Ljk2IDEyLjg3IDE1LjA1IDExLjk2IDE1LjA1IDExLjk2IDE1Ljk2IiBjbGFzcz0iY2xzLTMiLz48cG9seWxpbmUgcG9pbnRzPSIxMS45NiAxNC43OSAxMi44NyAxNC43OSAxMi44NyAxMy44OCAxMS45NiAxMy44OCAxMS45NiAxNC43OSIgY2xhc3M9ImNscy0zIi8+PHBvbHlsaW5lIHBvaW50cz0iMTEuOTYgMTcuMTEgMTIuODcgMTcuMTEgMTIuODcgMTYuMiAxMS45NiAxNi4yIDExLjk2IDE3LjExIiBjbGFzcz0iY2xzLTMiLz48bGluZSB5Mj0iMTguMjYiIHgyPSIxMS45NSIgeTE9IjUuNzkiIHgxPSIxMS45NSIgY2xhc3M9ImNscy0yIi8+PC9nPjwvc3ZnPg==;" vertex="1" parent="1">
          <mxGeometry x="630" y="250" width="26" height="24" as="geometry" />
        </mxCell>
        <mxCell id="Xxvg-gCRTEaE2rbNDNgC-126" value="Text" style="text;html=1;strokeColor=none;fillColor=none;align=center;verticalAlign=middle;whiteSpace=wrap;rounded=0;" vertex="1" parent="1">
          <mxGeometry x="570" y="240" width="60" height="20" as="geometry" />
        </mxCell>
        <mxCell id="Xxvg-gCRTEaE2rbNDNgC-127" value="DP x" style="text;html=1;strokeColor=none;fillColor=none;align=center;verticalAlign=middle;whiteSpace=wrap;rounded=0;" vertex="1" parent="1">
          <mxGeometry x="570" y="270" width="60" height="10" as="geometry" />
        </mxCell>
        <mxCell id="Xxvg-gCRTEaE2rbNDNgC-128" value="AS-I Master" style="text;html=1;strokeColor=none;fillColor=none;align=center;verticalAlign=middle;whiteSpace=wrap;rounded=0;" vertex="1" parent="1">
          <mxGeometry x="560" y="260" width="70" height="10" as="geometry" />
        </mxCell>
        <mxCell id="Xxvg-gCRTEaE2rbNDNgC-129" value="" style="shape=image;verticalLabelPosition=bottom;labelBackgroundColor=default;verticalAlign=top;aspect=fixed;imageAspect=0;image=data:image/svg+xml,PHN2ZyB4bWxuczp4bGluaz0iaHR0cDovL3d3dy53My5vcmcvMTk5OS94bGluayIgeG1sbnM9Imh0dHA6Ly93d3cudzMub3JnLzIwMDAvc3ZnIiB0ZXh0LXJlbmRlcmluZz0iZ2VvbWV0cmljUHJlY2lzaW9uIiBzaGFwZS1yZW5kZXJpbmc9Imdlb21ldHJpY1ByZWNpc2lvbiIgdmlld0JveD0iMCAwIDEyLjUgMzYuNSIgaWQ9ImVweTJaVzRTbkZqMSI+PGc+PHJlY3Qgc3Ryb2tlLXdpZHRoPSIwLjg1IiBzdHJva2U9IiMwMDU1N2MiIGZpbGw9IiNhNmM0ZDEiIHRyYW5zZm9ybT0idHJhbnNsYXRlKC40MyAwLjQzKSIgcnk9IjAiIHJ4PSIwIiBoZWlnaHQ9IjM1LjQ0IiB3aWR0aD0iMTEuMzUiLz48cmVjdCBzdHJva2Utd2lkdGg9IjAuODUiIHN0cm9rZT0iIzAwNTU3YyIgZmlsbD0iIzAwNTU3YyIgdHJhbnNmb3JtPSJtYXRyaXgoLjQ4NzIyNCAwIDAtLjA0NDAxOCA1LjM0IDIuOTMpIiByeT0iMCIgcng9IjAiIGhlaWdodD0iMzUuNDQiIHdpZHRoPSIxMS4zNSIvPjxwYXRoIHN0cm9rZS13aWR0aD0iMC44NSIgc3Ryb2tlPSIjMDA1NTdjIiBmaWxsLXJ1bGU9ImV2ZW5vZGQiIGZpbGw9IiNhNmM0ZDEiIHRyYW5zZm9ybT0idHJhbnNsYXRlKC0zOTAuNzUtMTY4Ljk0KSIgZD0iIi8+PGxpbmUgc3Ryb2tlLXdpZHRoPSIwLjIzIiBzdHJva2U9IiMwMDU1N2MiIGZpbGw9Im5vbmUiIHkyPSIxNy40MyIgeDI9IjAuNDMiIHkxPSIxNy40MyIgeDE9IjExLjc3Ii8+PHBhdGggc3Ryb2tlLXdpZHRoPSIwLjIzIiBzdHJva2U9IiMwMDU1N2MiIGZpbGwtcnVsZT0iZXZlbm9kZCIgZmlsbD0iI2E2YzRkMSIgdHJhbnNmb3JtPSJ0cmFuc2xhdGUoLTM5MC43NS0xNjguOTQpIiBkPSIiLz48cG9seWxpbmUgc3Ryb2tlLXdpZHRoPSIwLjIzIiBzdHJva2U9IiNhNmM0ZDEiIGZpbGwtcnVsZT0iZXZlbm9kZCIgZmlsbD0iI2Q5ZWRmNSIgcG9pbnRzPSIxLjQ4LDMuODMgMi4zOSwzLjgzIDIuMzksMi45MyAxLjQ4LDIuOTMgMS40OCwzLjgzIi8+PHBvbHlsaW5lIHN0cm9rZS13aWR0aD0iMC4yMyIgc3Ryb2tlPSIjYTZjNGQxIiBmaWxsLXJ1bGU9ImV2ZW5vZGQiIGZpbGw9IiNkOWVkZjUiIHBvaW50cz0iMS40OCwyLjkzIDIuMzksMi45MyAyLjM5LDIuMDIgMS40OCwyLjAyIDEuNDgsMi45MyIvPjxwb2x5bGluZSBzdHJva2Utd2lkdGg9IjAuMjMiIHN0cm9rZT0iI2E2YzRkMSIgZmlsbC1ydWxlPSJldmVub2RkIiBmaWxsPSIjZDllZGY1IiBwb2ludHM9IjEuNDgsNC43NCAyLjM5LDQuNzQgMi4zOSwzLjgzIDEuNDgsMy44MyAxLjQ4LDQuNzQiLz48cG9seWxpbmUgc3Ryb2tlLXdpZHRoPSIwLjIzIiBzdHJva2U9IiNhNmM0ZDEiIGZpbGwtcnVsZT0iZXZlbm9kZCIgZmlsbD0iI2Q5ZWRmNSIgcG9pbnRzPSIxLjQ4LDYuNTUgMi4zOSw2LjU1IDIuMzksNS42NCAxLjQ4LDUuNjQgMS40OCw2LjU1Ii8+PHBvbHlsaW5lIHN0cm9rZS13aWR0aD0iMC4yMyIgc3Ryb2tlPSIjYTZjNGQxIiBmaWxsLXJ1bGU9ImV2ZW5vZGQiIGZpbGw9IiNkOWVkZjUiIHBvaW50cz0iMS40OCw1LjY0IDIuMzksNS42NCAyLjM5LDQuNzQgMS40OCw0Ljc0IDEuNDgsNS42NCIvPjxwb2x5bGluZSBzdHJva2Utd2lkdGg9IjAuMjMiIHN0cm9rZT0iI2E2YzRkMSIgZmlsbC1ydWxlPSJldmVub2RkIiBmaWxsPSIjZDllZGY1IiBwb2ludHM9IjEuNDgsNy40NiAyLjM5LDcuNDYgMi4zOSw2LjU1IDEuNDgsNi41NSAxLjQ4LDcuNDYiLz48cmVjdCBzdHJva2Utd2lkdGg9IjAiIGZpbGw9IiNkOWU2ZWIiIHRyYW5zZm9ybT0ibWF0cml4KDEuNDcxOTQ3IDAgMCAxLjI3MjkyIDQuMDA5MTcgNS40NikiIHJ5PSIwIiByeD0iMCIgaGVpZ2h0PSI3LjQ2MzEzIiB3aWR0aD0iNC4xMTU0MSIvPjxnIHRyYW5zZm9ybT0ibWF0cml4KC40MzIxNzMgMCAwIDAuNDMxMzEgMS4xNDA0NTcgMTguNzUzMTk4KSI+PHBhdGggc3Ryb2tlLXdpZHRoPSIwLjM3IiBzdHJva2U9IiMwMDU1N2MiIGZpbGw9Im5vbmUiIHRyYW5zZm9ybT0idHJhbnNsYXRlKC0zNzkuNDItMTU2Ljc5KSIgZD0iTTM4NC4xOCwxNjQuNDFjLS41NDMwMjQuMDk2NzY3LS45Mzg4NzguNTY4NDIzLS45NCwxLjEydjYuMjZjLjAwMTEyMi41NTE1NzcuMzk2OTc2LDEuMDIzMjMzLjk0LDEuMTJsMi4yNy40Yy4zMzA3NjEuMDU5NDg5LjY3MDgzOC0uMDMxMzMyLjkyNzkwMS0uMjQ3ODA2cy40MDQ0MzItLjUzNjEzNC40MDIwOTktLjg3MjE5NHYtNy4wNmMuMDAyMzMzLS4zMzYwNi0uMTQ1MDM3LS42NTU3MjEtLjQwMjA5OS0uODcyMTk0cy0uNTk3MTQtLjMwNzI5NS0uOTI3OTAxLS4yNDc4MDZsLTIuMjcuNFoiLz48cG9seWdvbiBzdHJva2Utd2lkdGg9IjAuMzciIHN0cm9rZT0iIzAwNTU3YyIgZmlsbD0ibm9uZSIgdHJhbnNmb3JtPSJ0cmFuc2xhdGUoMC00KSIgcG9pbnRzPSI2LjgxLDIxLjcxIDUuMzcsMjEuNzEgNC42NSwyMi45NiA1LjM3LDI0LjIxIDYuODEsMjQuMjEgNy41NCwyMi45NiA2LjgxLDIxLjcxIi8+PHBhdGggc3Ryb2tlLXdpZHRoPSIwLjM3IiBzdHJva2U9IiMwMDU1N2MiIGZpbGw9Im5vbmUiIHRyYW5zZm9ybT0idHJhbnNsYXRlKC0zNzkuNDItMTU2Ljc5KSIgZD0iTTM4NiwxNzUuNzVjMC0uMjkyNzExLS4yMzcyODktLjUzLS41My0uNTMtLjEzOTY2My0uMDAwMDI2LS4yNzM0NjUuMDU2MTMtLjM3MTI3Ny4xNTU4MjNzLS4xNTE0MDkuMjM0NTQtLjE0ODcyMy4zNzQxNzdjMCwuMjg3MTg4LjIzMjgxMi41Mi41Mi41Mi4xMzk2MzcuMDAyNjg2LjI3NDQ4NS0uMDUwOTEyLjM3NDE3Ny0uMTQ4NzIzcy4xNTU4NDktLjIzMTYxNC4xNTU4MjMtLjM3MTI3N1oiLz48cG9seWdvbiBzdHJva2Utd2lkdGg9IjAuMzciIHN0cm9rZT0iIzAwNTU3YyIgZmlsbD0ibm9uZSIgdHJhbnNmb3JtPSJ0cmFuc2xhdGUoMC00KSIgcG9pbnRzPSI2LjgxLDcuNTQgNS4zNyw3LjU0IDQuNjUsOC43OSA1LjM3LDEwLjA0IDYuODEsMTAuMDQgNy41NCw4Ljc5IDYuODEsNy41NCIvPjxwYXRoIHN0cm9rZS13aWR0aD0iMC4zNyIgc3Ryb2tlPSIjMDA1NTdjIiBmaWxsPSJub25lIiB0cmFuc2Zvcm09InRyYW5zbGF0ZSgtMzc5LjQyLTE1Ni43OSkiIGQ9Ik0zODYsMTYxLjU4YzAtLjI5MjcxMS0uMjM3Mjg5LS41My0uNTMtLjUzLS4yMTIyMTYuMDc0NjA4LS4zNTQyMTYuMjc1MDUxLS4zNTQyMTYuNXMuMTQyLjQyNTM5Mi4zNTQyMTYuNWMuMjcwNzk1LjAwMTc0LjQ5OTM0OS0uMjAwOTM5LjUzLS40N1oiLz48cmVjdCBzdHJva2Utd2lkdGg9IjAuNSIgc3Ryb2tlPSIjMDA1NTdjIiBmaWxsPSJub25lIiB0cmFuc2Zvcm09Im1hdHJpeCgyLjA4NTIzNCAwIDAgMi4yNjc0NzEgMS45ODg4ODggMS43MzE0NzQpIiByeT0iMCIgcng9IjAiIGhlaWdodD0iOC45NDY5ODciIHdpZHRoPSI0LjE2NSIvPjwvZz48ZyB0cmFuc2Zvcm09Im1hdHJpeCguNDMyMTczIDAgMCAwLjQzMTMxIDUuODkwNDU3IDE4Ljc1MzE5OCkiPjxwYXRoIHN0cm9rZS13aWR0aD0iMC4zNyIgc3Ryb2tlPSIjMDA1NTdjIiBmaWxsPSJub25lIiB0cmFuc2Zvcm09InRyYW5zbGF0ZSgtMzc5LjQyLTE1Ni43OSkiIGQ9Ik0zODQuMTgsMTY0LjQxYy0uNTQzMDI0LjA5Njc2Ny0uOTM4ODc4LjU2ODQyMy0uOTQsMS4xMnY2LjI2Yy4wMDExMjIuNTUxNTc3LjM5Njk3NiwxLjAyMzIzMy45NCwxLjEybDIuMjcuNGMuMzMwNzYxLjA1OTQ4OS42NzA4MzgtLjAzMTMzMi45Mjc5MDEtLjI0NzgwNnMuNDA0NDMyLS41MzYxMzQuNDAyMDk5LS44NzIxOTR2LTcuMDZjLjAwMjMzMy0uMzM2MDYtLjE0NTAzNy0uNjU1NzIxLS40MDIwOTktLjg3MjE5NHMtLjU5NzE0LS4zMDcyOTUtLjkyNzkwMS0uMjQ3ODA2bC0yLjI3LjRaIi8+PHBvbHlnb24gc3Ryb2tlLXdpZHRoPSIwLjM3IiBzdHJva2U9IiMwMDU1N2MiIGZpbGw9Im5vbmUiIHRyYW5zZm9ybT0idHJhbnNsYXRlKDAtNCkiIHBvaW50cz0iNi44MSwyMS43MSA1LjM3LDIxLjcxIDQuNjUsMjIuOTYgNS4zNywyNC4yMSA2LjgxLDI0LjIxIDcuNTQsMjIuOTYgNi44MSwyMS43MSIvPjxwYXRoIHN0cm9rZS13aWR0aD0iMC4zNyIgc3Ryb2tlPSIjMDA1NTdjIiBmaWxsPSJub25lIiB0cmFuc2Zvcm09InRyYW5zbGF0ZSgtMzc5LjQyLTE1Ni43OSkiIGQ9Ik0zODYsMTc1Ljc1YzAtLjI5MjcxMS0uMjM3Mjg5LS41My0uNTMtLjUzLS4xMzk2NjMtLjAwMDAyNi0uMjczNDY1LjA1NjEzLS4zNzEyNzcuMTU1ODIzcy0uMTUxNDA5LjIzNDU0LS4xNDg3MjMuMzc0MTc3YzAsLjI4NzE4OC4yMzI4MTIuNTIuNTIuNTIuMTM5NjM3LjAwMjY4Ni4yNzQ0ODUtLjA1MDkxMi4zNzQxNzctLjE0ODcyM3MuMTU1ODQ5LS4yMzE2MTQuMTU1ODIzLS4zNzEyNzdaIi8+PHBvbHlnb24gc3Ryb2tlLXdpZHRoPSIwLjM3IiBzdHJva2U9IiMwMDU1N2MiIGZpbGw9Im5vbmUiIHRyYW5zZm9ybT0idHJhbnNsYXRlKDAtNCkiIHBvaW50cz0iNi44MSw3LjU0IDUuMzcsNy41NCA0LjY1LDguNzkgNS4zNywxMC4wNCA2LjgxLDEwLjA0IDcuNTQsOC43OSA2LjgxLDcuNTQiLz48cGF0aCBzdHJva2Utd2lkdGg9IjAuMzciIHN0cm9rZT0iIzAwNTU3YyIgZmlsbD0ibm9uZSIgdHJhbnNmb3JtPSJ0cmFuc2xhdGUoLTM3OS40Mi0xNTYuNzkpIiBkPSJNMzg2LDE2MS41OGMwLS4yOTI3MTEtLjIzNzI4OS0uNTMtLjUzLS41My0uMjEyMjE2LjA3NDYwOC0uMzU0MjE2LjI3NTA1MS0uMzU0MjE2LjVzLjE0Mi40MjUzOTIuMzU0MjE2LjVjLjI3MDc5NS4wMDE3NC40OTkzNDktLjIwMDkzOS41My0uNDdaIi8+PHJlY3Qgc3Ryb2tlLXdpZHRoPSIwLjUiIHN0cm9rZT0iIzAwNTU3YyIgZmlsbD0ibm9uZSIgdHJhbnNmb3JtPSJtYXRyaXgoMi4wODUyMzQgMCAwIDIuMjY3NDcxIDEuOTg4ODg4IDEuNzMxNDc0KSIgcnk9IjAiIHJ4PSIwIiBoZWlnaHQ9IjguOTQ2OTg3IiB3aWR0aD0iNC4xNjUiLz48L2c+PC9nPjwvc3ZnPg==;" vertex="1" parent="1">
          <mxGeometry x="630" y="351" width="13" height="37" as="geometry" />
        </mxCell>
        <mxCell id="Xxvg-gCRTEaE2rbNDNgC-130" value="Text" style="text;html=1;strokeColor=none;fillColor=none;align=center;verticalAlign=middle;whiteSpace=wrap;rounded=0;" vertex="1" parent="1">
          <mxGeometry x="570" y="351" width="60" height="20" as="geometry" />
        </mxCell>
        <mxCell id="Xxvg-gCRTEaE2rbNDNgC-131" value="DP x / DP x" style="text;html=1;strokeColor=none;fillColor=none;align=center;verticalAlign=middle;whiteSpace=wrap;rounded=0;fontSize=7;" vertex="1" parent="1">
          <mxGeometry x="570" y="381" width="60" height="10" as="geometry" />
        </mxCell>
        <mxCell id="Xxvg-gCRTEaE2rbNDNgC-132" value="DP/DP Coupler" style="text;html=1;strokeColor=none;fillColor=none;align=center;verticalAlign=middle;whiteSpace=wrap;rounded=0;fontSize=7;" vertex="1" parent="1">
          <mxGeometry x="570" y="371" width="60" height="10" as="geometry" />
        </mxCell>
        <mxCell id="Xxvg-gCRTEaE2rbNDNgC-133" value="" style="shape=image;verticalLabelPosition=bottom;labelBackgroundColor=default;verticalAlign=top;aspect=fixed;imageAspect=0;image=data:image/svg+xml,PHN2ZyB4bWxucz0iaHR0cDovL3d3dy53My5vcmcvMjAwMC9zdmciIHZpZXdCb3g9IjAgMCAyNS45OCA3MC44NyI+PGRlZnM+PHN0eWxlPi5jbHMtMXtmaWxsOiNhNmM0ZDE7fS5jbHMtMSwuY2xzLTEwLC5jbHMtMiwuY2xzLTMsLmNscy01LC5jbHMtNiwuY2xzLTh7c3Ryb2tlOiMwMDU1N2M7fS5jbHMtMSwuY2xzLTEwLC5jbHMtM3tzdHJva2Utd2lkdGg6MC44NXB4O30uY2xzLTEwLC5jbHMtMiwuY2xzLTMsLmNscy01LC5jbHMtNiwuY2xzLTh7ZmlsbDpub25lO30uY2xzLTJ7c3Ryb2tlLXdpZHRoOjAuODFweDt9LmNscy0zLC5jbHMtNXtzdHJva2UtbWl0ZXJsaW1pdDozLjg2O30uY2xzLTR7ZmlsbDojZDllNmViO30uY2xzLTUsLmNscy04e3N0cm9rZS13aWR0aDowLjIzcHg7fS5jbHMtNntzdHJva2Utd2lkdGg6MC4zN3B4O30uY2xzLTd7ZmlsbDojMDA1NTdjO30uY2xzLTl7ZmlsbDojZDllZGY1O308L3N0eWxlPjwvZGVmcz48ZyBpZD0iT3JpZ2luYWwiPjxyZWN0IGhlaWdodD0iNzAuMDIiIHdpZHRoPSIyNS4xMiIgeT0iMC40MyIgeD0iMC40MyIgY2xhc3M9ImNscy0xIi8+PGxpbmUgeTI9IjI5LjY0IiB4Mj0iNi41NCIgeTE9IjI5LjY0IiB4MT0iMjUuNTUiIGNsYXNzPSJjbHMtMiIvPjxsaW5lIHkyPSI1Mi4wMiIgeDI9IjYuNTQiIHkxPSI1Mi4wMiIgeDE9IjI1LjU1IiBjbGFzcz0iY2xzLTMiLz48cmVjdCBoZWlnaHQ9IjE4Ljk5IiB3aWR0aD0iNi4wMiIgeT0iMzEuNiIgeD0iMTYuOSIgY2xhc3M9ImNscy00Ii8+PHBhdGggdHJhbnNmb3JtPSJ0cmFuc2xhdGUoLTM4My44MyAtMTUxLjYyKSIgZD0iTTQwNi40LDE3MC40NyIgY2xhc3M9ImNscy01Ii8+PHBhdGggdHJhbnNmb3JtPSJ0cmFuc2xhdGUoLTM4My44MyAtMTUxLjYyKSIgZD0iTTQwMy41NywxNTUuNjF2Ljc5aC03LjI5di0uNzlhLjEyLjEyLDAsMCwwLS4xMi0uMTJoLTQuNDRjLS4xMywwLS4yNC40Ny0uMjQuNlYxODFhLjI1LjI1LDAsMCwwLC4yNS4yNGgxNi4zOWEuMjQuMjQsMCwwLDAsLjI0LS4yNFYxNTYuMDljMC0uMTMtLjExLS42LS4yNC0uNmgtNC40M0EuMTIuMTIsMCwwLDAsNDAzLjU3LDE1NS42MVoiIGNsYXNzPSJjbHMtNiIvPjxsaW5lIHkyPSI1Ljc3IiB4Mj0iMjQuMzgiIHkxPSI1Ljc3IiB4MT0iNy41MSIgY2xhc3M9ImNscy02Ii8+PHBhdGggdHJhbnNmb3JtPSJ0cmFuc2xhdGUoLTM4My44MyAtMTUxLjYyKSIgZD0iTTM5NywxNTYuNGg1Ljc4di0uMDhhMy4yOCwzLjI4LDAsMCwwLS4zOS0uNzdoLTVhMy43MSwzLjcxLDAsMCwwLS4zOS43N1oiIGNsYXNzPSJjbHMtNiIvPjxyZWN0IGhlaWdodD0iMS4wOCIgd2lkdGg9IjQuMzQiIHk9IjYuNTMiIHg9IjEzLjkyIiBjbGFzcz0iY2xzLTciLz48cG9seWdvbiBwb2ludHM9IjE5LjkxIDI4LjE3IDE5LjkxIDI3LjkzIDIxLjMgMjcuOTMgMjIuMzkgMjcuOTMgMjIuMzkgMjUuNDUgMjIuNjMgMjUuNDUgMjIuNjMgMjguMTcgMTkuOTEgMjguMTciIGNsYXNzPSJjbHMtNyIvPjxwb2x5Z29uIHBvaW50cz0iMTcuNDIgMjUuNzEgMTcuNDIgMjguMTcgMTQuNzcgMjguMTcgMTQuNzcgMjUuNzEgMTUuMDEgMjUuNzEgMTUuMDEgMjYuODQgMTUuMDEgMjcuOTMgMTYuMDkgMjcuOTMgMTcuMTggMjcuOTMgMTcuMTggMjYuODQgMTcuMTggMjUuNzEgMTcuNDIgMjUuNzEiIGNsYXNzPSJjbHMtNyIvPjxwYXRoIHRyYW5zZm9ybT0idHJhbnNsYXRlKC0zODMuODMgLTE1MS42MikiIGQ9Ik00MDEsMTczLjUyYTEuMDksMS4wOSwwLDEsMS0yLjE3LDAsMS4wOSwxLjA5LDAsMCwxLDIuMTcsMFoiIGNsYXNzPSJjbHMtOCIvPjxwYXRoIHRyYW5zZm9ybT0idHJhbnNsYXRlKC0zODMuODMgLTE1MS42MikiIGQ9Ik00MDEuNjMsMTczLjUyYTEuNzEsMS43MSwwLDEsMS0xLjcxLTEuNzFBMS43LDEuNywwLDAsMSw0MDEuNjMsMTczLjUyWiIgY2xhc3M9ImNscy02Ii8+PHBhdGggdHJhbnNmb3JtPSJ0cmFuc2xhdGUoLTM4My44MyAtMTUxLjYyKSIgZD0iTTM5Ni40NSwxNzMuNTJhMy40NywzLjQ3LDAsMSwwLDMuNDctMy40N0EzLjQ3LDMuNDcsMCwwLDAsMzk2LjQ1LDE3My41MloiIGNsYXNzPSJjbHMtNiIvPjxwb2x5Z29uIHBvaW50cz0iMTIuMjcgMjIuOTkgMTIuMjcgMjMuMjMgOS41NSAyMy4yMyA5LjU1IDIwLjUgOS43OSAyMC41IDkuNzkgMjIuOTkgMTAuODggMjIuOTkgMTIuMjcgMjIuOTkiIGNsYXNzPSJjbHMtNyIvPjxwb2x5Z29uIHBvaW50cz0iMTIuMjcgMjguMTcgOS41NSAyOC4xNyA5LjU1IDI1LjQ1IDkuNzkgMjUuNDUgOS43OSAyNy45MyAxMC44OCAyNy45MyAxMi4yNyAyNy45MyAxMi4yNyAyOC4xNyIgY2xhc3M9ImNscy03Ii8+PHBvbHlnb24gcG9pbnRzPSIyMi42MyAyMy4yMyAxOS45MSAyMy4yMyAxOS45MSAyMi45OSAyMS4zIDIyLjk5IDIyLjM5IDIyLjk5IDIyLjM5IDIwLjUgMjIuNjMgMjAuNSAyMi42MyAyMy4yMyIgY2xhc3M9ImNscy03Ii8+PHJlY3Qgcng9IjAuMzYiIGhlaWdodD0iMjIuMzMiIHdpZHRoPSIxNS40MyIgeT0iNi4zOCIgeD0iOC4zOCIgY2xhc3M9ImNscy04Ii8+PHBhdGggdHJhbnNmb3JtPSJ0cmFuc2xhdGUoLTM4My44MyAtMTUxLjYyKSIgZD0iTTQwNiwxNTkuNDdhLjA1LjA1LDAsMCwxLC4wNi4wNnY5LjE2YS4wNS4wNSwwLDAsMS0uMDYuMDZIMzkzLjlzLS4wNiwwLS4wNi0uMDZ2LTkuMTZzMC0uMDYuMDUtLjA2WiIgY2xhc3M9ImNscy05Ii8+PHJlY3QgaGVpZ2h0PSI2IiB3aWR0aD0iOC40NyIgeT0iMjkuNiIgeD0iNi41NCIgY2xhc3M9ImNscy01Ii8+PHBvbHlnb24gcG9pbnRzPSI2Ljk1IDMxLjIzIDEzLjc2IDMxLjIzIDEzLjc2IDMyLjY1IDcuNTUgMzIuNjUgNi45NSAzMi4wNSA2Ljk1IDMxLjIzIiBjbGFzcz0iY2xzLTQiLz48cmVjdCBoZWlnaHQ9IjAuOCIgd2lkdGg9IjAuOCIgeT0iMzIuNzkiIHg9IjkuMDQiIGNsYXNzPSJjbHMtOSIvPjxyZWN0IGhlaWdodD0iMC44IiB3aWR0aD0iMC44IiB5PSIzMi43OSIgeD0iMTAuMTciIGNsYXNzPSJjbHMtOSIvPjxyZWN0IGhlaWdodD0iMC44IiB3aWR0aD0iMC44IiB5PSIzMi43OSIgeD0iMTEuMyIgY2xhc3M9ImNscy05Ii8+PHJlY3QgaGVpZ2h0PSIwLjgiIHdpZHRoPSIwLjgiIHk9IjMyLjc5IiB4PSI3LjkxIiBjbGFzcz0iY2xzLTkiLz48cG9seWdvbiBwb2ludHM9IjAuNDIgMi40NiAzLjE3IDMuMzIgNi40OSAzLjMyIDYuNDkgNTkuNDUgMC40MiA1OS40NSAwLjQyIDIuNDYiIGNsYXNzPSJjbHMtMTAiLz48bGluZSB5Mj0iNjMuMjUiIHgyPSIzLjE4IiB5MT0iMy4zMiIgeDE9IjMuMTgiIGNsYXNzPSJjbHMtNiIvPjxsaW5lIHkyPSI4LjM4IiB4Mj0iNi40OSIgeTE9IjguMzgiIHgxPSIzLjE4IiBjbGFzcz0iY2xzLTYiLz48bGluZSB5Mj0iMTguNjIiIHgyPSI2LjQ5IiB5MT0iMTguNjIiIHgxPSIzLjE4IiBjbGFzcz0iY2xzLTYiLz48bGluZSB5Mj0iMjguODUiIHgyPSI2LjQ5IiB5MT0iMjguODUiIHgxPSIzLjE4IiBjbGFzcz0iY2xzLTYiLz48bGluZSB5Mj0iMzkuMDkiIHgyPSI2LjQ5IiB5MT0iMzkuMDkiIHgxPSIzLjE4IiBjbGFzcz0iY2xzLTYiLz48bGluZSB5Mj0iNDkuMzIiIHgyPSI2LjQ5IiB5MT0iNDkuMzIiIHgxPSIzLjE4IiBjbGFzcz0iY2xzLTYiLz48cG9seWxpbmUgcG9pbnRzPSIwLjQyIDYzLjI2IDE5LjA1IDYzLjI2IDE5LjA1IDU1LjAzIDI1LjU1IDU1LjAzIiBjbGFzcz0iY2xzLTEwIi8+PGxpbmUgeTI9IjY4LjMyIiB4Mj0iMjUuNTUiIHkxPSI2OC4zMiIgeDE9IjAuNDMiIGNsYXNzPSJjbHMtNiIvPjxwYXRoIHRyYW5zZm9ybT0idHJhbnNsYXRlKC0zODMuODMgLTE1MS42MikiIGQ9Ik0zODguMTYsMjE4LjI3YS44MS44MSwwLDEsMS0uOC0uOEEuOC44LDAsMCwxLDM4OC4xNiwyMTguMjdaIiBjbGFzcz0iY2xzLTUiLz48cGF0aCB0cmFuc2Zvcm09InRyYW5zbGF0ZSgtMzgzLjgzIC0xNTEuNjIpIiBkPSJNMzkwLjc2LDIxOC4yN2EuOC44LDAsMSwxLS44LS44QS44LjgsMCwwLDEsMzkwLjc2LDIxOC4yN1oiIGNsYXNzPSJjbHMtNSIvPjxwYXRoIHRyYW5zZm9ybT0idHJhbnNsYXRlKC0zODMuODMgLTE1MS42MikiIGQ9Ik0zOTMuMzcsMjE4LjI3YS44MS44MSwwLDEsMS0uOC0uOEEuOC44LDAsMCwxLDM5My4zNywyMTguMjdaIiBjbGFzcz0iY2xzLTUiLz48cGF0aCB0cmFuc2Zvcm09InRyYW5zbGF0ZSgtMzgzLjgzIC0xNTEuNjIpIiBkPSJNNDAyLjExLDIxOC4yN2EuOC44LDAsMSwxLS44LS44QS44LjgsMCwwLDEsNDAyLjExLDIxOC4yN1oiIGNsYXNzPSJjbHMtNSIvPjxwYXRoIHRyYW5zZm9ybT0idHJhbnNsYXRlKC0zODMuODMgLTE1MS42MikiIGQ9Ik00MDQuNzIsMjE4LjI3YS44MS44MSwwLDEsMS0uOC0uOEEuOC44LDAsMCwxLDQwNC43MiwyMTguMjdaIiBjbGFzcz0iY2xzLTUiLz48cGF0aCB0cmFuc2Zvcm09InRyYW5zbGF0ZSgtMzgzLjgzIC0xNTEuNjIpIiBkPSJNNDA3LjMyLDIxOC4yN2EuOC44LDAsMSwxLS44LS44QS44LjgsMCwwLDEsNDA3LjMyLDIxOC4yN1oiIGNsYXNzPSJjbHMtNSIvPjxwYXRoIHRyYW5zZm9ybT0idHJhbnNsYXRlKC0zODMuODMgLTE1MS42MikiIGQ9Ik0zOTYuNDEsMjE4LjI3YS44MS44MSwwLDEsMS0uODEtLjhBLjguOCwwLDAsMSwzOTYuNDEsMjE4LjI3WiIgY2xhc3M9ImNscy01Ii8+PHBhdGggdHJhbnNmb3JtPSJ0cmFuc2xhdGUoLTM4My44MyAtMTUxLjYyKSIgZD0iTTM5OSwyMTguMjdhLjgxLjgxLDAsMSwxLS44LS44QS44LjgsMCwwLDEsMzk5LDIxOC4yN1oiIGNsYXNzPSJjbHMtNSIvPjxsaW5lIHkyPSI2My4yNSIgeDI9IjYuNDkiIHkxPSI1OS40NSIgeDE9IjYuNDkiIGNsYXNzPSJjbHMtMTAiLz48bGluZSB5Mj0iNzAuNDUiIHgyPSIxMC42NCIgeTE9IjYzLjI1IiB4MT0iMTAuNjQiIGNsYXNzPSJjbHMtNiIvPjxwb2x5Z29uIHBvaW50cz0iMTIuNTIgNTIuMzUgOC4xMSA1Mi4zNSA4LjExIDU0LjYzIDkuNzEgNTQuNjMgOS43MSA1NC4xNiA5LjMgNTQuMTYgOS4zIDUyLjk4IDEyLjI3IDUyLjk4IDEyLjI3IDU0LjE2IDExLjg5IDU0LjE2IDExLjg5IDU0LjYzIDEyLjUyIDU0LjYzIDEzLjE0IDU0LjYzIDEzLjE0IDU0LjE2IDEyLjc3IDU0LjE2IDEyLjc3IDUyLjk4IDE1Ljc0IDUyLjk4IDE1Ljc0IDU0LjE2IDE1LjMzIDU0LjE2IDE1LjMzIDU0LjYzIDE2LjkzIDU0LjYzIDE2LjkzIDUyLjM1IDEyLjUyIDUyLjM1IiBjbGFzcz0iY2xzLTUiLz48bGluZSB5Mj0iMy4zMiIgeDI9IjI1LjUyIiB5MT0iMy4zMiIgeDE9IjYuNDkiIGNsYXNzPSJjbHMtMTAiLz48cmVjdCBoZWlnaHQ9IjAuNDUiIHdpZHRoPSIwLjgzIiB5PSIxLjYyIiB4PSIxLjExIiBjbGFzcz0iY2xzLTgiLz48cmVjdCBoZWlnaHQ9IjAuNDUiIHdpZHRoPSIwLjgzIiB5PSIxLjYyIiB4PSIyLjY0IiBjbGFzcz0iY2xzLTgiLz48cmVjdCBoZWlnaHQ9IjAuNDUiIHdpZHRoPSIwLjgzIiB5PSIxLjYyIiB4PSI0LjE3IiBjbGFzcz0iY2xzLTgiLz48cmVjdCBoZWlnaHQ9IjAuNDUiIHdpZHRoPSIwLjgzIiB5PSIxLjYyIiB4PSI1LjciIGNsYXNzPSJjbHMtOCIvPjxyZWN0IGhlaWdodD0iMC40NSIgd2lkdGg9IjAuODMiIHk9IjEuNjIiIHg9IjcuMjIiIGNsYXNzPSJjbHMtOCIvPjxyZWN0IGhlaWdodD0iMC40NSIgd2lkdGg9IjAuODMiIHk9IjEuNjIiIHg9IjguNzUiIGNsYXNzPSJjbHMtOCIvPjxyZWN0IGhlaWdodD0iMC40NSIgd2lkdGg9IjAuODMiIHk9IjEuNjIiIHg9IjEwLjI4IiBjbGFzcz0iY2xzLTgiLz48cmVjdCBoZWlnaHQ9IjAuNDUiIHdpZHRoPSIwLjgzIiB5PSIxLjYyIiB4PSIxMC4yNyIgY2xhc3M9ImNscy04Ii8+PHJlY3QgaGVpZ2h0PSIwLjQ1IiB3aWR0aD0iMC44MyIgeT0iMS42MiIgeD0iMTEuOCIgY2xhc3M9ImNscy04Ii8+PHJlY3QgaGVpZ2h0PSIwLjQ1IiB3aWR0aD0iMC44MyIgeT0iMS42MiIgeD0iMTMuMzIiIGNsYXNzPSJjbHMtOCIvPjxyZWN0IGhlaWdodD0iMC40NSIgd2lkdGg9IjAuODMiIHk9IjEuNjIiIHg9IjE0Ljg1IiBjbGFzcz0iY2xzLTgiLz48cmVjdCBoZWlnaHQ9IjAuNDUiIHdpZHRoPSIwLjgzIiB5PSIxLjYyIiB4PSIxNi4zOCIgY2xhc3M9ImNscy04Ii8+PHJlY3QgaGVpZ2h0PSIwLjQ1IiB3aWR0aD0iMC44MyIgeT0iMS42MiIgeD0iMTcuOTEiIGNsYXNzPSJjbHMtOCIvPjxyZWN0IGhlaWdodD0iMC40NSIgd2lkdGg9IjAuODMiIHk9IjEuNjIiIHg9IjE5LjQ0IiBjbGFzcz0iY2xzLTgiLz48cmVjdCBoZWlnaHQ9IjAuNDUiIHdpZHRoPSIwLjgzIiB5PSIxLjYyIiB4PSIxOS40NSIgY2xhc3M9ImNscy04Ii8+PHJlY3QgaGVpZ2h0PSIwLjQ1IiB3aWR0aD0iMC44MyIgeT0iMS42MiIgeD0iMjAuOTgiIGNsYXNzPSJjbHMtOCIvPjxyZWN0IGhlaWdodD0iMC40NSIgd2lkdGg9IjAuODMiIHk9IjEuNjIiIHg9IjIyLjUxIiBjbGFzcz0iY2xzLTgiLz48cmVjdCBoZWlnaHQ9IjAuNDUiIHdpZHRoPSIwLjgzIiB5PSIxLjYyIiB4PSIyNC4wMyIgY2xhc3M9ImNscy04Ii8+PGxpbmUgeTI9IjEuNjIiIHgyPSIyNS42MSIgeTE9IjEuNjIiIHgxPSIwLjU0IiBjbGFzcz0iY2xzLTgiLz48cmVjdCBoZWlnaHQ9IjYuNzIiIHdpZHRoPSI2LjUxIiB5PSI1NS4wMyIgeD0iMTkuMDQiIGNsYXNzPSJjbHMtMTAiLz48bGluZSB5Mj0iNTguNTciIHgyPSIyNS4yNyIgeTE9IjU4LjU3IiB4MT0iMTkuMDgiIGNsYXNzPSJjbHMtNiIvPjxyZWN0IGhlaWdodD0iMS4yNCIgd2lkdGg9IjIuNTEiIHk9IjU1LjAzIiB4PSIyMC45MiIgY2xhc3M9ImNscy01Ii8+PHJlY3QgaGVpZ2h0PSIxLjc2IiB3aWR0aD0iMS41MiIgeT0iNTYuODEiIHg9IjIxLjQyIiBjbGFzcz0iY2xzLTUiLz48cmVjdCBoZWlnaHQ9IjIuMDciIHdpZHRoPSIyLjQyIiB5PSI1OS4xOCIgeD0iMjAuOTYiIGNsYXNzPSJjbHMtNSIvPjxyZWN0IGhlaWdodD0iNS41NiIgd2lkdGg9IjQuODgiIHk9IjY0Ljk1IiB4PSIxMC42MyIgY2xhc3M9ImNscy01Ii8+PC9nPjwvc3ZnPg==;" vertex="1" parent="1">
          <mxGeometry x="164" y="420" width="36.62" height="100" as="geometry" />
        </mxCell>
        <mxCell id="Xxvg-gCRTEaE2rbNDNgC-134" value="DP/IE ADDR" style="text;html=1;strokeColor=none;fillColor=none;align=center;verticalAlign=middle;whiteSpace=wrap;rounded=0;fontSize=10;" vertex="1" parent="1">
          <mxGeometry x="74" y="500" width="90" height="20" as="geometry" />
        </mxCell>
        <mxCell id="Xxvg-gCRTEaE2rbNDNgC-135" value="SINAMICS G120&lt;br style=&quot;font-size: 10px;&quot;&gt;x kW | xA&amp;nbsp;" style="text;html=1;strokeColor=none;fillColor=none;align=center;verticalAlign=middle;whiteSpace=wrap;rounded=0;fontSize=10;" vertex="1" parent="1">
          <mxGeometry x="74" y="470" width="90" height="20" as="geometry" />
        </mxCell>
        <mxCell id="Xxvg-gCRTEaE2rbNDNgC-136" value="Text" style="text;html=1;strokeColor=none;fillColor=none;align=center;verticalAlign=middle;whiteSpace=wrap;rounded=0;" vertex="1" parent="1">
          <mxGeometry x="74" y="420" width="90" height="30" as="geometry" />
        </mxCell>
        <mxCell id="Xxvg-gCRTEaE2rbNDNgC-144" value="" style="shape=image;verticalLabelPosition=bottom;labelBackgroundColor=default;verticalAlign=top;aspect=fixed;imageAspect=0;image=data:image/svg+xml,PHN2ZyB4bWxucz0iaHR0cDovL3d3dy53My5vcmcvMjAwMC9zdmciIHZpZXdCb3g9IjAgMCA3NS4xMiA0MS4wOSI+PGRlZnM+PHN0eWxlPi5jbHMtMXtmaWxsOiNhNmM0ZDE7c3Ryb2tlLXdpZHRoOjAuODVweDt9LmNscy0xLC5jbHMtMiwuY2xzLTMsLmNscy00e3N0cm9rZTojMDA1NTdjO30uY2xzLTEsLmNscy0zLC5jbHMtNHtzdHJva2UtbWl0ZXJsaW1pdDozLjg2O30uY2xzLTIsLmNscy0zLC5jbHMtNHtmaWxsOm5vbmU7fS5jbHMtMntzdHJva2Utd2lkdGg6MC4zN3B4O30uY2xzLTMsLmNscy00e3N0cm9rZS13aWR0aDowLjIzcHg7fS5jbHMtM3tmaWxsLXJ1bGU6ZXZlbm9kZDt9LmNscy01e2ZpbGw6I2Q5ZTZlYjt9LmNscy02e2ZpbGw6IzAwNTU3Yzt9LmNscy03e2ZpbGw6I2Q5ZWRmNTt9PC9zdHlsZT48L2RlZnM+PGcgaWQ9Ik9yaWdpbmFsIj48cmVjdCBoZWlnaHQ9IjM2LjkxIiB3aWR0aD0iNzQuMjciIHk9IjEuMyIgeD0iMC40MyIgY2xhc3M9ImNscy0xIi8+PHJlY3QgaGVpZ2h0PSIwLjc3IiB3aWR0aD0iMS41OSIgeT0iMC40MyIgeD0iNTAuNzgiIGNsYXNzPSJjbHMtMSIvPjxsaW5lIHkyPSIzOC4yMSIgeDI9IjcxLjU3IiB5MT0iMS41MyIgeDE9IjcxLjU3IiBjbGFzcz0iY2xzLTIiLz48bGluZSB5Mj0iMzguMjEiIHgyPSIzMi42OCIgeTE9IjEuNTMiIHgxPSIzMi42OCIgY2xhc3M9ImNscy0yIi8+PGxpbmUgeTI9IjM4LjIxIiB4Mj0iMzAuMzkiIHkxPSIxLjUzIiB4MT0iMzAuMzkiIGNsYXNzPSJjbHMtMiIvPjxsaW5lIHkyPSIzOC4yMSIgeDI9IjMwLjM1IiB5MT0iMS41MyIgeDE9IjMwLjM1IiBjbGFzcz0iY2xzLTIiLz48bGluZSB5Mj0iMzguMjEiIHgyPSIyMS4wMyIgeTE9IjEuNTMiIHgxPSIyMS4wMyIgY2xhc3M9ImNscy0yIi8+PGxpbmUgeTI9IjM4LjIxIiB4Mj0iMTguMjEiIHkxPSIxLjUzIiB4MT0iMTguMjEiIGNsYXNzPSJjbHMtMiIvPjxsaW5lIHkyPSIzOC4yMSIgeDI9IjMuNDEiIHkxPSIxLjUzIiB4MT0iMy40MSIgY2xhc3M9ImNscy0yIi8+PGxpbmUgeTI9IjM4LjIxIiB4Mj0iMy40MSIgeTE9IjEuNTMiIHgxPSIzLjQxIiBjbGFzcz0iY2xzLTIiLz48bGluZSB5Mj0iMzguMjEiIHgyPSIxNC4wOSIgeTE9IjEuNTMiIHgxPSIxNC4wOSIgY2xhc3M9ImNscy0yIi8+PGxpbmUgeTI9IjM4LjIxIiB4Mj0iMTIuOTYiIHkxPSIxLjUzIiB4MT0iMTIuOTYiIGNsYXNzPSJjbHMtMiIvPjxsaW5lIHkyPSIzOC4yMSIgeDI9IjguNTIiIHkxPSIxLjUzIiB4MT0iOC41MiIgY2xhc3M9ImNscy0yIi8+PGxpbmUgeTI9IjM4LjIxIiB4Mj0iNy4zOSIgeTE9IjEuNTMiIHgxPSI3LjM5IiBjbGFzcz0iY2xzLTIiLz48cGF0aCB0cmFuc2Zvcm09InRyYW5zbGF0ZSgtMzU5LjI5IC0xNjYuNTQpIiBkPSJNMzYxLjM0LDE3Mi4xM2ExLDEsMCwxLDAtLjk1LTFBMSwxLDAsMCwwLDM2MS4zNCwxNzIuMTNaIiBjbGFzcz0iY2xzLTMiLz48cGF0aCB0cmFuc2Zvcm09InRyYW5zbGF0ZSgtMzU5LjI5IC0xNjYuNTQpIiBkPSJNMzYxLjM0LDE3MS42NWEuNDguNDgsMCwxLDAtLjQ3LS40OEEuNDguNDgsMCwwLDAsMzYxLjM0LDE3MS42NVoiIGNsYXNzPSJjbHMtNCIvPjxwYXRoIHRyYW5zZm9ybT0idHJhbnNsYXRlKC0zNTkuMjkgLTE2Ni41NCkiIGQ9Ik0zNjEuMzQsMjAyLjU5YTEsMSwwLDEsMC0uOTUtMUExLDEsMCwwLDAsMzYxLjM0LDIwMi41OVoiIGNsYXNzPSJjbHMtMyIvPjxwYXRoIHRyYW5zZm9ybT0idHJhbnNsYXRlKC0zNTkuMjkgLTE2Ni41NCkiIGQ9Ik0zNjEuMzQsMjAyLjExYS40Ny40NywwLDAsMCwuNDgtLjQ4LjQ4LjQ4LDAsMSwwLS45NSwwQS40Ny40NywwLDAsMCwzNjEuMzQsMjAyLjExWiIgY2xhc3M9ImNscy0zIi8+PHBhdGggdHJhbnNmb3JtPSJ0cmFuc2xhdGUoLTM1OS4yOSAtMTY2LjU0KSIgZD0iTTQzMi40MSwxNzIuMTNhMSwxLDAsMSwwLTEtMUExLDEsMCwwLDAsNDMyLjQxLDE3Mi4xM1oiIGNsYXNzPSJjbHMtMyIvPjxwYXRoIHRyYW5zZm9ybT0idHJhbnNsYXRlKC0zNTkuMjkgLTE2Ni41NCkiIGQ9Ik00MzIuNDEsMTcxLjY1YS40OC40OCwwLDEsMCwwLTEsLjQ4LjQ4LDAsMCwwLDAsMVoiIGNsYXNzPSJjbHMtNCIvPjxwYXRoIHRyYW5zZm9ybT0idHJhbnNsYXRlKC0zNTkuMjkgLTE2Ni41NCkiIGQ9Ik00MzIuNDEsMjAyLjU5YTEsMSwwLDEsMC0xLTFBMSwxLDAsMCwwLDQzMi40MSwyMDIuNTlaIiBjbGFzcz0iY2xzLTMiLz48cGF0aCB0cmFuc2Zvcm09InRyYW5zbGF0ZSgtMzU5LjI5IC0xNjYuNTQpIiBkPSJNNDMyLjQxLDIwMi4xMWEuNDguNDgsMCwwLDAsLjQ4LS40OC40OS40OSwwLDAsMC0uNDgtLjQ4LjQ4LjQ4LDAsMCwwLS40OC40OEEuNDcuNDcsMCwwLDAsNDMyLjQxLDIwMi4xMVoiIGNsYXNzPSJjbHMtMyIvPjxyZWN0IGhlaWdodD0iMS41NCIgd2lkdGg9IjEuNTkiIHk9IjM4LjIxIiB4PSIzOC40MSIgY2xhc3M9ImNscy0xIi8+PHJlY3QgaGVpZ2h0PSIxLjU0IiB3aWR0aD0iNi4zMyIgeT0iMzguMjEiIHg9IjQwLjYiIGNsYXNzPSJjbHMtMSIvPjxyZWN0IGhlaWdodD0iMS41NCIgd2lkdGg9IjEuNTkiIHk9IjM4LjIxIiB4PSI0Ny41MiIgY2xhc3M9ImNscy0xIi8+PHJlY3QgaGVpZ2h0PSIxLjU0IiB3aWR0aD0iMS4yOCIgeT0iMzguMjEiIHg9IjUzLjQ4IiBjbGFzcz0iY2xzLTEiLz48cmVjdCBoZWlnaHQ9IjEuNTQiIHdpZHRoPSI1LjEiIHk9IjM4LjIxIiB4PSI1NS4yNCIgY2xhc3M9ImNscy0xIi8+PHJlY3QgaGVpZ2h0PSIxLjU0IiB3aWR0aD0iMS4yOCIgeT0iMzguMjEiIHg9IjYwLjgzIiBjbGFzcz0iY2xzLTEiLz48cmVjdCBoZWlnaHQ9IjEuNTQiIHdpZHRoPSIxLjI4IiB5PSIzOC4yMSIgeD0iNjMuMDkiIGNsYXNzPSJjbHMtMSIvPjxyZWN0IGhlaWdodD0iMS41NCIgd2lkdGg9IjUuMSIgeT0iMzguMjEiIHg9IjY0Ljg1IiBjbGFzcz0iY2xzLTEiLz48cmVjdCBoZWlnaHQ9IjEuNTQiIHdpZHRoPSIxLjI4IiB5PSIzOC4yMSIgeD0iNzAuNDMiIGNsYXNzPSJjbHMtMSIvPjxwYXRoIHRyYW5zZm9ybT0idHJhbnNsYXRlKC0zNTkuMjkgLTE2Ni41NCkiIGQ9Ik0zODMuMTQsMjA3LjA4YzIuMjYtLjI3LDEwLjU0LS45NCwxMC41NC0uOTR2LTEuMzlIMzc5LjV2MS41NFMzNzguNzEsMjA3LjYxLDM4My4xNCwyMDcuMDhaIiBjbGFzcz0iY2xzLTEiLz48cmVjdCBoZWlnaHQ9IjM1LjUxIiB3aWR0aD0iOC40OCIgeT0iMiIgeD0iMjEuNDQiIGNsYXNzPSJjbHMtNSIvPjxyZWN0IGhlaWdodD0iMS4zOCIgd2lkdGg9IjUuOTIiIHk9IjIuOTgiIHg9IjIyLjcyIiBjbGFzcz0iY2xzLTYiLz48cmVjdCBoZWlnaHQ9IjEuNTYiIHdpZHRoPSIxLjAzIiB5PSIzNi4yMSIgeD0iMzcuMDgiIGNsYXNzPSJjbHMtNyIvPjxyZWN0IGhlaWdodD0iMS41NiIgd2lkdGg9IjEuMDMiIHk9IjM2LjIxIiB4PSI0MC40NyIgY2xhc3M9ImNscy03Ii8+PHJlY3QgaGVpZ2h0PSIxLjU2IiB3aWR0aD0iMS4wMyIgeT0iMzYuMjEiIHg9IjQzLjg2IiBjbGFzcz0iY2xzLTciLz48cmVjdCBoZWlnaHQ9IjEuNTYiIHdpZHRoPSIxLjAzIiB5PSIzNi4yMSIgeD0iNDcuMjYiIGNsYXNzPSJjbHMtNyIvPjwvZz48L3N2Zz4=;" vertex="1" parent="1">
          <mxGeometry x="340.0000000000001" y="477.5" width="75" height="41" as="geometry" />
        </mxCell>
        <mxCell id="Xxvg-gCRTEaE2rbNDNgC-145" value="Text" style="text;html=1;strokeColor=none;fillColor=none;align=center;verticalAlign=middle;whiteSpace=wrap;rounded=0;" vertex="1" parent="1">
          <mxGeometry x="240.0000000000001" y="483" width="100" height="14.5" as="geometry" />
        </mxCell>
        <mxCell id="Xxvg-gCRTEaE2rbNDNgC-146" value="OS v." style="text;html=1;strokeColor=none;fillColor=none;align=center;verticalAlign=middle;whiteSpace=wrap;rounded=0;" vertex="1" parent="1">
          <mxGeometry x="240.0000000000001" y="443" width="100" height="30" as="geometry" />
        </mxCell>
        <mxCell id="Xxvg-gCRTEaE2rbNDNgC-147" value="X1: Dynamic" style="text;html=1;strokeColor=none;fillColor=none;align=center;verticalAlign=middle;whiteSpace=wrap;rounded=0;fontSize=10;" vertex="1" parent="1">
          <mxGeometry x="340.0000000000001" y="447.5" width="80" height="10" as="geometry" />
        </mxCell>
        <mxCell id="Xxvg-gCRTEaE2rbNDNgC-148" value="X2: Dynamic" style="text;html=1;strokeColor=none;fillColor=none;align=center;verticalAlign=middle;whiteSpace=wrap;rounded=0;fontSize=10;" vertex="1" parent="1">
          <mxGeometry x="340.0000000000001" y="457.5" width="80" height="10" as="geometry" />
        </mxCell>
        <mxCell id="Xxvg-gCRTEaE2rbNDNgC-149" value="X3: Dynamic" style="text;html=1;strokeColor=none;fillColor=none;align=center;verticalAlign=middle;whiteSpace=wrap;rounded=0;fontSize=10;" vertex="1" parent="1">
          <mxGeometry x="340.0000000000001" y="467.5" width="80" height="10" as="geometry" />
        </mxCell>
        <mxCell id="Xxvg-gCRTEaE2rbNDNgC-150" value="IPC427D" style="text;html=1;strokeColor=none;fillColor=none;align=center;verticalAlign=middle;whiteSpace=wrap;rounded=0;" vertex="1" parent="1">
          <mxGeometry x="240.0000000000001" y="503" width="100" height="14.5" as="geometry" />
        </mxCell>
        <mxCell id="Xxvg-gCRTEaE2rbNDNgC-151" value="" style="shape=image;verticalLabelPosition=bottom;labelBackgroundColor=default;verticalAlign=top;aspect=fixed;imageAspect=0;image=data:image/svg+xml,PHN2ZyB4bWxucz0iaHR0cDovL3d3dy53My5vcmcvMjAwMC9zdmciIHZpZXdCb3g9IjAgMCAyNzMuNzMgMTAwLjk1Ij48ZGVmcz48c3R5bGU+LmNscy0xe2ZpbGw6I2E2YzRkMTt9LmNscy0yLC5jbHMtMywuY2xzLTV7ZmlsbDpub25lO30uY2xzLTJ7c3Ryb2tlOiM2MjYyNjE7c3Ryb2tlLWxpbmVjYXA6cm91bmQ7c3Ryb2tlLWxpbmVqb2luOnJvdW5kO3N0cm9rZS13aWR0aDowLjI4cHg7fS5jbHMtMywuY2xzLTV7c3Ryb2tlOiMwMDU1N2M7fS5jbHMtM3tzdHJva2Utd2lkdGg6MC44NXB4O30uY2xzLTR7ZmlsbDojZDllZGY1O30uY2xzLTV7c3Ryb2tlLXdpZHRoOjAuMjNweDt9LmNscy02e2ZpbGw6I2Q5ZTZlYjt9LmNscy03e2ZpbGw6IzAwNTU3Yzt9PC9zdHlsZT48L2RlZnM+PGcgaWQ9Ik9yaWdpbmFsIj48cG9seWdvbiBwb2ludHM9IjI1OC43OCAwLjkxIDI1OC43OCAwLjk0IDE1LjA0IDAuOTQgMTUuMDQgMC45MSAyLjE3IDAuOTEgMC40NyAyLjYxIDAuNDcgOTkuMjUgMi4xNyAxMDAuOTUgMTUuMDQgMTAwLjk1IDE1LjA0IDEwMC44NyAyNTguNzggMTAwLjg3IDI1OC43OCAxMDAuOTUgMjcxLjY0IDEwMC45NSAyNzMuMzUgOTkuMjUgMjczLjM1IDIuNjEgMjcxLjY0IDAuOTEgMjU4Ljc4IDAuOTEiIGNsYXNzPSJjbHMtMSIvPjxsaW5lIHkyPSI5OS45NiIgeDI9IjExNS4wNSIgeTE9Ijk0LjI5IiB4MT0iMTE0LjkiIGNsYXNzPSJjbHMtMiIvPjxsaW5lIHkyPSI3LjQiIHgyPSIxMzQuNjUiIHkxPSIwLjQ1IiB4MT0iMTM0LjY1IiBjbGFzcz0iY2xzLTMiLz48bGluZSB5Mj0iOTMuMjgiIHgyPSIxMzQuNjUiIHkxPSIxMDAuMzkiIHgxPSIxMzQuNjUiIGNsYXNzPSJjbHMtMyIvPjxsaW5lIHkyPSI5OS45NCIgeDI9IjIxNS41NyIgeTE9IjAuNzQiIHgxPSIyMTUuNTciIGNsYXNzPSJjbHMtMyIvPjxwb2x5Z29uIHBvaW50cz0iMTI0LjMxIDMzLjEzIDEyNC4wOCAzMy4xNyAxMjMuODggMzMuMjcgMTIzLjcxIDMzLjQ0IDEyMy42MSAzMy42NCAxMjMuNTcgMzMuODcgMTIzLjU3IDY2LjggMTIzLjYxIDY3LjAzIDEyMy43MSA2Ny4yMyAxMjMuODggNjcuNCAxMjQuMDggNjcuNSAxMjQuMzEgNjcuNTQgMTQ2Ljk0IDY3LjU0IDE0Ny4xNyA2Ny41IDE0Ny4zNyA2Ny40IDE0Ny41MyA2Ny4yMyAxNDcuNjQgNjcuMDMgMTQ3LjY4IDY2LjggMTQ3LjY4IDMzLjg3IDE0Ny42NCAzMy42NCAxNDcuNTMgMzMuNDQgMTQ3LjM3IDMzLjI3IDE0Ny4xNyAzMy4xNyAxNDYuOTQgMzMuMTMgMTI0LjMxIDMzLjEzIiBjbGFzcz0iY2xzLTQiLz48cGF0aCB0cmFuc2Zvcm09InRyYW5zbGF0ZSgtMjU5Ljk3IC0xMzYuNDUpIiBkPSJNNTI2LjYzLDE1Mi44OWEyLjgzLDIuODMsMCwwLDAtNS42NiwwdjY4YTIuODMsMi44MywwLDEsMCw1LjY2LDBaIiBjbGFzcz0iY2xzLTMiLz48cGF0aCB0cmFuc2Zvcm09InRyYW5zbGF0ZSgtMjU5Ljk3IC0xMzYuNDUpIiBkPSJNMjY3LDIyMC45MWEyLjg0LDIuODQsMCwxLDAsNS42Nywwdi02OGEyLjg0LDIuODQsMCwwLDAtNS42NywwWiIgY2xhc3M9ImNscy0zIi8+PHJlY3Qgcng9IjEuOSIgaGVpZ2h0PSI4NS44OCIgd2lkdGg9IjI0Ljk0IiB5PSI3LjQiIHg9IjEyMy4xMiIgY2xhc3M9ImNscy0zIi8+PHBhdGggdHJhbnNmb3JtPSJ0cmFuc2xhdGUoLTI1OS45NyAtMTM2LjQ1KSIgZD0iTTM0MS41NywxMzcuMzMiIGNsYXNzPSJjbHMtNSIvPjxwb2x5bGluZSBwb2ludHM9IjIxOC43NiA5OS45NCAyMTguNzYgODEuNzUgMjE4Ljc2IDAuNzQiIGNsYXNzPSJjbHMtMyIvPjxsaW5lIHkyPSI2LjU1IiB4Mj0iMjguMDMiIHkxPSI2LjU1IiB4MT0iMzguOTQiIGNsYXNzPSJjbHMtNSIvPjxsaW5lIHkyPSI5NC4yOSIgeDI9IjI4LjAzIiB5MT0iOTQuMjkiIHgxPSIzOC45NCIgY2xhc3M9ImNscy01Ii8+PHBvbHlnb24gcG9pbnRzPSIzOS4xIDAuODggMjIuNTkgMC44OCAyMi41OSA1LjUzIDI0LjY1IDUuNTMgMjUuNyA4LjM2IDI1LjcgNTAuMTQgMjIuNTkgNTAuMTQgMjIuNTkgNTAuNyAyNS43IDUwLjcgMjUuNyA5Mi40OCAyNC42NSA5NS4zMSAyMi41OSA5NS4zMSAyMi41OSA5OS45NiAzOS4xIDk5Ljk2IDM5LjEgMC44OCIgY2xhc3M9ImNscy0zIi8+PHBvbHlsaW5lIHBvaW50cz0iMjUuOTQgOTkuOTYgMjguMDMgOTQuMjkgMjguMDMgNi41NSAyNS45NCAwLjg4IiBjbGFzcz0iY2xzLTUiLz48bGluZSB5Mj0iNi41NSIgeDI9IjQ3LjAyIiB5MT0iNi41NSIgeDE9IjU3LjkzIiBjbGFzcz0iY2xzLTUiLz48bGluZSB5Mj0iOTQuMjkiIHgyPSI0Ny4wMiIgeTE9Ijk0LjI5IiB4MT0iNTcuOTMiIGNsYXNzPSJjbHMtNSIvPjxwb2x5Z29uIHBvaW50cz0iNTguMDkgMC44OCA0MS41OCAwLjg4IDQxLjU4IDUuNTMgNDMuNjQgNS41MyA0NC42OSA4LjM2IDQ0LjY5IDUwLjE0IDQxLjU4IDUwLjE0IDQxLjU4IDUwLjcgNDQuNjkgNTAuNyA0NC42OSA5Mi40OCA0My42NCA5NS4zMSA0MS41OCA5NS4zMSA0MS41OCA5OS45NiA1OC4wOSA5OS45NiA1OC4wOSAwLjg4IiBjbGFzcz0iY2xzLTMiLz48cG9seWxpbmUgcG9pbnRzPSI0NC45MyA5OS45NiA0Ny4wMiA5NC4yOSA0Ny4wMiA2LjU1IDQ0LjkzIDAuODgiIGNsYXNzPSJjbHMtNSIvPjxsaW5lIHkyPSI2LjU1IiB4Mj0iNjYuMDEiIHkxPSI2LjU1IiB4MT0iNzYuOTIiIGNsYXNzPSJjbHMtNSIvPjxsaW5lIHkyPSI5NC4yOSIgeDI9IjY2LjAxIiB5MT0iOTQuMjkiIHgxPSI3Ni45MiIgY2xhc3M9ImNscy01Ii8+PHBvbHlnb24gcG9pbnRzPSI3Ny4wOCAwLjg4IDYwLjU3IDAuODggNjAuNTcgNS41MyA2Mi42MyA1LjUzIDYzLjY3IDguMzYgNjMuNjcgNTAuMTQgNjAuNTcgNTAuMTQgNjAuNTcgNTAuNyA2My42NyA1MC43IDYzLjY3IDkyLjQ4IDYyLjYzIDk1LjMxIDYwLjU3IDk1LjMxIDYwLjU3IDk5Ljk2IDc3LjA4IDk5Ljk2IDc3LjA4IDAuODgiIGNsYXNzPSJjbHMtMyIvPjxwb2x5bGluZSBwb2ludHM9IjYzLjkyIDk5Ljk2IDY2LjAxIDk0LjI5IDY2LjAxIDYuNTUgNjMuOTIgMC44OCIgY2xhc3M9ImNscy01Ii8+PGxpbmUgeTI9IjYuNDYiIHgyPSI4NSIgeTE9IjYuNDYiIHgxPSI5NS45MSIgY2xhc3M9ImNscy01Ii8+PGxpbmUgeTI9Ijk0LjIxIiB4Mj0iODUiIHkxPSI5NC4yMSIgeDE9Ijk1LjkxIiBjbGFzcz0iY2xzLTUiLz48cG9seWdvbiBwb2ludHM9Ijk2LjA3IDAuNzkgNzkuNTYgMC43OSA3OS41NiA1LjQ0IDgxLjYyIDUuNDQgODIuNjYgOC4yOCA4Mi42NiA1MC4wNSA3OS41NiA1MC4wNSA3OS41NiA1MC42MiA4Mi42NiA1MC42MiA4Mi42NiA5Mi4zOSA4MS42MiA5NS4yMyA3OS41NiA5NS4yMyA3OS41NiA5OS44OCA5Ni4wNyA5OS44OCA5Ni4wNyAwLjc5IiBjbGFzcz0iY2xzLTMiLz48cG9seWxpbmUgcG9pbnRzPSI4Mi45MSA5OS44OCA4NSA5NC4yMSA4NSA2LjQ2IDgyLjkxIDAuNzkiIGNsYXNzPSJjbHMtNSIvPjxsaW5lIHkyPSI2LjU1IiB4Mj0iMTAzLjk5IiB5MT0iNi41NSIgeDE9IjExNC45IiBjbGFzcz0iY2xzLTUiLz48bGluZSB5Mj0iOTQuMjkiIHgyPSIxMDMuOTkiIHkxPSI5NC4yOSIgeDE9IjExNC45IiBjbGFzcz0iY2xzLTUiLz48cG9seWxpbmUgcG9pbnRzPSIxMDMuOTkgMzUuMTIgMTAzLjk5IDUuOCAxMDEuOSAwLjg4IiBjbGFzcz0iY2xzLTUiLz48cGF0aCB0cmFuc2Zvcm09InRyYW5zbGF0ZSgtMjU5Ljk3IC0xMzYuNDUpIiBkPSJNMzY0LDE2OS41OSIgY2xhc3M9ImNscy01Ii8+PHBvbHlsaW5lIHBvaW50cz0iMTAxLjkgOTkuOTYgMTAzLjk5IDk0LjI5IDEwMy45OSA2NC45OCIgY2xhc3M9ImNscy01Ii8+PHBvbHlnb24gcG9pbnRzPSIxMDEuNjUgNjYuMjMgMTA4Ljg2IDYyLjM4IDEwOC44NiAzOC4zIDEwMS42NSAzNC40NCAxMDEuNjUgOC4zNiAxMDAuNjEgNS41MyA5OC41NSA1LjUzIDk4LjU1IDAuODggMTE1LjA2IDAuODggMTE1LjA2IDk5Ljk2IDk4LjU1IDk5Ljk2IDk4LjU1IDk1LjMxIDEwMC42MSA5NS4zMSAxMDEuNjUgOTIuNDggMTAxLjY1IDY2LjIzIiBjbGFzcz0iY2xzLTMiLz48cG9seWxpbmUgcG9pbnRzPSIxMDEuNjUgNjYuMjMgOTYuMDcgNjIuMzggOTYuMDcgMzguMyAxMDEuNjUgMzQuNDQiIGNsYXNzPSJjbHMtMyIvPjxwYXRoIHRyYW5zZm9ybT0idHJhbnNsYXRlKC0yNTkuOTcgLTEzNi40NSkiIGQ9Ik01MDUsMTQ4LjgxYTMuMjksMy4yOSwwLDEsMC0zLjI5LDMuMjhBMy4yOCwzLjI4LDAsMCwwLDUwNSwxNDguODFaIiBjbGFzcz0iY2xzLTUiLz48cmVjdCBoZWlnaHQ9IjQuNyIgd2lkdGg9IjEuNDIiIHk9IjEwLjc5IiB4PSIyNDEuMDIiIGNsYXNzPSJjbHMtNSIvPjxwYXRoIHRyYW5zZm9ybT0idHJhbnNsYXRlKC0yNTkuOTcgLTEzNi40NSkiIGQ9Ik01MDYuOCwxNDguODFhNS4xMSw1LjExLDAsMSwwLTUuMTEsNS4xQTUuMSw1LjEsMCwwLDAsNTA2LjgsMTQ4LjgxWiIgY2xhc3M9ImNscy0zIi8+PHJlY3QgaGVpZ2h0PSI5MC40MSIgd2lkdGg9IjMyLjQ4IiB5PSI1LjI1IiB4PSIxNTEuOTIiIGNsYXNzPSJjbHMtNiIvPjxyZWN0IGhlaWdodD0iOTAuNDEiIHdpZHRoPSIwLjkxIiB5PSI1LjI1IiB4PSIyMDIuOTkiIGNsYXNzPSJjbHMtNiIvPjxyZWN0IGhlaWdodD0iOTAuNDEiIHdpZHRoPSIxLjM2IiB5PSI1LjI1IiB4PSIxOTguNjgiIGNsYXNzPSJjbHMtNiIvPjxyZWN0IGhlaWdodD0iOTAuNDEiIHdpZHRoPSIyLjI3IiB5PSI1LjI1IiB4PSIxOTMuNDYiIGNsYXNzPSJjbHMtNiIvPjxyZWN0IGhlaWdodD0iOTAuNDEiIHdpZHRoPSIzLjE3IiB5PSI1LjI1IiB4PSIxODcuMzQiIGNsYXNzPSJjbHMtNiIvPjxyZWN0IGhlaWdodD0iNi41NSIgd2lkdGg9IjI0LjU0IiB5PSI5LjIxIiB4PSIxNTUuODgiIGNsYXNzPSJjbHMtNyIvPjxwb2x5Z29uIHBvaW50cz0iMjU4LjczIDAuNDIgMjU4LjczIDAuNDUgMTQuOTkgMC40NSAxNC45OSAwLjQyIDIuMTMgMC40MiAwLjQyIDIuMTMgMC40MiA5OC43NyAyLjEzIDEwMC40NyAxNC45OSAxMDAuNDcgMTQuOTkgMTAwLjM5IDI1OC43MyAxMDAuMzkgMjU4LjczIDEwMC40NyAyNzEuNiAxMDAuNDcgMjczLjMgOTguNzcgMjczLjMgMi4xMyAyNzEuNiAwLjQyIDI1OC43MyAwLjQyIiBjbGFzcz0iY2xzLTMiLz48bGluZSB5Mj0iMC4zMSIgeDI9IjEyLjczIiB5MT0iMTAwLjM2IiB4MT0iMTIuNzMiIGNsYXNzPSJjbHMtNSIvPjxsaW5lIHkyPSIwLjMxIiB4Mj0iMTUuMiIgeTE9IjEwMC4zNiIgeDE9IjE1LjIiIGNsYXNzPSJjbHMtMyIvPjxsaW5lIHkyPSIwLjQzIiB4Mj0iMjYwLjc0IiB5MT0iMTAwLjQ3IiB4MT0iMjYwLjc0IiBjbGFzcz0iY2xzLTUiLz48bGluZSB5Mj0iMC40MyIgeDI9IjI1OC4yNiIgeTE9IjEwMC40NyIgeDE9IjI1OC4yNiIgY2xhc3M9ImNscy0zIi8+PC9nPjwvc3ZnPg==;" vertex="1" parent="1">
          <mxGeometry x="160" y="580" width="217.03" height="80" as="geometry" />
        </mxCell>
        <mxCell id="Xxvg-gCRTEaE2rbNDNgC-152" value="Text" style="text;html=1;strokeColor=none;fillColor=none;align=center;verticalAlign=middle;whiteSpace=wrap;rounded=0;" vertex="1" parent="1">
          <mxGeometry x="20" y="623.5" width="140" height="14.5" as="geometry" />
        </mxCell>
        <mxCell id="Xxvg-gCRTEaE2rbNDNgC-153" value="OS v." style="text;html=1;strokeColor=none;fillColor=none;align=center;verticalAlign=middle;whiteSpace=wrap;rounded=0;" vertex="1" parent="1">
          <mxGeometry x="20" y="583.5" width="140" height="30" as="geometry" />
        </mxCell>
        <mxCell id="Xxvg-gCRTEaE2rbNDNgC-154" value="X1: Dynamic" style="text;html=1;strokeColor=none;fillColor=none;align=center;verticalAlign=middle;whiteSpace=wrap;rounded=0;fontSize=10;" vertex="1" parent="1">
          <mxGeometry x="220" y="550" width="80" height="10" as="geometry" />
        </mxCell>
        <mxCell id="Xxvg-gCRTEaE2rbNDNgC-155" value="X2: Dynamic" style="text;html=1;strokeColor=none;fillColor=none;align=center;verticalAlign=middle;whiteSpace=wrap;rounded=0;fontSize=10;" vertex="1" parent="1">
          <mxGeometry x="220" y="560" width="80" height="10" as="geometry" />
        </mxCell>
        <mxCell id="Xxvg-gCRTEaE2rbNDNgC-156" value="X3: Dynamic" style="text;html=1;strokeColor=none;fillColor=none;align=center;verticalAlign=middle;whiteSpace=wrap;rounded=0;fontSize=10;" vertex="1" parent="1">
          <mxGeometry x="220" y="570" width="80" height="10" as="geometry" />
        </mxCell>
        <mxCell id="Xxvg-gCRTEaE2rbNDNgC-157" value="IPC547J" style="text;html=1;strokeColor=none;fillColor=none;align=center;verticalAlign=middle;whiteSpace=wrap;rounded=0;" vertex="1" parent="1">
          <mxGeometry x="20" y="643.5" width="140" height="14.5" as="geometry" />
        </mxCell>
        <mxCell id="Xxvg-gCRTEaE2rbNDNgC-158" value="" style="shape=image;verticalLabelPosition=bottom;labelBackgroundColor=default;verticalAlign=top;aspect=fixed;imageAspect=0;image=data:image/svg+xml,PHN2ZyB4bWxucz0iaHR0cDovL3d3dy53My5vcmcvMjAwMC9zdmciIHZpZXdCb3g9IjAgMCAyNzMuNzMgNTAuOTEiPjxkZWZzPjxzdHlsZT4uY2xzLTF7ZmlsbDojYTZjNGQxO30uY2xzLTIsLmNscy0ze2ZpbGw6bm9uZTtzdHJva2U6IzAwNTU3Yzt9LmNscy0ye3N0cm9rZS13aWR0aDowLjg1cHg7fS5jbHMtM3tzdHJva2Utd2lkdGg6MC4yM3B4O30uY2xzLTR7ZmlsbDojZDllNmViO30uY2xzLTV7ZmlsbDojMDA1NTdjO30uY2xzLTZ7ZmlsbDojZDllZGY1O308L3N0eWxlPjwvZGVmcz48ZyBpZD0iT3JpZ2luYWwiPjxwb2x5Z29uIHBvaW50cz0iMjU4Ljc4IDAuNCAyNTguNzggMC40MyAxNS4wNCAwLjQzIDE1LjA0IDAuNCAyLjE3IDAuNCAwLjQ3IDIuMSAwLjQ3IDQ4Ljc1IDIuMTcgNTAuNDUgMTUuMDQgNTAuNDUgMTUuMDQgNTAuMzcgMjU4Ljc4IDUwLjM3IDI1OC43OCA1MC40NSAyNzEuNjQgNTAuNDUgMjczLjM1IDQ4Ljc1IDI3My4zNSAyLjEgMjcxLjY0IDAuNCAyNTguNzggMC40IiBjbGFzcz0iY2xzLTEiLz48bGluZSB5Mj0iNDkuOTQiIHgyPSIyMTUuNTciIHkxPSIwLjc0IiB4MT0iMjE1LjU3IiBjbGFzcz0iY2xzLTIiLz48cGF0aCB0cmFuc2Zvcm09InRyYW5zbGF0ZSgtMjU5Ljk3IC0xNjEuNjUpIiBkPSJNNTI2LjYzLDE3Ni4wOWEyLjgzLDIuODMsMCwxLDAtNS42NiwwdjIwYTIuODMsMi44MywwLDEsMCw1LjY2LDBaIiBjbGFzcz0iY2xzLTIiLz48cGF0aCB0cmFuc2Zvcm09InRyYW5zbGF0ZSgtMjU5Ljk3IC0xNjEuNjUpIiBkPSJNMjY3LDE5Ni4xMWEyLjg0LDIuODQsMCwxLDAsNS42Nywwdi0yMGEyLjg0LDIuODQsMCwxLDAtNS42NywwWiIgY2xhc3M9ImNscy0yIi8+PGxpbmUgeTI9IjAuNDMiIHgyPSIxMy4wMSIgeTE9IjUwLjQ4IiB4MT0iMTMuMDEiIGNsYXNzPSJjbHMtMyIvPjxsaW5lIHkyPSIwLjQzIiB4Mj0iMTUuNDgiIHkxPSI1MC40OCIgeDE9IjE1LjQ4IiBjbGFzcz0iY2xzLTIiLz48bGluZSB5Mj0iMC40MyIgeDI9IjI2MSIgeTE9IjUwLjQ4IiB4MT0iMjYxIiBjbGFzcz0iY2xzLTMiLz48bGluZSB5Mj0iMC40MyIgeDI9IjI1OC41MyIgeTE9IjUwLjQ4IiB4MT0iMjU4LjUzIiBjbGFzcz0iY2xzLTIiLz48cG9seWxpbmUgcG9pbnRzPSIyMTguNzYgNDkuOTQgMjE4Ljc2IDMxLjc1IDIxOC43NiAwLjc0IiBjbGFzcz0iY2xzLTIiLz48cGF0aCB0cmFuc2Zvcm09InRyYW5zbGF0ZSgtMjU5Ljk3IC0xNjEuNjUpIiBkPSJNNTA1LDE3NGEzLjI5LDMuMjksMCwxLDAtMy4yOSwzLjI5QTMuMjgsMy4yOCwwLDAsMCw1MDUsMTc0WiIgY2xhc3M9ImNscy0zIi8+PHJlY3QgaGVpZ2h0PSI0LjciIHdpZHRoPSIxLjQyIiB5PSIxMC43OSIgeD0iMjQxLjAyIiBjbGFzcz0iY2xzLTMiLz48cGF0aCB0cmFuc2Zvcm09InRyYW5zbGF0ZSgtMjU5Ljk3IC0xNjEuNjUpIiBkPSJNNTA2LjgsMTc0YTUuMTEsNS4xMSwwLDEsMC01LjExLDUuMTFBNS4xMSw1LjExLDAsMCwwLDUwNi44LDE3NFoiIGNsYXNzPSJjbHMtMiIvPjxyZWN0IGhlaWdodD0iNDkuNjYiIHdpZHRoPSIzMi40OCIgeT0iMC43NCIgeD0iMTUxLjkyIiBjbGFzcz0iY2xzLTQiLz48cmVjdCBoZWlnaHQ9IjYuNTUiIHdpZHRoPSIyNC41NCIgeT0iOS4yMSIgeD0iMTU1Ljg4IiBjbGFzcz0iY2xzLTUiLz48cG9seWdvbiBwb2ludHM9IjI1OC43MyAwLjQyIDI1OC43MyAwLjQ1IDE0Ljk5IDAuNDUgMTQuOTkgMC40MiAyLjEzIDAuNDIgMC40MiAyLjEzIDAuNDIgNDguNzggMi4xMyA1MC40OCAxNC45OSA1MC40OCAxNC45OSA1MC40IDI1OC43MyA1MC40IDI1OC43MyA1MC40OCAyNzEuNiA1MC40OCAyNzMuMyA0OC43OCAyNzMuMyAyLjEzIDI3MS42IDAuNDIgMjU4LjczIDAuNDIiIGNsYXNzPSJjbHMtMiIvPjxwb2x5Z29uIHBvaW50cz0iMTA0Ljk4IDEzLjc2IDEwMi4zNCAxMi4yMyA5MS4yMiAxNS42MyA5MS4yMiAzNS41IDEwMi4zNCAzOC45IDEwNC45OCAzNy4zOCAxMDQuOTggMTMuNzYiIGNsYXNzPSJjbHMtMiIvPjxwYXRoIHRyYW5zZm9ybT0idHJhbnNsYXRlKC0yNTkuOTcgLTE2MS42NSkiIGQ9Ik0zMDMuNzcsMjAzLjU2VjE3MC40MmwwLTQuOTRoMGExLjA3LDEuMDcsMCwwLDAtMS4wNy0xLjA3aC03LjMyYTEuMDcsMS4wNywwLDAsMC0xLjA2LDEuMDdoMGwwLDQuOTR2MzMuMTRsMCw1LjE1aDBhMS4wNywxLjA3LDAsMCwwLDEuMDYsMS4wN2g3LjMyYTEuMDcsMS4wNywwLDAsMCwxLjA3LTEuMDdoMFoiIGNsYXNzPSJjbHMtMiIvPjxwYXRoIHRyYW5zZm9ybT0idHJhbnNsYXRlKC0yNTkuOTcgLTE2MS42NSkiIGQ9Ik0zMjIuNzYsMjAzLjU2VjE3MC40MmwtLjA1LTQuOTRoMGExLjA3LDEuMDcsMCwwLDAtMS4wNy0xLjA3aC03LjMyYTEuMDYsMS4wNiwwLDAsMC0xLjA2LDEuMDdoMGwtLjA1LDQuOTR2MzMuMTRsLjA1LDUuMTVoMGExLjA2LDEuMDYsMCwwLDAsMS4wNiwxLjA3aDcuMzJhMS4wNywxLjA3LDAsMCwwLDEuMDctMS4wN2gwWiIgY2xhc3M9ImNscy0yIi8+PHBhdGggdHJhbnNmb3JtPSJ0cmFuc2xhdGUoLTI1OS45NyAtMTYxLjY1KSIgZD0iTTM0MS43NSwyMDMuNTZWMTcwLjQybC0uMDYtNC45NGgwYTEuMDYsMS4wNiwwLDAsMC0xLjA2LTEuMDdoLTcuMzJhMS4wNiwxLjA2LDAsMCwwLTEuMDYsMS4wN2gwbC0uMDYsNC45NHYzMy4xNGwuMDYsNS4xNWgwYTEuMDYsMS4wNiwwLDAsMCwxLjA2LDEuMDdoNy4zMmExLjA2LDEuMDYsMCwwLDAsMS4wNi0xLjA3aDBaIiBjbGFzcz0iY2xzLTIiLz48cGF0aCB0cmFuc2Zvcm09InRyYW5zbGF0ZSgtMjU5Ljk3IC0xNjEuNjUpIiBkPSJNMzkyLDIwNi4wOXYzLjY5SDM3MS4yOGExLjA3LDEuMDcsMCwwLDEtMS4wNy0xLjA3aDBsMC01LjE1VjE3MC40MmwwLTQuOTRoMGExLjA3LDEuMDcsMCwwLDEsMS4wNy0xLjA3SDM5MnYzLjgiIGNsYXNzPSJjbHMtMiIvPjxwYXRoIHRyYW5zZm9ybT0idHJhbnNsYXRlKC0yNTkuOTcgLTE2MS42NSkiIGQ9Ik0zNjQuOTQsMTg2LjEiIGNsYXNzPSJjbHMtMiIvPjxwYXRoIHRyYW5zZm9ybT0idHJhbnNsYXRlKC0yNTkuOTcgLTE2MS42NSkiIGQ9Ik0zNjAuNzMsMTczLjA1bDQuMjEsMi4zNlYxOTlsLTQuMjEsMi40NHYyLjFsLS4wNSw1LjE1aDBhMS4wNiwxLjA2LDAsMCwxLTEuMDYsMS4wN0gzNTIuM2ExLjA2LDEuMDYsMCwwLDEtMS4wNi0xLjA3aDBsLS4wNi01LjE1VjE3MC40MmwuMDYtNC45NGgwYTEuMDYsMS4wNiwwLDAsMSwxLjA2LTEuMDdoNy4zMmExLjA2LDEuMDYsMCwwLDEsMS4wNiwxLjA3aDBsLjA1LDQuOTRaIiBjbGFzcz0iY2xzLTIiLz48cG9seWxpbmUgcG9pbnRzPSIxNS40OCAwLjQyIDI2LjI4IDExLjIyIDI2LjM5IDM5LjU3IDE1LjQ4IDUwLjQ4IiBjbGFzcz0iY2xzLTMiLz48bGluZSB5Mj0iMTEuMjIiIHgyPSIxMjMuMjUiIHkxPSIxMS4yMiIgeDE9IjI2LjI4IiBjbGFzcz0iY2xzLTMiLz48bGluZSB5Mj0iMzkuNjkiIHgyPSIxMjMuMjUiIHkxPSIzOS42OSIgeDE9IjI2LjI4IiBjbGFzcz0iY2xzLTMiLz48cG9seWdvbiBwb2ludHM9IjEyMy44NiA4LjMgMTIzLjYzIDguMzQgMTIzLjQzIDguNDQgMTIzLjI3IDguNiAxMjMuMTYgOC44MSAxMjMuMTIgOS4wNCAxMjMuMTIgNDEuOTcgMTIzLjE2IDQyLjIgMTIzLjI3IDQyLjQgMTIzLjQzIDQyLjU2IDEyMy42MyA0Mi42NyAxMjMuODYgNDIuNyAxNDQuNzIgNDIuNyAxNDQuOTUgNDIuNjcgMTQ1LjE1IDQyLjU2IDE0NS4zMSA0Mi40IDE0NS40MiA0Mi4yIDE0NS40NiA0MS45NyAxNDUuNDYgOS4wNCAxNDUuNDIgOC44MSAxNDUuMzEgOC42IDE0NS4xNSA4LjQ0IDE0NC45NSA4LjM0IDE0NC43MiA4LjMgMTIzLjg2IDguMyIgY2xhc3M9ImNscy02Ii8+PHJlY3Qgcng9IjEuOSIgaGVpZ2h0PSIzNy44OCIgd2lkdGg9IjI0Ljk0IiB5PSI2LjU2IiB4PSIxMjMuMTIiIGNsYXNzPSJjbHMtMiIvPjwvZz48L3N2Zz4=;" vertex="1" parent="1">
          <mxGeometry x="584" y="590.5" width="214.9" height="40" as="geometry" />
        </mxCell>
        <mxCell id="Xxvg-gCRTEaE2rbNDNgC-159" value="Text" style="text;html=1;strokeColor=none;fillColor=none;align=center;verticalAlign=middle;whiteSpace=wrap;rounded=0;" vertex="1" parent="1">
          <mxGeometry x="444" y="604" width="140" height="14.5" as="geometry" />
        </mxCell>
        <mxCell id="Xxvg-gCRTEaE2rbNDNgC-160" value="OS v." style="text;html=1;strokeColor=none;fillColor=none;align=center;verticalAlign=middle;whiteSpace=wrap;rounded=0;" vertex="1" parent="1">
          <mxGeometry x="444" y="564" width="140" height="30" as="geometry" />
        </mxCell>
        <mxCell id="Xxvg-gCRTEaE2rbNDNgC-161" value="X1: Dynamic" style="text;html=1;strokeColor=none;fillColor=none;align=center;verticalAlign=middle;whiteSpace=wrap;rounded=0;fontSize=10;" vertex="1" parent="1">
          <mxGeometry x="644" y="570.5" width="80" height="10" as="geometry" />
        </mxCell>
        <mxCell id="Xxvg-gCRTEaE2rbNDNgC-162" value="X2: Dynamic" style="text;html=1;strokeColor=none;fillColor=none;align=center;verticalAlign=middle;whiteSpace=wrap;rounded=0;fontSize=10;" vertex="1" parent="1">
          <mxGeometry x="644" y="580.5" width="80" height="10" as="geometry" />
        </mxCell>
        <mxCell id="Xxvg-gCRTEaE2rbNDNgC-163" value="IPC647E" style="text;html=1;strokeColor=none;fillColor=none;align=center;verticalAlign=middle;whiteSpace=wrap;rounded=0;" vertex="1" parent="1">
          <mxGeometry x="444" y="624" width="140" height="14.5" as="geometry" />
        </mxCell>
        <mxCell id="Xxvg-gCRTEaE2rbNDNgC-164" value="" style="shape=image;verticalLabelPosition=bottom;labelBackgroundColor=default;verticalAlign=top;aspect=fixed;imageAspect=0;image=data:image/svg+xml,PHN2ZyB4bWxucz0iaHR0cDovL3d3dy53My5vcmcvMjAwMC9zdmciIHZpZXdCb3g9IjAgMCA4LjM3IDQ4LjE5Ij48ZGVmcz48c3R5bGU+LmNscy0xe2ZpbGw6I2E2YzRkMTtzdHJva2Utd2lkdGg6MC44NXB4O30uY2xzLTEsLmNscy0ye3N0cm9rZTojMDA1NTdjO30uY2xzLTJ7ZmlsbDpub25lO3N0cm9rZS13aWR0aDowLjIzcHg7fS5jbHMtMywuY2xzLTR7ZmlsbDojZDllZGY1O30uY2xzLTN7ZmlsbC1ydWxlOmV2ZW5vZGQ7fTwvc3R5bGU+PC9kZWZzPjxnIGRhdGEtbmFtZT0iT3JpZ2luYWwiIGlkPSJPcmlnaW5hbC0yIj48cGF0aCB0cmFuc2Zvcm09InRyYW5zbGF0ZSgtMzkyLjY2IC0xNjIuOTkpIiBkPSJNNDAwLjYxLDE2NC44NGMtLjM4LS40NC0uODYtMS0xLjI3LTEuNDJoLTYuMjV2MS4yOGgxdjMuMDVoLTF2MzEuNTdoMXYzLjA1aC0xdjQuMjZsMiwxLjQsMCwyLjcyaDMuNDdWMjA4bDIuMDYtMS40M1oiIGNsYXNzPSJjbHMtMSIvPjxwb2x5Z29uIHBvaW50cz0iMi42IDE4Ljc1IDMuNDcgMTguNzUgMy40NyAxNy42NiA2LjIgMTcuNjYgNi4yIDIyLjIxIDMuNDcgMjIuMjEgMy40NyAyMS4wNSAyLjYgMjEuMDUgMi42IDE4Ljc1IiBjbGFzcz0iY2xzLTIiLz48cmVjdCBoZWlnaHQ9IjUuNjYiIHdpZHRoPSI0Ljk3IiB5PSIxNy4xIiB4PSIxLjcxIiBjbGFzcz0iY2xzLTIiLz48cG9seWxpbmUgcG9pbnRzPSIyLjIzIDE4LjE0IDMuMTMgMTguMTQgMy4xMyAxNy4yNCAyLjIzIDE3LjI0IDIuMjMgMTguMTQiIGNsYXNzPSJjbHMtMyIvPjxwb2x5bGluZSBwb2ludHM9IjIuMjMgMjIuNjQgMy4xMyAyMi42NCAzLjEzIDIxLjc0IDIuMjMgMjEuNzQgMi4yMyAyMi42NCIgY2xhc3M9ImNscy0zIi8+PHBvbHlnb24gcG9pbnRzPSIyLjYgMjYuNTYgMy40NyAyNi41NiAzLjQ3IDI1LjQ3IDYuMiAyNS40NyA2LjIgMzAuMDIgMy40NyAzMC4wMiAzLjQ3IDI4Ljg2IDIuNiAyOC44NiAyLjYgMjYuNTYiIGNsYXNzPSJjbHMtMiIvPjxyZWN0IGhlaWdodD0iNS42NiIgd2lkdGg9IjQuOTciIHk9IjI0LjkyIiB4PSIxLjcxIiBjbGFzcz0iY2xzLTIiLz48cG9seWxpbmUgcG9pbnRzPSIyLjIzIDI1Ljk1IDMuMTMgMjUuOTUgMy4xMyAyNS4wNSAyLjIzIDI1LjA1IDIuMjMgMjUuOTUiIGNsYXNzPSJjbHMtMyIvPjxwb2x5bGluZSBwb2ludHM9IjIuMjMgMzAuNDUgMy4xMyAzMC40NSAzLjEzIDI5LjU1IDIuMjMgMjkuNTUgMi4yMyAzMC40NSIgY2xhc3M9ImNscy0zIi8+PHBhdGggdHJhbnNmb3JtPSJ0cmFuc2xhdGUoLTM5Mi42NiAtMTYyLjk5KSIgZD0iTTM5Ni4yLDE5Ni4xN2EuNjYuNjYsMCwxLDEtLjY1LS42NUEuNjUuNjUsMCwwLDEsMzk2LjIsMTk2LjE3WiIgY2xhc3M9ImNscy00Ii8+PHBhdGggdHJhbnNmb3JtPSJ0cmFuc2xhdGUoLTM5Mi42NiAtMTYyLjk5KSIgZD0iTTM5Ni4yLDE3Ny4zYS42Ni42NiwwLDEsMS0uNjUtLjY1QS42NS42NSwwLDAsMSwzOTYuMiwxNzcuM1oiIGNsYXNzPSJjbHMtNCIvPjxwYXRoIHRyYW5zZm9ybT0idHJhbnNsYXRlKC0zOTIuNjYgLTE2Mi45OSkiIGQ9Ik0zOTguMjcsMTk2LjE3YS42Ni42NiwwLDAsMS0uNjYuNjYuNjYuNjYsMCwxLDEsLjY2LS42NloiIGNsYXNzPSJjbHMtNCIvPjxyZWN0IGhlaWdodD0iNS42NiIgd2lkdGg9IjMuNzQiIHk9IjcuMDkiIHg9IjIuMDIiIGNsYXNzPSJjbHMtMiIvPjxwYXRoIHRyYW5zZm9ybT0idHJhbnNsYXRlKC0zOTIuNjYgLTE2Mi45OSkiIGQ9Ik0zOTcuOTEsMTcyLjkxVjE3NWgtMi4zOWExLjg3LDEuODcsMCwwLDEsMC0yLjEyIiBjbGFzcz0iY2xzLTIiLz48cGF0aCB0cmFuc2Zvcm09InRyYW5zbGF0ZSgtMzkyLjY2IC0xNjIuOTkpIiBkPSJNMzk2LjUzLDE3My40NWEuNTEuNTEsMCwwLDEsMCwxLC41MS41MSwwLDAsMSwwLTFaIiBjbGFzcz0iY2xzLTIiLz48cGF0aCB0cmFuc2Zvcm09InRyYW5zbGF0ZSgtMzkyLjY2IC0xNjIuOTkpIiBkPSJNMzk3LjkxLDE3Mi45MVYxNzAuOGgtMi4zOWExLjg1LDEuODUsMCwwLDAtLjMzLDEuMDYsMS44MiwxLjgyLDAsMCwwLC4zMywxIiBjbGFzcz0iY2xzLTIiLz48cGF0aCB0cmFuc2Zvcm09InRyYW5zbGF0ZSgtMzkyLjY2IC0xNjIuOTkpIiBkPSJNMzk2LjUzLDE3Mi4zN2EuNS41LDAsMCwwLDAtMSwuNS41LDAsMCwwLDAsMVoiIGNsYXNzPSJjbHMtMiIvPjwvZz48L3N2Zz4=;" vertex="1" parent="1">
          <mxGeometry x="528" y="498" width="8" height="48" as="geometry" />
        </mxCell>
        <mxCell id="Xxvg-gCRTEaE2rbNDNgC-165" value="CP1623&lt;br&gt;IE: Dynamic" style="text;html=1;strokeColor=none;fillColor=none;align=center;verticalAlign=middle;whiteSpace=wrap;rounded=0;" vertex="1" parent="1">
          <mxGeometry x="484" y="468" width="96" height="30" as="geometry" />
        </mxCell>
        <mxCell id="Xxvg-gCRTEaE2rbNDNgC-166" value="" style="shape=image;verticalLabelPosition=bottom;labelBackgroundColor=default;verticalAlign=top;aspect=fixed;imageAspect=0;image=data:image/svg+xml,PHN2ZyB4bWxucz0iaHR0cDovL3d3dy53My5vcmcvMjAwMC9zdmciIHZpZXdCb3g9IjAgMCAzNC4zMiA3MS45NCI+PGRlZnM+PHN0eWxlPi5jbHMtMSwuY2xzLTJ7ZmlsbDojYTZjNGQxO30uY2xzLTEsLmNscy0yLC5jbHMtNCwuY2xzLTUsLmNscy02e3N0cm9rZTojMDA1NTdjO30uY2xzLTF7c3Ryb2tlLXdpZHRoOjAuODVweDt9LmNscy0ye3N0cm9rZS13aWR0aDowLjIzcHg7fS5jbHMtM3tmaWxsOiNkOWVkZjU7fS5jbHMtNCwuY2xzLTUsLmNscy02e2ZpbGw6bm9uZTt9LmNscy00LC5jbHMtNXtzdHJva2UtbWl0ZXJsaW1pdDoxO30uY2xzLTR7c3Ryb2tlLXdpZHRoOjAuMjhweDt9LmNscy01LC5jbHMtNntzdHJva2Utd2lkdGg6MC40OHB4O30uY2xzLTd7ZmlsbDojMDA1NTdjO308L3N0eWxlPjwvZGVmcz48ZyBkYXRhLW5hbWU9Ik9yaWdpbmFsIiBpZD0iT3JpZ2luYWwtMiI+PHJlY3QgaGVpZ2h0PSI3MS4wOSIgd2lkdGg9IjMzLjQ3IiB5PSIwLjQzIiB4PSIwLjQzIiBjbGFzcz0iY2xzLTEiLz48bGluZSB5Mj0iMzYuMDQiIHgyPSIzMy45IiB5MT0iMzYuMDQiIHgxPSIwLjQzIiBjbGFzcz0iY2xzLTEiLz48cGF0aCB0cmFuc2Zvcm09InRyYW5zbGF0ZSgtMzc5LjY5IC0xNTEuMTIpIiBkPSJNMzg3LjIyLDIwNWExLjk0LDEuOTQsMCwxLDEsMS45NCwxLjk0QTEuOTQsMS45NCwwLDAsMSwzODcuMjIsMjA1WiIgY2xhc3M9ImNscy0yIi8+PHBhdGggdHJhbnNmb3JtPSJ0cmFuc2xhdGUoLTM3OS42OSAtMTUxLjEyKSIgZD0iTTM4OC4yNiwyMDVhLjkuOSwwLDEsMSwuOS44OUEuOS45LDAsMCwxLDM4OC4yNiwyMDVaIiBjbGFzcz0iY2xzLTMiLz48cmVjdCBoZWlnaHQ9IjEwLjA4IiB3aWR0aD0iMjUuNzUiIHk9IjExLjUxIiB4PSI0LjI5IiBjbGFzcz0iY2xzLTMiLz48cGF0aCB0cmFuc2Zvcm09InRyYW5zbGF0ZSgtMzc5LjY5IC0xNTEuMTIpIiBkPSJNMzg2LjUzLDE3Ny4yYTIuMDUsMi4wNSwwLDEsMSwyLjA1LDIuMDVBMi4wNSwyLjA1LDAsMCwxLDM4Ni41MywxNzcuMloiIGNsYXNzPSJjbHMtNCIvPjxwYXRoIHRyYW5zZm9ybT0idHJhbnNsYXRlKC0zNzkuNjkgLTE1MS4xMikiIGQ9Ik0zODYuNTMsMTgyLjcyYTIuMDUsMi4wNSwwLDEsMSwyLjA1LDIuMDVBMi4wNSwyLjA1LDAsMCwxLDM4Ni41MywxODIuNzJaIiBjbGFzcz0iY2xzLTQiLz48cGF0aCB0cmFuc2Zvcm09InRyYW5zbGF0ZSgtMzc5LjY5IC0xNTEuMTIpIiBkPSJNMzkyLDE3Ny4yYTIsMiwwLDEsMSwyLDIuMDVBMiwyLDAsMCwxLDM5MiwxNzcuMloiIGNsYXNzPSJjbHMtNCIvPjxwYXRoIHRyYW5zZm9ybT0idHJhbnNsYXRlKC0zNzkuNjkgLTE1MS4xMikiIGQ9Ik0zOTIsMTgyLjcyYTIsMiwwLDEsMSwyLDIuMDVBMiwyLDAsMCwxLDM5MiwxODIuNzJaIiBjbGFzcz0iY2xzLTQiLz48cGF0aCB0cmFuc2Zvcm09InRyYW5zbGF0ZSgtMzc5LjY5IC0xNTEuMTIpIiBkPSJNMzk3LjYyLDE3Ny4yYTIuMDUsMi4wNSwwLDEsMSwyLjA1LDIuMDVBMi4wNSwyLjA1LDAsMCwxLDM5Ny42MiwxNzcuMloiIGNsYXNzPSJjbHMtNCIvPjxwYXRoIHRyYW5zZm9ybT0idHJhbnNsYXRlKC0zNzkuNjkgLTE1MS4xMikiIGQ9Ik0zOTcuNjIsMTgyLjcyYTIuMDUsMi4wNSwwLDEsMSwyLjA1LDIuMDVBMi4wNSwyLjA1LDAsMCwxLDM5Ny42MiwxODIuNzJaIiBjbGFzcz0iY2xzLTQiLz48cGF0aCB0cmFuc2Zvcm09InRyYW5zbGF0ZSgtMzc5LjY5IC0xNTEuMTIpIiBkPSJNNDAzLjA3LDE3Ny4yYTIuMDUsMi4wNSwwLDEsMSwyLjA1LDIuMDVBMi4wNSwyLjA1LDAsMCwxLDQwMy4wNywxNzcuMloiIGNsYXNzPSJjbHMtNCIvPjxwYXRoIHRyYW5zZm9ybT0idHJhbnNsYXRlKC0zNzkuNjkgLTE1MS4xMikiIGQ9Ik00MDMuMDcsMTgyLjcyYTIuMDUsMi4wNSwwLDEsMSwyLjA1LDIuMDVBMi4wNSwyLjA1LDAsMCwxLDQwMy4wNywxODIuNzJaIiBjbGFzcz0iY2xzLTQiLz48cmVjdCBoZWlnaHQ9IjM5LjkxIiB3aWR0aD0iMjguOTEiIHk9IjYuNzIiIHg9IjIuNyIgY2xhc3M9ImNscy01Ii8+PHBhdGggdHJhbnNmb3JtPSJ0cmFuc2xhdGUoLTM3OS42OSAtMTUxLjEyKSIgZD0iTTM4Mi40MywxNTcuODVhNjYuNDQsNjYuNDQsMCwwLDEsMjguODUsMCIgY2xhc3M9ImNscy02Ii8+PHBhdGggdHJhbnNmb3JtPSJ0cmFuc2xhdGUoLTM3OS42OSAtMTUxLjEyKSIgZD0iTTM4Mi40MywxOThhNjYuNDIsNjYuNDIsMCwwLDAsMjguODUsMCIgY2xhc3M9ImNscy02Ii8+PHJlY3QgaGVpZ2h0PSIyLjY4IiB3aWR0aD0iMTAuMDkiIHk9IjcuOSIgeD0iMTIuMTIiIGNsYXNzPSJjbHMtNyIvPjwvZz48L3N2Zz4=;" vertex="1" parent="1">
          <mxGeometry x="720" y="470" width="34" height="72" as="geometry" />
        </mxCell>
        <mxCell id="Xxvg-gCRTEaE2rbNDNgC-167" value="Text" style="text;html=1;strokeColor=none;fillColor=none;align=center;verticalAlign=middle;whiteSpace=wrap;rounded=0;" vertex="1" parent="1">
          <mxGeometry x="630" y="470" width="90" height="30" as="geometry" />
        </mxCell>
        <mxCell id="Xxvg-gCRTEaE2rbNDNgC-168" value="MICROMASTER" style="text;html=1;strokeColor=none;fillColor=none;align=center;verticalAlign=middle;whiteSpace=wrap;rounded=0;fontSize=10;" vertex="1" parent="1">
          <mxGeometry x="630" y="500" width="90" height="20" as="geometry" />
        </mxCell>
        <mxCell id="Xxvg-gCRTEaE2rbNDNgC-169" value="DP x / IE ADDR" style="text;html=1;strokeColor=none;fillColor=none;align=center;verticalAlign=middle;whiteSpace=wrap;rounded=0;fontSize=10;" vertex="1" parent="1">
          <mxGeometry x="630" y="520" width="90" height="20" as="geometry" />
        </mxCell>
        <mxCell id="Xxvg-gCRTEaE2rbNDNgC-170" value="" style="shape=image;verticalLabelPosition=bottom;labelBackgroundColor=default;verticalAlign=top;aspect=fixed;imageAspect=0;image=data:image/svg+xml,PHN2ZyB4bWxucz0iaHR0cDovL3d3dy53My5vcmcvMjAwMC9zdmciIHZpZXdCb3g9IjAgMCAyMy41MyAyMy40MyI+PGRlZnM+PHN0eWxlPi5jbHMtMSwuY2xzLTJ7ZmlsbDojYTZjN2Q1O3N0cm9rZTojMDA1Zjg3O3N0cm9rZS13aWR0aDowLjg1cHg7fS5jbHMtMiwuY2xzLTV7ZmlsbC1ydWxlOmV2ZW5vZGQ7fS5jbHMtM3tmaWxsOm5vbmU7c3Ryb2tlOiMwMDU1N2M7c3Ryb2tlLW1pdGVybGltaXQ6My44NjtzdHJva2Utd2lkdGg6MC4yM3B4O30uY2xzLTQsLmNscy01e2ZpbGw6I2U1ZjVmOTtzdHJva2U6I2E2YzdkNTtzdHJva2Utd2lkdGg6MC4yM3B4O308L3N0eWxlPjwvZGVmcz48ZyBpZD0iT3JpZ2luYWwiPjxyZWN0IGhlaWdodD0iMjIuNTgiIHdpZHRoPSIyMi42OCIgeT0iMC40MyIgeD0iMC40MyIgY2xhc3M9ImNscy0xIi8+PHBhdGggdHJhbnNmb3JtPSJ0cmFuc2xhdGUoLTM4NS4wOSAtMTc1LjQxKSIgZD0iTTM5My44NywxODcuMTYiIGNsYXNzPSJjbHMtMiIvPjxyZWN0IGhlaWdodD0iOC40IiB3aWR0aD0iOS43NyIgeT0iNy41OCIgeD0iMTMuMzIiIGNsYXNzPSJjbHMtMyIvPjxyZWN0IGhlaWdodD0iNC40NiIgd2lkdGg9IjIyLjY4IiB5PSIxOC41NCIgeD0iMC40MyIgY2xhc3M9ImNscy0zIi8+PHBvbHlsaW5lIHBvaW50cz0iMjMuMDkgMC4zNCAyMy4wOSA1LjAxIDAuNDEgNS4wMSIgY2xhc3M9ImNscy0zIi8+PHJlY3QgaGVpZ2h0PSIwLjkxIiB3aWR0aD0iMC45MSIgeT0iNS44NiIgeD0iMi4xNSIgY2xhc3M9ImNscy00Ii8+PHBhdGggdHJhbnNmb3JtPSJ0cmFuc2xhdGUoLTM4NS4wOSAtMTc1LjQxKSIgZD0iTTM4Ny43MSwxODEuNzQiIGNsYXNzPSJjbHMtNSIvPjxwb2x5bGluZSBwb2ludHM9IjMuMDYgNS44NyAzLjk2IDUuODcgMy45NiA2Ljc4IDMuMDYgNi43OCAzLjA2IDUuODciIGNsYXNzPSJjbHMtNSIvPjxwYXRoIHRyYW5zZm9ybT0idHJhbnNsYXRlKC0zODUuMDkgLTE3NS40MSkiIGQ9Ik0zODguNjEsMTgxLjc0IiBjbGFzcz0iY2xzLTUiLz48cG9seWxpbmUgcG9pbnRzPSIzLjk2IDUuODcgNC44NyA1Ljg3IDQuODcgNi43OCAzLjk2IDYuNzggMy45NiA1Ljg3IiBjbGFzcz0iY2xzLTUiLz48cGF0aCB0cmFuc2Zvcm09InRyYW5zbGF0ZSgtMzg1LjA5IC0xNzUuNDEpIiBkPSJNMzg5LjUxLDE4MS43NCIgY2xhc3M9ImNscy01Ii8+PHBvbHlsaW5lIHBvaW50cz0iNC44NyA1Ljg3IDUuNzggNS44NyA1Ljc4IDYuNzggNC44NyA2Ljc4IDQuODcgNS44NyIgY2xhc3M9ImNscy01Ii8+PHBhdGggdHJhbnNmb3JtPSJ0cmFuc2xhdGUoLTM4NS4wOSAtMTc1LjQxKSIgZD0iTTM5MC40MSwxODEuNzQiIGNsYXNzPSJjbHMtNSIvPjxwb2x5bGluZSBwb2ludHM9IjUuNzggNS44NyA2LjY4IDUuODcgNi42OCA2Ljc4IDUuNzggNi43OCA1Ljc4IDUuODciIGNsYXNzPSJjbHMtNSIvPjxwYXRoIHRyYW5zZm9ybT0idHJhbnNsYXRlKC0zODUuMDkgLTE3NS40MSkiIGQ9Ik0zOTEuMzMsMTgxLjc0IiBjbGFzcz0iY2xzLTUiLz48cG9seWxpbmUgcG9pbnRzPSI2LjY4IDUuODcgNy41OSA1Ljg3IDcuNTkgNi43OCA2LjY4IDYuNzggNi42OCA1Ljg3IiBjbGFzcz0iY2xzLTUiLz48cGF0aCB0cmFuc2Zvcm09InRyYW5zbGF0ZSgtMzg1LjA5IC0xNzUuNDEpIiBkPSJNMzkyLjI0LDE4MS43NCIgY2xhc3M9ImNscy01Ii8+PHBvbHlsaW5lIHBvaW50cz0iNy41OSA1Ljg3IDguNTEgNS44NyA4LjUxIDYuNzggNy41OSA2Ljc4IDcuNTkgNS44NyIgY2xhc3M9ImNscy01Ii8+PHBhdGggdHJhbnNmb3JtPSJ0cmFuc2xhdGUoLTM4NS4wOSAtMTc1LjQxKSIgZD0iTTM5My4xNCwxODEuNzQiIGNsYXNzPSJjbHMtNSIvPjxwb2x5bGluZSBwb2ludHM9IjguNTEgNS44NyA5LjQxIDUuODcgOS40MSA2Ljc4IDguNTEgNi43OCA4LjUxIDUuODciIGNsYXNzPSJjbHMtNSIvPjxwYXRoIHRyYW5zZm9ybT0idHJhbnNsYXRlKC0zODUuMDkgLTE3NS40MSkiIGQ9Ik0zOTQuMDUsMTgxLjc0IiBjbGFzcz0iY2xzLTUiLz48cmVjdCBoZWlnaHQ9IjAuOTEiIHdpZHRoPSIwLjkxIiB5PSIxNi43NyIgeD0iMi4xNSIgY2xhc3M9ImNscy00Ii8+PHBhdGggdHJhbnNmb3JtPSJ0cmFuc2xhdGUoLTM4NS4wOSAtMTc1LjQxKSIgZD0iTTM4Ny43MSwxOTIuNjUiIGNsYXNzPSJjbHMtNSIvPjxwb2x5bGluZSBwb2ludHM9IjMuMDYgMTYuNzcgMy45NiAxNi43NyAzLjk2IDE3LjY4IDMuMDYgMTcuNjggMy4wNiAxNi43NyIgY2xhc3M9ImNscy01Ii8+PHBhdGggdHJhbnNmb3JtPSJ0cmFuc2xhdGUoLTM4NS4wOSAtMTc1LjQxKSIgZD0iTTM4OC42MSwxOTIuNjUiIGNsYXNzPSJjbHMtNSIvPjxwb2x5bGluZSBwb2ludHM9IjMuOTYgMTYuNzcgNC44NyAxNi43NyA0Ljg3IDE3LjY4IDMuOTYgMTcuNjggMy45NiAxNi43NyIgY2xhc3M9ImNscy01Ii8+PHBhdGggdHJhbnNmb3JtPSJ0cmFuc2xhdGUoLTM4NS4wOSAtMTc1LjQxKSIgZD0iTTM4OS41MSwxOTIuNjUiIGNsYXNzPSJjbHMtNSIvPjxwb2x5bGluZSBwb2ludHM9IjQuODcgMTYuNzcgNS43OCAxNi43NyA1Ljc4IDE3LjY4IDQuODcgMTcuNjggNC44NyAxNi43NyIgY2xhc3M9ImNscy01Ii8+PHBhdGggdHJhbnNmb3JtPSJ0cmFuc2xhdGUoLTM4NS4wOSAtMTc1LjQxKSIgZD0iTTM5MC40MSwxOTIuNjUiIGNsYXNzPSJjbHMtNSIvPjxwb2x5bGluZSBwb2ludHM9IjUuNzggMTYuNzcgNi42OCAxNi43NyA2LjY4IDE3LjY4IDUuNzggMTcuNjggNS43OCAxNi43NyIgY2xhc3M9ImNscy01Ii8+PHBhdGggdHJhbnNmb3JtPSJ0cmFuc2xhdGUoLTM4NS4wOSAtMTc1LjQxKSIgZD0iTTM5MS4zMywxOTIuNjUiIGNsYXNzPSJjbHMtNSIvPjxwb2x5bGluZSBwb2ludHM9IjYuNjggMTYuNzcgNy41OSAxNi43NyA3LjU5IDE3LjY4IDYuNjggMTcuNjggNi42OCAxNi43NyIgY2xhc3M9ImNscy01Ii8+PHBhdGggdHJhbnNmb3JtPSJ0cmFuc2xhdGUoLTM4NS4wOSAtMTc1LjQxKSIgZD0iTTM5Mi4yNCwxOTIuNjUiIGNsYXNzPSJjbHMtNSIvPjxwb2x5bGluZSBwb2ludHM9IjcuNTkgMTYuNzcgOC41MSAxNi43NyA4LjUxIDE3LjY4IDcuNTkgMTcuNjggNy41OSAxNi43NyIgY2xhc3M9ImNscy01Ii8+PHBhdGggdHJhbnNmb3JtPSJ0cmFuc2xhdGUoLTM4NS4wOSAtMTc1LjQxKSIgZD0iTTM5My4xNCwxOTIuNjUiIGNsYXNzPSJjbHMtNSIvPjxwb2x5bGluZSBwb2ludHM9IjguNTEgMTYuNzcgOS40MSAxNi43NyA5LjQxIDE3LjY4IDguNTEgMTcuNjggOC41MSAxNi43NyIgY2xhc3M9ImNscy01Ii8+PHBhdGggdHJhbnNmb3JtPSJ0cmFuc2xhdGUoLTM4NS4wOSAtMTc1LjQxKSIgZD0iTTM5NC4wNSwxOTIuNjUiIGNsYXNzPSJjbHMtNSIvPjwvZz48L3N2Zz4=;" vertex="1" parent="1">
          <mxGeometry x="776" y="363" width="35.48" height="34" as="geometry" />
        </mxCell>
        <mxCell id="Xxvg-gCRTEaE2rbNDNgC-171" value="Text" style="text;html=1;strokeColor=none;fillColor=none;align=center;verticalAlign=middle;whiteSpace=wrap;rounded=0;" vertex="1" parent="1">
          <mxGeometry x="716" y="361" width="60" height="20" as="geometry" />
        </mxCell>
        <mxCell id="Xxvg-gCRTEaE2rbNDNgC-172" value="S7-200" style="text;html=1;strokeColor=none;fillColor=none;align=center;verticalAlign=middle;whiteSpace=wrap;rounded=0;fontSize=8;" vertex="1" parent="1">
          <mxGeometry x="716" y="381" width="60" height="10" as="geometry" />
        </mxCell>
        <mxCell id="Xxvg-gCRTEaE2rbNDNgC-173" value="DP x / IE ADDR" style="text;html=1;strokeColor=none;fillColor=none;align=center;verticalAlign=middle;whiteSpace=wrap;rounded=0;fontSize=8;" vertex="1" parent="1">
          <mxGeometry x="716" y="391" width="60" height="10" as="geometry" />
        </mxCell>
      </root>
    </mxGraphModel>
  </diagram>
</mxfile>
